# MagicaVoxel @ Ephtracy

# group
o 

# material
mtllib aro.mtl
usemtl palette

# normals
vn -1 0 0
vn 1 0 0
vn 0 0 1
vn 0 0 -1
vn 0 -1 0
vn 0 1 0

# texcoords
vt 0.923828 0.5
vt 0.935547 0.5

# verts
v -0.5 0.3 0.4
v -0.5 0.3 0.3
v -0.5 0.4 0.5
v -0.5 0.4 0.4
v -0.5 0.4 0.3
v -0.5 0.4 0.2
v -0.5 0.5 0.3
v -0.5 0.5 0.2
v -0.5 0.6 0.5
v -0.5 0.6 0.4
v -0.5 0.6 0.3
v -0.5 0.6 0.2
v -0.5 0.7 0.4
v -0.5 0.7 0.3
v -0.4 0.1 0.4
v -0.4 0.1 0.3
v -0.4 0.2 0.5
v -0.4 0.2 0.4
v -0.4 0.2 0.3
v -0.4 0.2 0.2
v -0.4 0.3 0.5
v -0.4 0.3 0.4
v -0.4 0.3 0.3
v -0.4 0.3 0.2
v -0.4 0.4 0.5
v -0.4 0.4 0.4
v -0.4 0.4 0.3
v -0.4 0.4 0.2
v -0.4 0.6 0.5
v -0.4 0.6 0.4
v -0.4 0.6 0.3
v -0.4 0.6 0.2
v -0.4 0.7 0.5
v -0.4 0.7 0.4
v -0.4 0.7 0.3
v -0.4 0.8 0.5
v -0.4 0.8 0.4
v -0.4 0.8 0.3
v -0.4 0.8 0.2
v -0.4 0.9 0.4
v -0.4 0.9 0.3
v -0.3 0.1 0.5
v -0.3 0.1 0.4
v -0.3 0.1 0.3
v -0.3 0.1 0.2
v -0.3 0.2 0.5
v -0.3 0.2 0.4
v -0.3 0.2 0.3
v -0.3 0.2 0.2
v -0.3 0.8 0.5
v -0.3 0.8 0.4
v -0.3 0.8 0.3
v -0.3 0.8 0.2
v -0.3 0.9 0.5
v -0.3 0.9 0.4
v -0.3 0.9 0.3
v -0.3 0.9 0.2
v -0.2 0 0.4
v -0.2 0 0.3
v -0.2 0.1 0.4
v -0.2 0.1 0.3
v -0.2 0.9 0.4
v -0.2 0.9 0.3
v -0.2 1 0.4
v -0.2 1 0.3
v -0.1 0 0.5
v -0.1 0 0.4
v -0.1 0 0.3
v -0.1 0 0.2
v -0.1 0.1 0.5
v -0.1 0.1 0.4
v -0.1 0.1 0.3
v -0.1 0.1 0.2
v -0.1 0.9 0.5
v -0.1 0.9 0.4
v -0.1 0.9 0.3
v -0.1 0.9 0.2
v -0.1 1 0.5
v -0.1 1 0.4
v -0.1 1 0.3
v -0.1 1 0.2
v 0.2 0.2 0.5
v 0.2 0.2 0.4
v 0.2 0.2 0.2
v 0.2 0.3 0.5
v 0.2 0.3 0.2
v 0.2 0.7 0.5
v 0.2 0.7 0.2
v 0.2 0.8 0.5
v 0.2 0.8 0.2
v 0.3 0.3 0.5
v 0.3 0.3 0.2
v 0.3 0.6 0.4
v 0.3 0.6 0.2
v 0.3 0.7 0.5
v 0.3 0.7 0.4
v 0.3 0.7 0.2
v -0.3 0.3 0.5
v -0.3 0.3 0.4
v -0.3 0.3 0.3
v -0.3 0.3 0.2
v -0.3 0.4 0.5
v -0.3 0.4 0.4
v -0.3 0.4 0.3
v -0.3 0.4 0.2
v -0.3 0.7 0.5
v -0.3 0.7 0.4
v -0.3 0.7 0.3
v -0.3 0.7 0.2
v -0.2 0.2 0.5
v -0.2 0.2 0.4
v -0.2 0.2 0.3
v -0.2 0.2 0.2
v -0.2 0.3 0.5
v -0.2 0.3 0.4
v -0.2 0.3 0.3
v -0.2 0.3 0.2
v -0.2 0.7 0.5
v -0.2 0.7 0.4
v -0.2 0.7 0.3
v -0.2 0.7 0.2
v -0.2 0.8 0.5
v -0.2 0.8 0.4
v -0.2 0.8 0.3
v -0.2 0.8 0.2
v 0.1 0 0.5
v 0.1 0 0.4
v 0.1 0 0.3
v 0.1 0 0.2
v 0.1 0.1 0.5
v 0.1 0.1 0.4
v 0.1 0.1 0.3
v 0.1 0.1 0.2
v 0.1 0.9 0.5
v 0.1 0.9 0.4
v 0.1 0.9 0.3
v 0.1 0.9 0.2
v 0.1 1 0.5
v 0.1 1 0.4
v 0.1 1 0.3
v 0.1 1 0.2
v 0.2 0 0.4
v 0.2 0 0.3
v 0.2 0.1 0.4
v 0.2 0.1 0.3
v 0.2 0.9 0.4
v 0.2 0.9 0.3
v 0.2 1 0.4
v 0.2 1 0.3
v 0.3 0.1 0.5
v 0.3 0.1 0.4
v 0.3 0.1 0.3
v 0.3 0.1 0.2
v 0.3 0.2 0.5
v 0.3 0.2 0.4
v 0.3 0.2 0.3
v 0.3 0.2 0.2
v 0.3 0.8 0.5
v 0.3 0.8 0.4
v 0.3 0.8 0.3
v 0.3 0.8 0.2
v 0.3 0.9 0.5
v 0.3 0.9 0.4
v 0.3 0.9 0.3
v 0.3 0.9 0.2
v 0.4 0.1 0.4
v 0.4 0.1 0.3
v 0.4 0.2 0.5
v 0.4 0.2 0.4
v 0.4 0.2 0.3
v 0.4 0.2 0.2
v 0.4 0.3 0.4
v 0.4 0.3 0.3
v 0.4 0.3 0.2
v 0.4 0.4 0.5
v 0.4 0.4 0.4
v 0.4 0.4 0.3
v 0.4 0.4 0.2
v 0.4 0.6 0.5
v 0.4 0.6 0.4
v 0.4 0.6 0.3
v 0.4 0.6 0.2
v 0.4 0.7 0.4
v 0.4 0.7 0.3
v 0.4 0.8 0.5
v 0.4 0.8 0.4
v 0.4 0.8 0.3
v 0.4 0.8 0.2
v 0.4 0.9 0.4
v 0.4 0.9 0.3
v 0.5 0.3 0.4
v 0.5 0.3 0.3
v 0.5 0.4 0.5
v 0.5 0.4 0.4
v 0.5 0.4 0.3
v 0.5 0.4 0.2
v 0.5 0.5 0.5
v 0.5 0.5 0.4
v 0.5 0.6 0.5
v 0.5 0.6 0.4
v 0.5 0.6 0.3
v 0.5 0.6 0.2
v 0.5 0.7 0.4
v 0.5 0.7 0.3
v -0.5 0.4 0.5
v -0.5 0.6 0.5
v -0.4 0.2 0.5
v -0.4 0.3 0.5
v -0.4 0.4 0.5
v -0.4 0.6 0.5
v -0.4 0.7 0.5
v -0.4 0.8 0.5
v -0.3 0.1 0.5
v -0.3 0.2 0.5
v -0.3 0.3 0.5
v -0.3 0.4 0.5
v -0.3 0.7 0.5
v -0.3 0.8 0.5
v -0.3 0.9 0.5
v -0.2 0.1 0.5
v -0.2 0.2 0.5
v -0.2 0.3 0.5
v -0.2 0.7 0.5
v -0.2 0.8 0.5
v -0.1 0 0.5
v -0.1 0.1 0.5
v -0.1 0.2 0.5
v -0.1 0.9 0.5
v -0.1 1 0.5
v 0.1 0 0.5
v 0.1 0.1 0.5
v 0.1 0.2 0.5
v 0.1 0.8 0.5
v 0.1 0.9 0.5
v 0.1 1 0.5
v 0.2 0.2 0.5
v 0.2 0.3 0.5
v 0.2 0.7 0.5
v 0.2 0.8 0.5
v 0.2 0.9 0.5
v 0.3 0.1 0.5
v 0.3 0.2 0.5
v 0.3 0.3 0.5
v 0.3 0.7 0.5
v 0.3 0.8 0.5
v 0.3 0.9 0.5
v 0.4 0.2 0.5
v 0.4 0.4 0.5
v 0.4 0.5 0.5
v 0.4 0.6 0.5
v 0.4 0.8 0.5
v 0.5 0.4 0.5
v 0.5 0.5 0.5
v 0.5 0.6 0.5
v -0.5 0.3 0.4
v -0.5 0.4 0.4
v -0.5 0.6 0.4
v -0.5 0.7 0.4
v -0.4 0.1 0.4
v -0.4 0.2 0.4
v -0.4 0.3 0.4
v -0.4 0.4 0.4
v -0.4 0.6 0.4
v -0.4 0.7 0.4
v -0.4 0.8 0.4
v -0.4 0.9 0.4
v -0.3 0.1 0.4
v -0.3 0.2 0.4
v -0.3 0.8 0.4
v -0.3 0.9 0.4
v -0.2 0 0.4
v -0.2 0.1 0.4
v -0.2 0.9 0.4
v -0.2 1 0.4
v -0.1 0 0.4
v -0.1 0.1 0.4
v -0.1 0.9 0.4
v -0.1 1 0.4
v 0.1 0 0.4
v 0.1 0.1 0.4
v 0.1 0.9 0.4
v 0.1 1 0.4
v 0.2 0 0.4
v 0.2 0.1 0.4
v 0.2 0.9 0.4
v 0.2 1 0.4
v 0.3 0.1 0.4
v 0.3 0.2 0.4
v 0.3 0.8 0.4
v 0.3 0.9 0.4
v 0.4 0.1 0.4
v 0.4 0.2 0.4
v 0.4 0.3 0.4
v 0.4 0.4 0.4
v 0.4 0.6 0.4
v 0.4 0.7 0.4
v 0.4 0.8 0.4
v 0.4 0.9 0.4
v 0.5 0.3 0.4
v 0.5 0.4 0.4
v 0.5 0.6 0.4
v 0.5 0.7 0.4
v -0.5 0.3 0.3
v -0.5 0.4 0.3
v -0.5 0.6 0.3
v -0.5 0.7 0.3
v -0.4 0.1 0.3
v -0.4 0.2 0.3
v -0.4 0.3 0.3
v -0.4 0.4 0.3
v -0.4 0.6 0.3
v -0.4 0.7 0.3
v -0.4 0.8 0.3
v -0.4 0.9 0.3
v -0.3 0.1 0.3
v -0.3 0.2 0.3
v -0.3 0.8 0.3
v -0.3 0.9 0.3
v -0.2 0 0.3
v -0.2 0.1 0.3
v -0.2 0.9 0.3
v -0.2 1 0.3
v -0.1 0 0.3
v -0.1 0.1 0.3
v -0.1 0.9 0.3
v -0.1 1 0.3
v 0.1 0 0.3
v 0.1 0.1 0.3
v 0.1 0.9 0.3
v 0.1 1 0.3
v 0.2 0 0.3
v 0.2 0.1 0.3
v 0.2 0.9 0.3
v 0.2 1 0.3
v 0.3 0.1 0.3
v 0.3 0.2 0.3
v 0.3 0.8 0.3
v 0.3 0.9 0.3
v 0.4 0.1 0.3
v 0.4 0.2 0.3
v 0.4 0.3 0.3
v 0.4 0.4 0.3
v 0.4 0.6 0.3
v 0.4 0.7 0.3
v 0.4 0.8 0.3
v 0.4 0.9 0.3
v 0.5 0.3 0.3
v 0.5 0.4 0.3
v 0.5 0.6 0.3
v 0.5 0.7 0.3
v -0.5 0.4 0.2
v -0.5 0.5 0.2
v -0.5 0.6 0.2
v -0.4 0.2 0.2
v -0.4 0.3 0.2
v -0.4 0.4 0.2
v -0.4 0.5 0.2
v -0.4 0.6 0.2
v -0.4 0.8 0.2
v -0.3 0.1 0.2
v -0.3 0.2 0.2
v -0.3 0.3 0.2
v -0.3 0.4 0.2
v -0.3 0.7 0.2
v -0.3 0.8 0.2
v -0.3 0.9 0.2
v -0.2 0.2 0.2
v -0.2 0.3 0.2
v -0.2 0.7 0.2
v -0.2 0.8 0.2
v -0.1 0 0.2
v -0.1 0.1 0.2
v -0.1 0.2 0.2
v -0.1 0.9 0.2
v -0.1 1 0.2
v 0 0.8 0.2
v 0 0.9 0.2
v 0.1 0 0.2
v 0.1 0.1 0.2
v 0.1 0.2 0.2
v 0.1 0.8 0.2
v 0.1 0.9 0.2
v 0.1 1 0.2
v 0.2 0.2 0.2
v 0.2 0.3 0.2
v 0.2 0.7 0.2
v 0.2 0.8 0.2
v 0.3 0.1 0.2
v 0.3 0.2 0.2
v 0.3 0.3 0.2
v 0.3 0.6 0.2
v 0.3 0.7 0.2
v 0.3 0.8 0.2
v 0.3 0.9 0.2
v 0.4 0.2 0.2
v 0.4 0.3 0.2
v 0.4 0.4 0.2
v 0.4 0.6 0.2
v 0.4 0.8 0.2
v 0.5 0.4 0.2
v 0.5 0.6 0.2
v -0.1 0 0.5
v 0.1 0 0.5
v -0.2 0 0.4
v -0.1 0 0.4
v 0.1 0 0.4
v 0.2 0 0.4
v -0.2 0 0.3
v -0.1 0 0.3
v 0.1 0 0.3
v 0.2 0 0.3
v -0.1 0 0.2
v 0.1 0 0.2
v -0.3 0.1 0.5
v -0.2 0.1 0.5
v -0.1 0.1 0.5
v 0.1 0.1 0.5
v 0.3 0.1 0.5
v -0.4 0.1 0.4
v -0.3 0.1 0.4
v -0.2 0.1 0.4
v -0.1 0.1 0.4
v 0.1 0.1 0.4
v 0.2 0.1 0.4
v 0.3 0.1 0.4
v 0.4 0.1 0.4
v -0.4 0.1 0.3
v -0.3 0.1 0.3
v -0.2 0.1 0.3
v -0.1 0.1 0.3
v 0.1 0.1 0.3
v 0.2 0.1 0.3
v 0.3 0.1 0.3
v 0.4 0.1 0.3
v -0.3 0.1 0.2
v -0.1 0.1 0.2
v 0.1 0.1 0.2
v 0.3 0.1 0.2
v -0.4 0.2 0.5
v -0.3 0.2 0.5
v 0.3 0.2 0.5
v 0.4 0.2 0.5
v -0.4 0.2 0.4
v -0.3 0.2 0.4
v 0.3 0.2 0.4
v 0.4 0.2 0.4
v -0.4 0.2 0.3
v -0.3 0.2 0.3
v 0.3 0.2 0.3
v 0.4 0.2 0.3
v -0.4 0.2 0.2
v -0.3 0.2 0.2
v 0.3 0.2 0.2
v 0.4 0.2 0.2
v -0.5 0.3 0.4
v -0.4 0.3 0.4
v 0.4 0.3 0.4
v 0.5 0.3 0.4
v -0.5 0.3 0.3
v -0.4 0.3 0.3
v 0.4 0.3 0.3
v 0.5 0.3 0.3
v -0.5 0.4 0.5
v -0.4 0.4 0.5
v 0.4 0.4 0.5
v 0.5 0.4 0.5
v -0.5 0.4 0.4
v -0.4 0.4 0.4
v 0.4 0.4 0.4
v 0.5 0.4 0.4
v -0.5 0.4 0.3
v -0.4 0.4 0.3
v 0.4 0.4 0.3
v 0.5 0.4 0.3
v -0.5 0.4 0.2
v -0.4 0.4 0.2
v 0.4 0.4 0.2
v 0.5 0.4 0.2
v -0.3 0.7 0.5
v -0.2 0.7 0.5
v 0.2 0.7 0.5
v 0.3 0.7 0.5
v -0.3 0.7 0.4
v -0.2 0.7 0.4
v 0.3 0.7 0.4
v -0.3 0.7 0.3
v -0.2 0.7 0.3
v -0.3 0.7 0.2
v -0.2 0.7 0.2
v 0.2 0.7 0.2
v 0.3 0.7 0.2
v -0.2 0.8 0.5
v 0.1 0.8 0.5
v 0.2 0.8 0.5
v -0.2 0.8 0.4
v 0.1 0.8 0.4
v -0.2 0.8 0.3
v 0 0.8 0.3
v 0.1 0.8 0.3
v -0.2 0.8 0.2
v 0 0.8 0.2
v 0.1 0.8 0.2
v 0.2 0.8 0.2
v -0.2 0.2 0.5
v -0.1 0.2 0.5
v 0.1 0.2 0.5
v 0.2 0.2 0.5
v -0.2 0.2 0.4
v -0.1 0.2 0.4
v 0.1 0.2 0.4
v 0.2 0.2 0.4
v -0.2 0.2 0.3
v -0.1 0.2 0.3
v 0.1 0.2 0.3
v -0.2 0.2 0.2
v -0.1 0.2 0.2
v 0.1 0.2 0.2
v 0.2 0.2 0.2
v -0.3 0.3 0.5
v -0.2 0.3 0.5
v 0.2 0.3 0.5
v 0.3 0.3 0.5
v -0.3 0.3 0.4
v -0.2 0.3 0.4
v -0.3 0.3 0.3
v -0.2 0.3 0.3
v -0.3 0.3 0.2
v -0.2 0.3 0.2
v 0.2 0.3 0.2
v 0.3 0.3 0.2
v -0.5 0.6 0.5
v -0.4 0.6 0.5
v 0.4 0.6 0.5
v 0.5 0.6 0.5
v -0.5 0.6 0.4
v -0.4 0.6 0.4
v 0.4 0.6 0.4
v 0.5 0.6 0.4
v -0.5 0.6 0.3
v -0.4 0.6 0.3
v 0.4 0.6 0.3
v 0.5 0.6 0.3
v -0.5 0.6 0.2
v -0.4 0.6 0.2
v 0.4 0.6 0.2
v 0.5 0.6 0.2
v -0.5 0.7 0.4
v -0.4 0.7 0.4
v 0.4 0.7 0.4
v 0.5 0.7 0.4
v -0.5 0.7 0.3
v -0.4 0.7 0.3
v 0.4 0.7 0.3
v 0.5 0.7 0.3
v -0.4 0.8 0.5
v -0.3 0.8 0.5
v 0.3 0.8 0.5
v 0.4 0.8 0.5
v -0.4 0.8 0.4
v -0.3 0.8 0.4
v 0.3 0.8 0.4
v 0.4 0.8 0.4
v -0.4 0.8 0.3
v -0.3 0.8 0.3
v 0.3 0.8 0.3
v 0.4 0.8 0.3
v -0.4 0.8 0.2
v -0.3 0.8 0.2
v 0.3 0.8 0.2
v 0.4 0.8 0.2
v -0.3 0.9 0.5
v -0.1 0.9 0.5
v 0.1 0.9 0.5
v 0.2 0.9 0.5
v 0.3 0.9 0.5
v -0.4 0.9 0.4
v -0.3 0.9 0.4
v -0.2 0.9 0.4
v -0.1 0.9 0.4
v 0.1 0.9 0.4
v 0.2 0.9 0.4
v 0.3 0.9 0.4
v 0.4 0.9 0.4
v -0.4 0.9 0.3
v -0.3 0.9 0.3
v -0.2 0.9 0.3
v -0.1 0.9 0.3
v 0.1 0.9 0.3
v 0.2 0.9 0.3
v 0.3 0.9 0.3
v 0.4 0.9 0.3
v -0.3 0.9 0.2
v -0.1 0.9 0.2
v 0.1 0.9 0.2
v 0.3 0.9 0.2
v -0.1 1 0.5
v 0.1 1 0.5
v -0.2 1 0.4
v -0.1 1 0.4
v 0.1 1 0.4
v 0.2 1 0.4
v -0.2 1 0.3
v -0.1 1 0.3
v 0.1 1 0.3
v 0.2 1 0.3
v -0.1 1 0.2
v 0.1 1 0.2

# faces
f 4/1/1 2/1/1 1/1/1
f 5/1/1 2/1/1 4/1/1
f 7/1/1 4/1/1 3/1/1
f 7/1/1 6/1/1 5/1/1
f 7/1/1 5/1/1 4/1/1
f 8/1/1 6/1/1 7/1/1
f 9/1/1 7/1/1 3/1/1
f 10/1/1 7/1/1 9/1/1
f 11/2/1 8/2/1 7/2/1
f 11/1/1 7/1/1 10/1/1
f 12/2/1 8/2/1 11/2/1
f 13/1/1 11/1/1 10/1/1
f 14/1/1 11/1/1 13/1/1
f 18/1/1 16/1/1 15/1/1
f 19/1/1 16/1/1 18/1/1
f 21/1/1 18/1/1 17/1/1
f 21/1/1 20/1/1 19/1/1
f 21/1/1 19/1/1 18/1/1
f 22/1/1 20/1/1 21/1/1
f 23/1/1 20/1/1 22/1/1
f 24/1/1 20/1/1 23/1/1
f 25/2/1 22/2/1 21/2/1
f 26/2/1 22/2/1 25/2/1
f 27/2/1 24/2/1 23/2/1
f 28/2/1 24/2/1 27/2/1
f 33/1/1 30/1/1 29/1/1
f 34/1/1 30/1/1 33/1/1
f 35/1/1 32/1/1 31/1/1
f 36/2/1 34/2/1 33/2/1
f 37/1/1 35/1/1 34/1/1
f 37/2/1 34/2/1 36/2/1
f 38/1/1 32/1/1 35/1/1
f 38/1/1 35/1/1 37/1/1
f 39/1/1 32/1/1 38/1/1
f 40/1/1 38/1/1 37/1/1
f 41/1/1 38/1/1 40/1/1
f 46/1/1 43/1/1 42/1/1
f 47/1/1 43/1/1 46/1/1
f 48/1/1 45/1/1 44/1/1
f 49/1/1 45/1/1 48/1/1
f 54/2/1 51/2/1 50/2/1
f 55/2/1 51/2/1 54/2/1
f 56/1/1 53/1/1 52/1/1
f 57/1/1 53/1/1 56/1/1
f 60/1/1 59/1/1 58/1/1
f 61/1/1 59/1/1 60/1/1
f 64/1/1 63/1/1 62/1/1
f 65/1/1 63/1/1 64/1/1
f 70/1/1 67/1/1 66/1/1
f 71/1/1 67/1/1 70/1/1
f 72/1/1 69/1/1 68/1/1
f 73/1/1 69/1/1 72/1/1
f 78/2/1 75/2/1 74/2/1
f 79/2/1 75/2/1 78/2/1
f 80/1/1 77/1/1 76/1/1
f 81/1/1 77/1/1 80/1/1
f 85/1/1 83/1/1 82/1/1
f 85/1/1 84/1/1 83/1/1
f 86/1/1 84/1/1 85/1/1
f 89/1/1 88/1/1 87/1/1
f 90/1/1 88/1/1 89/1/1
f 93/1/1 92/1/1 91/1/1
f 94/1/1 92/1/1 93/1/1
f 95/1/1 93/1/1 91/1/1
f 96/2/1 94/2/1 93/2/1
f 96/1/1 93/1/1 95/1/1
f 97/2/1 94/2/1 96/2/1
f 98/2/2 99/2/2 102/2/2
f 99/1/2 100/1/2 103/1/2
f 102/2/2 99/2/2 103/2/2
f 100/2/2 101/2/2 104/2/2
f 103/1/2 100/1/2 104/1/2
f 104/2/2 101/2/2 105/2/2
f 102/1/2 103/1/2 106/1/2
f 103/1/2 104/1/2 106/1/2
f 104/1/2 105/1/2 106/1/2
f 106/1/2 105/1/2 107/1/2
f 107/1/2 105/1/2 108/1/2
f 108/1/2 105/1/2 109/1/2
f 110/1/2 111/1/2 114/1/2
f 111/2/2 112/2/2 115/2/2
f 114/1/2 111/1/2 115/1/2
f 112/1/2 113/1/2 116/1/2
f 115/2/2 112/2/2 116/2/2
f 116/1/2 113/1/2 117/1/2
f 118/2/2 119/2/2 122/2/2
f 119/1/2 120/1/2 123/1/2
f 122/2/2 119/2/2 123/2/2
f 120/2/2 121/2/2 124/2/2
f 123/1/2 120/1/2 124/1/2
f 124/2/2 121/2/2 125/2/2
f 126/1/2 127/1/2 130/1/2
f 130/1/2 127/1/2 131/1/2
f 128/1/2 129/1/2 132/1/2
f 132/1/2 129/1/2 133/1/2
f 134/2/2 135/2/2 138/2/2
f 138/2/2 135/2/2 139/2/2
f 136/1/2 137/1/2 140/1/2
f 140/1/2 137/1/2 141/1/2
f 142/1/2 143/1/2 144/1/2
f 144/1/2 143/1/2 145/1/2
f 146/1/2 147/1/2 148/1/2
f 148/1/2 147/1/2 149/1/2
f 150/2/2 151/2/2 154/2/2
f 154/2/2 151/2/2 155/2/2
f 152/1/2 153/1/2 156/1/2
f 156/1/2 153/1/2 157/1/2
f 158/2/2 159/2/2 162/2/2
f 162/2/2 159/2/2 163/2/2
f 160/1/2 161/1/2 164/1/2
f 164/1/2 161/1/2 165/1/2
f 166/2/2 167/2/2 169/2/2
f 169/2/2 167/2/2 170/2/2
f 168/1/2 169/1/2 172/1/2
f 169/1/2 170/1/2 172/1/2
f 170/2/2 171/2/2 173/2/2
f 172/1/2 170/1/2 173/1/2
f 173/2/2 171/2/2 174/2/2
f 168/1/2 172/1/2 175/1/2
f 175/1/2 172/1/2 176/1/2
f 173/1/2 174/1/2 177/1/2
f 177/1/2 174/1/2 178/1/2
f 179/1/2 180/1/2 183/1/2
f 181/2/2 182/2/2 184/2/2
f 179/1/2 183/1/2 185/1/2
f 183/2/2 184/2/2 186/2/2
f 185/1/2 183/1/2 186/1/2
f 184/2/2 182/2/2 187/2/2
f 186/2/2 184/2/2 187/2/2
f 187/2/2 182/2/2 188/2/2
f 186/1/2 187/1/2 189/1/2
f 189/1/2 187/1/2 190/1/2
f 191/2/2 192/2/2 194/2/2
f 194/2/2 192/2/2 195/2/2
f 193/1/2 194/1/2 197/1/2
f 195/1/2 196/1/2 197/1/2
f 194/1/2 195/1/2 197/1/2
f 197/1/2 196/1/2 198/1/2
f 197/2/2 198/2/2 199/2/2
f 198/1/2 196/1/2 200/1/2
f 199/2/2 198/2/2 200/2/2
f 200/1/2 196/1/2 201/1/2
f 201/1/2 196/1/2 202/1/2
f 200/2/2 201/2/2 203/2/2
f 203/2/2 201/2/2 204/2/2
f 209/1/3 206/1/3 205/1/3
f 210/1/3 206/1/3 209/1/3
f 214/1/3 208/1/3 207/1/3
f 215/2/3 209/2/3 208/2/3
f 215/1/3 208/1/3 214/1/3
f 216/1/3 210/1/3 209/1/3
f 216/2/3 209/2/3 215/2/3
f 216/1/3 211/1/3 210/1/3
f 217/2/3 212/2/3 211/2/3
f 217/1/3 211/1/3 216/1/3
f 218/2/3 212/2/3 217/2/3
f 220/1/3 214/1/3 213/1/3
f 220/1/3 215/1/3 214/1/3
f 221/1/3 215/1/3 220/1/3
f 222/1/3 215/1/3 221/1/3
f 223/2/3 219/2/3 218/2/3
f 223/2/3 218/2/3 217/2/3
f 224/2/3 219/2/3 223/2/3
f 226/2/3 221/2/3 220/2/3
f 227/2/3 221/2/3 226/2/3
f 228/2/3 219/2/3 224/2/3
f 230/1/3 227/1/3 226/1/3
f 230/1/3 226/1/3 225/1/3
f 231/1/3 227/1/3 230/1/3
f 232/1/3 227/1/3 231/1/3
f 233/2/3 229/2/3 228/2/3
f 233/2/3 228/2/3 224/2/3
f 234/2/3 229/2/3 233/2/3
f 235/2/3 229/2/3 234/2/3
f 236/2/3 232/2/3 231/2/3
f 239/1/3 234/1/3 233/1/3
f 240/1/3 234/1/3 239/1/3
f 241/2/3 236/2/3 231/2/3
f 242/1/3 237/1/3 236/1/3
f 242/2/3 236/2/3 241/2/3
f 243/1/3 237/1/3 242/1/3
f 244/1/3 239/1/3 238/1/3
f 245/2/3 240/2/3 239/2/3
f 245/1/3 239/1/3 244/1/3
f 246/2/3 240/2/3 245/2/3
f 247/1/3 243/1/3 242/1/3
f 247/1/3 244/1/3 243/1/3
f 247/1/3 245/1/3 244/1/3
f 248/1/3 245/1/3 247/1/3
f 249/1/3 245/1/3 248/1/3
f 250/1/3 245/1/3 249/1/3
f 251/1/3 245/1/3 250/1/3
f 252/1/3 249/1/3 248/1/3
f 253/2/3 250/2/3 249/2/3
f 253/1/3 249/1/3 252/1/3
f 254/2/3 250/2/3 253/2/3
f 261/1/3 256/1/3 255/1/3
f 262/1/3 256/1/3 261/1/3
f 263/1/3 258/1/3 257/1/3
f 264/1/3 258/1/3 263/1/3
f 267/1/3 260/1/3 259/1/3
f 268/1/3 260/1/3 267/1/3
f 269/1/3 266/1/3 265/1/3
f 270/1/3 266/1/3 269/1/3
f 275/1/3 272/1/3 271/1/3
f 276/1/3 272/1/3 275/1/3
f 277/1/3 274/1/3 273/1/3
f 278/1/3 274/1/3 277/1/3
f 283/1/3 280/1/3 279/1/3
f 284/1/3 280/1/3 283/1/3
f 285/1/3 282/1/3 281/1/3
f 286/1/3 282/1/3 285/1/3
f 291/2/3 288/2/3 287/2/3
f 292/2/3 288/2/3 291/2/3
f 297/1/3 290/1/3 289/1/3
f 298/1/3 290/1/3 297/1/3
f 299/2/3 294/2/3 293/2/3
f 300/2/3 294/2/3 299/2/3
f 301/2/3 296/2/3 295/2/3
f 302/2/3 296/2/3 301/2/3
f 303/1/4 304/1/4 309/1/4
f 309/1/4 304/1/4 310/1/4
f 305/1/4 306/1/4 311/1/4
f 311/1/4 306/1/4 312/1/4
f 307/1/4 308/1/4 315/1/4
f 315/1/4 308/1/4 316/1/4
f 313/1/4 314/1/4 317/1/4
f 317/1/4 314/1/4 318/1/4
f 319/1/4 320/1/4 323/1/4
f 323/1/4 320/1/4 324/1/4
f 321/1/4 322/1/4 325/1/4
f 325/1/4 322/1/4 326/1/4
f 327/1/4 328/1/4 331/1/4
f 331/1/4 328/1/4 332/1/4
f 329/1/4 330/1/4 333/1/4
f 333/1/4 330/1/4 334/1/4
f 335/2/4 336/2/4 339/2/4
f 339/2/4 336/2/4 340/2/4
f 337/1/4 338/1/4 345/1/4
f 345/1/4 338/1/4 346/1/4
f 341/2/4 342/2/4 347/2/4
f 347/2/4 342/2/4 348/2/4
f 343/2/4 344/2/4 349/2/4
f 349/2/4 344/2/4 350/2/4
f 351/1/4 352/1/4 356/1/4
f 352/2/4 353/2/4 357/2/4
f 356/1/4 352/1/4 357/1/4
f 357/2/4 353/2/4 358/2/4
f 354/1/4 355/1/4 361/1/4
f 355/2/4 356/2/4 362/2/4
f 361/1/4 355/1/4 362/1/4
f 358/1/4 359/1/4 363/1/4
f 362/2/4 356/2/4 363/2/4
f 356/1/4 357/1/4 363/1/4
f 357/1/4 358/1/4 363/1/4
f 363/1/4 359/1/4 364/1/4
f 364/1/4 359/1/4 365/1/4
f 361/1/4 362/1/4 367/1/4
f 360/1/4 361/1/4 367/1/4
f 367/1/4 362/1/4 368/1/4
f 364/2/4 365/2/4 369/2/4
f 365/1/4 366/1/4 370/1/4
f 369/2/4 365/2/4 370/2/4
f 360/1/4 367/1/4 372/1/4
f 372/1/4 367/1/4 373/1/4
f 370/1/4 366/1/4 374/1/4
f 370/1/4 374/1/4 376/1/4
f 374/1/4 375/1/4 376/1/4
f 376/1/4 375/1/4 377/1/4
f 371/1/4 372/1/4 378/1/4
f 372/2/4 373/2/4 379/2/4
f 378/1/4 372/1/4 379/1/4
f 379/2/4 373/2/4 380/2/4
f 376/2/4 377/2/4 381/2/4
f 377/1/4 375/1/4 382/1/4
f 381/2/4 377/2/4 382/2/4
f 382/1/4 375/1/4 383/1/4
f 379/1/4 380/1/4 384/1/4
f 381/1/4 382/1/4 387/1/4
f 384/1/4 385/1/4 388/1/4
f 379/1/4 384/1/4 388/1/4
f 388/1/4 385/1/4 389/1/4
f 389/1/4 385/1/4 390/1/4
f 386/1/4 387/1/4 392/1/4
f 387/1/4 382/1/4 393/1/4
f 392/1/4 387/1/4 393/1/4
f 393/1/4 382/1/4 394/1/4
f 389/2/4 390/2/4 395/2/4
f 390/1/4 391/1/4 396/1/4
f 395/2/4 390/2/4 396/2/4
f 396/1/4 391/1/4 397/1/4
f 391/2/4 392/2/4 398/2/4
f 397/1/4 391/1/4 398/1/4
f 392/2/4 393/2/4 398/2/4
f 398/2/4 393/2/4 399/2/4
f 397/1/4 398/1/4 400/1/4
f 400/1/4 398/1/4 401/1/4
f 405/1/5 403/1/5 402/1/5
f 406/1/5 403/1/5 405/1/5
f 408/1/5 405/1/5 404/1/5
f 408/1/5 407/1/5 406/1/5
f 408/1/5 406/1/5 405/1/5
f 409/1/5 407/1/5 408/1/5
f 410/1/5 407/1/5 409/1/5
f 411/1/5 407/1/5 410/1/5
f 412/1/5 410/1/5 409/1/5
f 413/1/5 410/1/5 412/1/5
f 420/1/5 415/1/5 414/1/5
f 421/2/5 416/2/5 415/2/5
f 421/1/5 415/1/5 420/1/5
f 422/2/5 416/2/5 421/2/5
f 423/2/5 418/2/5 417/2/5
f 424/2/5 418/2/5 423/2/5
f 425/2/5 418/2/5 424/2/5
f 427/1/5 420/1/5 419/1/5
f 427/1/5 421/1/5 420/1/5
f 428/1/5 421/1/5 427/1/5
f 429/1/5 421/1/5 428/1/5
f 432/2/5 426/2/5 425/2/5
f 432/2/5 425/2/5 424/2/5
f 433/2/5 426/2/5 432/2/5
f 434/2/5 426/2/5 433/2/5
f 435/1/5 430/1/5 429/1/5
f 435/1/5 429/1/5 428/1/5
f 436/1/5 430/1/5 435/1/5
f 437/1/5 433/1/5 432/1/5
f 437/1/5 432/1/5 431/1/5
f 438/1/5 433/1/5 437/1/5
f 443/1/5 440/1/5 439/1/5
f 444/1/5 440/1/5 443/1/5
f 445/1/5 442/1/5 441/1/5
f 446/1/5 442/1/5 445/1/5
f 451/1/5 448/1/5 447/1/5
f 452/1/5 448/1/5 451/1/5
f 453/2/5 450/2/5 449/2/5
f 454/2/5 450/2/5 453/2/5
f 459/1/5 456/1/5 455/1/5
f 460/1/5 456/1/5 459/1/5
f 461/2/5 458/2/5 457/2/5
f 462/2/5 458/2/5 461/2/5
f 467/1/5 464/1/5 463/1/5
f 468/1/5 464/1/5 467/1/5
f 469/1/5 466/1/5 465/1/5
f 470/1/5 466/1/5 469/1/5
f 475/1/5 472/1/5 471/1/5
f 476/1/5 472/1/5 475/1/5
f 477/1/5 474/1/5 473/1/5
f 478/1/5 474/1/5 477/1/5
f 483/2/5 480/2/5 479/2/5
f 484/2/5 480/2/5 483/2/5
f 485/1/5 482/1/5 481/1/5
f 486/1/5 484/1/5 483/1/5
f 487/1/5 484/1/5 486/1/5
f 488/2/5 487/2/5 486/2/5
f 489/2/5 487/2/5 488/2/5
f 490/1/5 485/1/5 481/1/5
f 491/1/5 485/1/5 490/1/5
f 495/2/5 493/2/5 492/2/5
f 496/1/5 494/1/5 493/1/5
f 496/2/5 493/2/5 495/2/5
f 497/1/5 496/1/5 495/1/5
f 498/1/5 496/1/5 497/1/5
f 499/1/5 494/1/5 496/1/5
f 499/1/5 496/1/5 498/1/5
f 500/1/5 498/1/5 497/1/5
f 501/2/5 499/2/5 498/2/5
f 501/1/5 498/1/5 500/1/5
f 502/1/5 494/1/5 499/1/5
f 502/2/5 499/2/5 501/2/5
f 503/1/5 494/1/5 502/1/5
f 504/2/6 505/2/6 508/2/6
f 505/1/6 506/1/6 509/1/6
f 508/2/6 505/2/6 509/2/6
f 506/2/6 507/2/6 510/2/6
f 509/1/6 506/1/6 510/1/6
f 510/2/6 507/2/6 511/2/6
f 508/1/6 509/1/6 512/1/6
f 509/1/6 510/1/6 512/1/6
f 510/1/6 511/1/6 512/1/6
f 512/1/6 511/1/6 513/1/6
f 513/1/6 511/1/6 514/1/6
f 512/1/6 513/1/6 515/1/6
f 513/2/6 514/2/6 516/2/6
f 515/1/6 513/1/6 516/1/6
f 514/1/6 511/1/6 517/1/6
f 516/2/6 514/2/6 517/2/6
f 517/1/6 511/1/6 518/1/6
f 519/1/6 520/1/6 523/1/6
f 523/1/6 520/1/6 524/1/6
f 523/2/6 524/2/6 525/2/6
f 525/2/6 524/2/6 526/2/6
f 525/1/6 526/1/6 527/1/6
f 527/1/6 526/1/6 528/1/6
f 521/1/6 522/1/6 529/1/6
f 529/1/6 522/1/6 530/1/6
f 531/1/6 532/1/6 535/1/6
f 535/1/6 532/1/6 536/1/6
f 533/2/6 534/2/6 537/2/6
f 537/2/6 534/2/6 538/2/6
f 539/2/6 540/2/6 543/2/6
f 543/2/6 540/2/6 544/2/6
f 541/1/6 542/1/6 545/1/6
f 545/1/6 542/1/6 546/1/6
f 547/1/6 548/1/6 551/1/6
f 551/1/6 548/1/6 552/1/6
f 549/2/6 550/2/6 553/2/6
f 553/2/6 550/2/6 554/2/6
f 555/2/6 556/2/6 559/2/6
f 559/2/6 556/2/6 560/2/6
f 557/1/6 558/1/6 561/1/6
f 561/1/6 558/1/6 562/1/6
f 563/1/6 564/1/6 567/1/6
f 567/1/6 564/1/6 568/1/6
f 565/2/6 566/2/6 569/2/6
f 569/2/6 566/2/6 570/2/6
f 571/2/6 572/2/6 577/2/6
f 577/2/6 572/2/6 578/2/6
f 578/2/6 572/2/6 579/2/6
f 573/1/6 574/1/6 580/1/6
f 574/2/6 575/2/6 581/2/6
f 580/1/6 574/1/6 581/1/6
f 581/2/6 575/2/6 582/2/6
f 576/1/6 577/1/6 584/1/6
f 577/1/6 578/1/6 584/1/6
f 584/1/6 578/1/6 585/1/6
f 585/1/6 578/1/6 586/1/6
f 582/1/6 583/1/6 589/1/6
f 581/1/6 582/1/6 589/1/6
f 589/1/6 583/1/6 590/1/6
f 590/1/6 583/1/6 591/1/6
f 586/1/6 587/1/6 592/1/6
f 585/1/6 586/1/6 592/1/6
f 592/1/6 587/1/6 593/1/6
f 589/1/6 590/1/6 594/1/6
f 588/1/6 589/1/6 594/1/6
f 594/1/6 590/1/6 595/1/6
f 596/2/6 597/2/6 599/2/6
f 599/2/6 597/2/6 600/2/6
f 598/1/6 599/1/6 602/1/6
f 600/1/6 601/1/6 602/1/6
f 599/1/6 600/1/6 602/1/6
f 602/1/6 601/1/6 603/1/6
f 603/1/6 601/1/6 604/1/6
f 604/1/6 601/1/6 605/1/6
f 603/1/6 604/1/6 606/1/6
f 606/1/6 604/1/6 607/1/6
