# MagicaVoxel @ Ephtracy

# group
o 

# material
mtllib boula_du_fuegu.mtl
usemtl palette

# normals
vn -1 0 0
vn 1 0 0
vn 0 0 1
vn 0 0 -1
vn 0 -1 0
vn 0 1 0

# texcoords
vt 0.970703 0.5
vt 0.978516 0.5
vt 0.982422 0.5
vt 0.986328 0.5
vt 0.990234 0.5

# verts
v -0.3 0.3 0
v -0.3 0.3 -0.2
v -0.3 0.4 0.1
v -0.3 0.4 0
v -0.3 0.4 -0.2
v -0.3 0.4 -0.3
v -0.3 0.6 0.1
v -0.3 0.6 0
v -0.3 0.6 -0.2
v -0.3 0.6 -0.3
v -0.3 0.7 0
v -0.3 0.7 -0.2
v -0.2 0.2 0
v -0.2 0.2 -0.2
v -0.2 0.3 0.5
v -0.2 0.3 0.4
v -0.2 0.3 0
v -0.2 0.3 -0.2
v -0.2 0.3 -0.4
v -0.2 0.4 0.5
v -0.2 0.4 0.4
v -0.2 0.4 0.2
v -0.2 0.4 0.1
v -0.2 0.4 0
v -0.2 0.4 -0.2
v -0.2 0.4 -0.3
v -0.2 0.6 0.3
v -0.2 0.6 0.2
v -0.2 0.6 0.1
v -0.2 0.6 0
v -0.2 0.6 -0.2
v -0.2 0.6 -0.3
v -0.2 0.7 0.3
v -0.2 0.7 0.2
v -0.2 0.7 0
v -0.2 0.7 -0.1
v -0.2 0.7 -0.2
v -0.2 0.7 -0.4
v -0.2 0.8 0
v -0.2 0.8 -0.1
v -0.2 0.8 -0.2
v -0.1 0.2 0.1
v -0.1 0.2 0
v -0.1 0.2 -0.2
v -0.1 0.2 -0.3
v -0.1 0.3 0.1
v -0.1 0.3 0
v -0.1 0.3 -0.2
v -0.1 0.3 -0.3
v -0.1 0.4 -0.4
v -0.1 0.4 -0.5
v -0.1 0.6 -0.4
v -0.1 0.6 -0.5
v -0.1 0.7 0.1
v -0.1 0.7 0
v -0.1 0.7 -0.2
v -0.1 0.7 -0.3
v -0.1 0.8 0.1
v -0.1 0.8 0
v -0.1 0.8 -0.2
v -0.1 0.8 -0.3
v 0 0.5 0.4
v 0 0.5 0.3
v 0 0.5 0.2
v 0 0.6 0.4
v 0 0.6 0.3
v 0 0.6 0.2
v 0.1 0.3 0.3
v 0.1 0.3 0.2
v 0.1 0.4 0.3
v 0.1 0.4 0.2
v -0.1 0.3 0.5
v -0.1 0.3 0.4
v -0.1 0.3 0.2
v -0.1 0.4 0.5
v -0.1 0.4 0.4
v -0.1 0.4 0.2
v -0.1 0.6 0.3
v -0.1 0.6 0.2
v -0.1 0.7 0.3
v -0.1 0.7 0.2
v 0.1 0.2 0.1
v 0.1 0.2 0
v 0.1 0.2 -0.2
v 0.1 0.2 -0.3
v 0.1 0.3 0.1
v 0.1 0.3 0
v 0.1 0.3 -0.2
v 0.1 0.3 -0.3
v 0.1 0.4 -0.4
v 0.1 0.4 -0.5
v 0.1 0.5 0.4
v 0.1 0.5 0.3
v 0.1 0.5 0.2
v 0.1 0.6 0.4
v 0.1 0.6 0.3
v 0.1 0.6 0.2
v 0.1 0.6 -0.4
v 0.1 0.6 -0.5
v 0.1 0.7 0.1
v 0.1 0.7 0
v 0.1 0.7 -0.1
v 0.1 0.7 -0.2
v 0.1 0.7 -0.3
v 0.1 0.8 0.1
v 0.1 0.8 0
v 0.1 0.8 -0.1
v 0.1 0.8 -0.2
v 0.1 0.8 -0.3
v 0.2 0.2 0
v 0.2 0.2 -0.2
v 0.2 0.3 0.3
v 0.2 0.3 0.2
v 0.2 0.3 0
v 0.2 0.3 -0.1
v 0.2 0.3 -0.2
v 0.2 0.3 -0.4
v 0.2 0.4 0.3
v 0.2 0.4 0.2
v 0.2 0.4 0.1
v 0.2 0.4 0
v 0.2 0.4 -0.2
v 0.2 0.4 -0.3
v 0.2 0.6 0.1
v 0.2 0.6 0
v 0.2 0.6 -0.2
v 0.2 0.6 -0.3
v 0.2 0.7 0.2
v 0.2 0.7 0.1
v 0.2 0.7 0
v 0.2 0.7 -0.1
v 0.2 0.7 -0.2
v 0.2 0.7 -0.4
v 0.2 0.8 -0.1
v 0.2 0.8 -0.2
v 0.3 0.3 0
v 0.3 0.3 -0.1
v 0.3 0.3 -0.2
v 0.3 0.4 0.1
v 0.3 0.4 0
v 0.3 0.4 -0.1
v 0.3 0.4 -0.2
v 0.3 0.4 -0.3
v 0.3 0.6 0.1
v 0.3 0.6 0
v 0.3 0.6 -0.1
v 0.3 0.6 -0.2
v 0.3 0.6 -0.3
v 0.3 0.7 0
v 0.3 0.7 -0.1
v 0.3 0.7 -0.2
v -0.2 0.3 0.5
v -0.2 0.4 0.5
v -0.1 0.3 0.5
v -0.1 0.4 0.5
v 0 0.5 0.4
v 0 0.6 0.4
v 0.1 0.5 0.4
v 0.1 0.6 0.4
v -0.2 0.6 0.3
v -0.2 0.7 0.3
v -0.1 0.6 0.3
v -0.1 0.7 0.3
v 0.1 0.3 0.3
v 0.1 0.4 0.3
v 0.2 0.3 0.3
v 0.2 0.4 0.3
v -0.2 0.4 0.2
v -0.2 0.6 0.2
v -0.1 0.3 0.2
v -0.1 0.4 0.2
v -0.1 0.6 0.2
v -0.1 0.7 0.2
v 0 0.5 0.2
v 0 0.6 0.2
v 0.1 0.3 0.2
v 0.1 0.4 0.2
v 0.1 0.5 0.2
v 0.1 0.6 0.2
v 0.1 0.7 0.2
v 0.2 0.4 0.2
v 0.2 0.7 0.2
v -0.3 0.4 0.1
v -0.3 0.6 0.1
v -0.2 0.4 0.1
v -0.2 0.6 0.1
v -0.1 0.2 0.1
v -0.1 0.3 0.1
v -0.1 0.7 0.1
v -0.1 0.8 0.1
v 0.1 0.2 0.1
v 0.1 0.3 0.1
v 0.1 0.7 0.1
v 0.1 0.8 0.1
v 0.2 0.4 0.1
v 0.2 0.6 0.1
v 0.3 0.4 0.1
v 0.3 0.6 0.1
v -0.3 0.3 0
v -0.3 0.4 0
v -0.3 0.6 0
v -0.3 0.7 0
v -0.2 0.2 0
v -0.2 0.3 0
v -0.2 0.4 0
v -0.2 0.6 0
v -0.2 0.7 0
v -0.2 0.8 0
v -0.1 0.2 0
v -0.1 0.3 0
v -0.1 0.7 0
v -0.1 0.8 0
v 0.1 0.2 0
v 0.1 0.3 0
v 0.2 0.2 0
v 0.2 0.3 0
v 0.2 0.4 0
v 0.2 0.6 0
v 0.2 0.7 0
v 0.3 0.3 0
v 0.3 0.4 0
v 0.3 0.6 0
v 0.3 0.7 0
v 0.1 0.7 -0.1
v 0.1 0.8 -0.1
v 0.2 0.7 -0.1
v 0.2 0.8 -0.1
v -0.3 0.3 -0.2
v -0.3 0.4 -0.2
v -0.3 0.6 -0.2
v -0.3 0.7 -0.2
v -0.2 0.2 -0.2
v -0.2 0.3 -0.2
v -0.2 0.4 -0.2
v -0.2 0.6 -0.2
v -0.2 0.7 -0.2
v -0.2 0.8 -0.2
v -0.1 0.2 -0.2
v -0.1 0.3 -0.2
v -0.1 0.7 -0.2
v -0.1 0.8 -0.2
v 0.1 0.2 -0.2
v 0.1 0.3 -0.2
v 0.1 0.7 -0.2
v 0.1 0.8 -0.2
v 0.2 0.2 -0.2
v 0.2 0.3 -0.2
v 0.2 0.4 -0.2
v 0.2 0.6 -0.2
v 0.2 0.7 -0.2
v 0.2 0.8 -0.2
v 0.3 0.3 -0.2
v 0.3 0.4 -0.2
v 0.3 0.6 -0.2
v 0.3 0.7 -0.2
v -0.3 0.4 -0.3
v -0.3 0.6 -0.3
v -0.2 0.4 -0.3
v -0.2 0.6 -0.3
v -0.1 0.2 -0.3
v -0.1 0.3 -0.3
v -0.1 0.7 -0.3
v -0.1 0.8 -0.3
v 0.1 0.2 -0.3
v 0.1 0.3 -0.3
v 0.1 0.7 -0.3
v 0.1 0.8 -0.3
v 0.2 0.4 -0.3
v 0.2 0.6 -0.3
v 0.3 0.4 -0.3
v 0.3 0.6 -0.3
v -0.2 0.3 -0.4
v -0.2 0.7 -0.4
v -0.1 0.4 -0.4
v -0.1 0.6 -0.4
v 0.1 0.4 -0.4
v 0.1 0.6 -0.4
v 0.2 0.3 -0.4
v 0.2 0.7 -0.4
v -0.1 0.4 -0.5
v -0.1 0.6 -0.5
v 0.1 0.4 -0.5
v 0.1 0.6 -0.5
v -0.1 0.2 0.1
v 0.1 0.2 0.1
v -0.2 0.2 0
v -0.1 0.2 0
v 0.1 0.2 0
v 0.2 0.2 0
v -0.2 0.2 -0.2
v -0.1 0.2 -0.2
v 0.1 0.2 -0.2
v 0.2 0.2 -0.2
v -0.1 0.2 -0.3
v 0.1 0.2 -0.3
v -0.2 0.3 0.5
v -0.1 0.3 0.5
v -0.2 0.3 0.4
v -0.1 0.3 0.4
v 0.1 0.3 0.3
v 0.2 0.3 0.3
v -0.1 0.3 0.2
v 0.1 0.3 0.2
v 0.2 0.3 0.2
v -0.1 0.3 0.1
v 0.1 0.3 0.1
v -0.3 0.3 0
v -0.2 0.3 0
v -0.1 0.3 0
v 0.1 0.3 0
v 0.2 0.3 0
v 0.3 0.3 0
v 0.2 0.3 -0.1
v 0.3 0.3 -0.1
v -0.3 0.3 -0.2
v -0.2 0.3 -0.2
v -0.1 0.3 -0.2
v 0.1 0.3 -0.2
v 0.2 0.3 -0.2
v 0.3 0.3 -0.2
v -0.1 0.3 -0.3
v 0.1 0.3 -0.3
v -0.2 0.3 -0.4
v 0.2 0.3 -0.4
v -0.3 0.4 0.1
v -0.2 0.4 0.1
v 0.2 0.4 0.1
v 0.3 0.4 0.1
v -0.3 0.4 0
v -0.2 0.4 0
v 0.2 0.4 0
v 0.3 0.4 0
v -0.3 0.4 -0.2
v -0.2 0.4 -0.2
v 0.2 0.4 -0.2
v 0.3 0.4 -0.2
v -0.3 0.4 -0.3
v -0.2 0.4 -0.3
v 0.2 0.4 -0.3
v 0.3 0.4 -0.3
v -0.1 0.4 -0.4
v 0.1 0.4 -0.4
v -0.1 0.4 -0.5
v 0.1 0.4 -0.5
v 0 0.5 0.4
v 0.1 0.5 0.4
v 0 0.5 0.3
v 0.1 0.5 0.3
v 0 0.5 0.2
v 0.1 0.5 0.2
v -0.2 0.6 0.3
v -0.1 0.6 0.3
v -0.2 0.6 0.2
v -0.1 0.6 0.2
v -0.2 0.4 0.5
v -0.1 0.4 0.5
v -0.2 0.4 0.4
v -0.1 0.4 0.4
v 0.1 0.4 0.3
v 0.2 0.4 0.3
v -0.2 0.4 0.2
v -0.1 0.4 0.2
v 0.1 0.4 0.2
v 0.2 0.4 0.2
v 0 0.6 0.4
v 0.1 0.6 0.4
v 0 0.6 0.3
v 0.1 0.6 0.3
v 0 0.6 0.2
v 0.1 0.6 0.2
v -0.3 0.6 0.1
v -0.2 0.6 0.1
v 0.2 0.6 0.1
v 0.3 0.6 0.1
v -0.3 0.6 0
v -0.2 0.6 0
v 0.2 0.6 0
v 0.3 0.6 0
v -0.3 0.6 -0.2
v -0.2 0.6 -0.2
v 0.2 0.6 -0.2
v 0.3 0.6 -0.2
v -0.3 0.6 -0.3
v -0.2 0.6 -0.3
v 0.2 0.6 -0.3
v 0.3 0.6 -0.3
v -0.1 0.6 -0.4
v 0.1 0.6 -0.4
v -0.1 0.6 -0.5
v 0.1 0.6 -0.5
v -0.2 0.7 0.3
v -0.1 0.7 0.3
v -0.2 0.7 0.2
v -0.1 0.7 0.2
v 0.1 0.7 0.2
v 0.2 0.7 0.2
v -0.1 0.7 0.1
v 0.1 0.7 0.1
v 0.2 0.7 0.1
v -0.3 0.7 0
v -0.2 0.7 0
v -0.1 0.7 0
v 0.1 0.7 0
v 0.2 0.7 0
v 0.3 0.7 0
v -0.2 0.7 -0.1
v 0.1 0.7 -0.1
v 0.2 0.7 -0.1
v 0.3 0.7 -0.1
v -0.3 0.7 -0.2
v -0.2 0.7 -0.2
v -0.1 0.7 -0.2
v 0.1 0.7 -0.2
v 0.2 0.7 -0.2
v 0.3 0.7 -0.2
v -0.1 0.7 -0.3
v 0.1 0.7 -0.3
v -0.2 0.7 -0.4
v 0.2 0.7 -0.4
v -0.1 0.8 0.1
v 0.1 0.8 0.1
v -0.2 0.8 0
v -0.1 0.8 0
v 0.1 0.8 0
v -0.2 0.8 -0.1
v -0.1 0.8 -0.1
v 0.1 0.8 -0.1
v 0.2 0.8 -0.1
v -0.2 0.8 -0.2
v -0.1 0.8 -0.2
v 0.1 0.8 -0.2
v 0.2 0.8 -0.2
v -0.1 0.8 -0.3
v 0.1 0.8 -0.3

# faces
f 4/1/1 2/1/1 1/1/1
f 5/1/1 2/1/1 4/1/1
f 7/1/1 4/1/1 3/1/1
f 7/1/1 6/1/1 5/1/1
f 7/1/1 5/1/1 4/1/1
f 8/1/1 6/1/1 7/1/1
f 9/1/1 6/1/1 8/1/1
f 10/1/1 6/1/1 9/1/1
f 11/1/1 9/1/1 8/1/1
f 12/1/1 9/1/1 11/1/1
f 17/1/1 14/1/1 13/1/1
f 18/1/1 14/1/1 17/1/1
f 20/5/1 16/5/1 15/5/1
f 21/1/1 17/1/1 16/1/1
f 21/5/1 16/5/1 20/5/1
f 22/1/1 17/1/1 21/1/1
f 23/1/1 17/1/1 22/1/1
f 24/1/1 17/1/1 23/1/1
f 25/1/1 19/1/1 18/1/1
f 26/1/1 19/1/1 25/1/1
f 28/1/1 23/1/1 22/1/1
f 29/1/1 23/1/1 28/1/1
f 32/1/1 19/1/1 26/1/1
f 33/5/1 28/5/1 27/5/1
f 34/2/1 30/2/1 29/2/1
f 34/5/1 28/5/1 33/5/1
f 34/2/1 29/2/1 28/2/1
f 35/2/1 30/2/1 34/2/1
f 37/1/1 32/1/1 31/1/1
f 38/1/1 19/1/1 32/1/1
f 38/1/1 32/1/1 37/1/1
f 39/2/1 36/2/1 35/2/1
f 40/3/1 37/3/1 36/3/1
f 40/2/1 36/2/1 39/2/1
f 41/3/1 37/3/1 40/3/1
f 46/1/1 43/1/1 42/1/1
f 47/1/1 43/1/1 46/1/1
f 48/1/1 45/1/1 44/1/1
f 49/1/1 45/1/1 48/1/1
f 52/1/1 51/1/1 50/1/1
f 53/1/1 51/1/1 52/1/1
f 58/2/1 55/2/1 54/2/1
f 59/2/1 55/2/1 58/2/1
f 60/4/1 57/4/1 56/4/1
f 61/4/1 57/4/1 60/4/1
f 65/5/1 63/5/1 62/5/1
f 66/1/1 64/1/1 63/1/1
f 66/5/1 63/5/1 65/5/1
f 67/1/1 64/1/1 66/1/1
f 70/5/1 69/5/1 68/5/1
f 71/5/1 69/5/1 70/5/1
f 72/5/2 73/5/2 75/5/2
f 73/1/2 74/1/2 76/1/2
f 75/5/2 73/5/2 76/5/2
f 76/1/2 74/1/2 77/1/2
f 78/5/2 79/5/2 80/5/2
f 80/5/2 79/5/2 81/5/2
f 82/1/2 83/1/2 86/1/2
f 86/1/2 83/1/2 87/1/2
f 84/1/2 85/1/2 88/1/2
f 88/1/2 85/1/2 89/1/2
f 92/5/2 93/5/2 95/5/2
f 93/1/2 94/1/2 96/1/2
f 95/5/2 93/5/2 96/5/2
f 96/1/2 94/1/2 97/1/2
f 90/1/2 91/1/2 98/1/2
f 98/1/2 91/1/2 99/1/2
f 100/2/2 101/2/2 105/2/2
f 101/3/2 102/3/2 106/3/2
f 105/2/2 101/2/2 106/2/2
f 106/3/2 102/3/2 107/3/2
f 103/4/2 104/4/2 108/4/2
f 108/4/2 104/4/2 109/4/2
f 110/1/2 111/1/2 114/1/2
f 114/1/2 111/1/2 115/1/2
f 115/1/2 111/1/2 116/1/2
f 112/5/2 113/5/2 118/5/2
f 113/1/2 114/1/2 119/1/2
f 118/5/2 113/5/2 119/5/2
f 119/1/2 114/1/2 120/1/2
f 120/1/2 114/1/2 121/1/2
f 116/1/2 117/1/2 122/1/2
f 122/1/2 117/1/2 123/1/2
f 119/1/2 120/1/2 124/1/2
f 123/1/2 117/1/2 127/1/2
f 119/1/2 124/1/2 128/1/2
f 124/2/2 125/2/2 129/2/2
f 128/1/2 124/1/2 129/1/2
f 129/2/2 125/2/2 130/2/2
f 126/1/2 127/1/2 132/1/2
f 127/1/2 117/1/2 133/1/2
f 132/1/2 127/1/2 133/1/2
f 131/4/2 132/4/2 134/4/2
f 134/4/2 132/4/2 135/4/2
f 136/2/2 137/2/2 140/2/2
f 137/3/2 138/3/2 141/3/2
f 140/2/2 137/2/2 141/2/2
f 141/3/2 138/3/2 142/3/2
f 139/1/2 140/1/2 144/1/2
f 140/1/2 141/1/2 144/1/2
f 144/1/2 141/1/2 145/1/2
f 141/2/2 142/2/2 146/2/2
f 145/1/2 141/1/2 146/1/2
f 142/3/2 143/3/2 147/3/2
f 146/2/2 142/2/2 147/2/2
f 147/3/2 143/3/2 148/3/2
f 145/2/2 146/2/2 149/2/2
f 146/4/2 147/4/2 150/4/2
f 149/2/2 146/2/2 150/2/2
f 150/4/2 147/4/2 151/4/2
f 154/5/3 153/5/3 152/5/3
f 155/5/3 153/5/3 154/5/3
f 158/5/3 157/5/3 156/5/3
f 159/5/3 157/5/3 158/5/3
f 162/5/3 161/5/3 160/5/3
f 163/5/3 161/5/3 162/5/3
f 166/5/3 165/5/3 164/5/3
f 167/5/3 165/5/3 166/5/3
f 171/1/3 169/1/3 168/1/3
f 172/1/3 169/1/3 171/1/3
f 174/1/3 171/1/3 170/1/3
f 174/1/3 172/1/3 171/1/3
f 175/2/3 173/2/3 172/2/3
f 175/1/3 172/1/3 174/1/3
f 176/1/3 174/1/3 170/1/3
f 177/1/3 174/1/3 176/1/3
f 178/1/3 174/1/3 177/1/3
f 179/2/3 173/2/3 175/2/3
f 180/2/3 173/2/3 179/2/3
f 181/1/3 178/1/3 177/1/3
f 181/1/3 180/1/3 179/1/3
f 181/1/3 179/1/3 178/1/3
f 182/1/3 180/1/3 181/1/3
f 185/1/3 184/1/3 183/1/3
f 186/1/3 184/1/3 185/1/3
f 191/1/3 188/1/3 187/1/3
f 192/1/3 188/1/3 191/1/3
f 193/2/3 190/2/3 189/2/3
f 194/2/3 190/2/3 193/2/3
f 197/1/3 196/1/3 195/1/3
f 198/1/3 196/1/3 197/1/3
f 204/1/3 200/1/3 199/1/3
f 205/1/3 200/1/3 204/1/3
f 206/1/3 202/1/3 201/1/3
f 207/1/3 202/1/3 206/1/3
f 209/1/3 204/1/3 203/1/3
f 210/1/3 204/1/3 209/1/3
f 211/2/3 208/2/3 207/2/3
f 212/2/3 208/2/3 211/2/3
f 215/1/3 214/1/3 213/1/3
f 216/1/3 214/1/3 215/1/3
f 220/2/3 217/2/3 216/2/3
f 221/2/3 217/2/3 220/2/3
f 222/2/3 219/2/3 218/2/3
f 223/2/3 219/2/3 222/2/3
f 226/4/3 225/4/3 224/4/3
f 227/4/3 225/4/3 226/4/3
f 228/1/4 229/1/4 233/1/4
f 233/1/4 229/1/4 234/1/4
f 230/1/4 231/1/4 235/1/4
f 235/1/4 231/1/4 236/1/4
f 232/1/4 233/1/4 238/1/4
f 238/1/4 233/1/4 239/1/4
f 236/3/4 237/3/4 240/3/4
f 240/3/4 237/3/4 241/3/4
f 242/1/4 243/1/4 246/1/4
f 246/1/4 243/1/4 247/1/4
f 244/4/4 245/4/4 250/4/4
f 250/4/4 245/4/4 251/4/4
f 247/3/4 248/3/4 252/3/4
f 252/3/4 248/3/4 253/3/4
f 249/4/4 250/4/4 254/4/4
f 254/4/4 250/4/4 255/4/4
f 256/1/4 257/1/4 258/1/4
f 258/1/4 257/1/4 259/1/4
f 260/1/4 261/1/4 264/1/4
f 264/1/4 261/1/4 265/1/4
f 262/4/4 263/4/4 266/4/4
f 266/4/4 263/4/4 267/4/4
f 268/3/4 269/3/4 270/3/4
f 270/3/4 269/3/4 271/3/4
f 272/1/4 273/1/4 274/1/4
f 274/1/4 273/1/4 275/1/4
f 272/1/4 274/1/4 276/1/4
f 275/1/4 273/1/4 277/1/4
f 272/1/4 276/1/4 278/1/4
f 276/1/4 277/1/4 278/1/4
f 277/1/4 273/1/4 279/1/4
f 278/1/4 277/1/4 279/1/4
f 280/1/4 281/1/4 282/1/4
f 282/1/4 281/1/4 283/1/4
f 287/1/5 285/1/5 284/1/5
f 288/1/5 285/1/5 287/1/5
f 290/1/5 287/1/5 286/1/5
f 290/1/5 289/1/5 288/1/5
f 290/1/5 288/1/5 287/1/5
f 291/1/5 289/1/5 290/1/5
f 292/1/5 289/1/5 291/1/5
f 293/1/5 289/1/5 292/1/5
f 294/1/5 292/1/5 291/1/5
f 295/1/5 292/1/5 294/1/5
f 298/5/5 297/5/5 296/5/5
f 299/5/5 297/5/5 298/5/5
f 302/1/5 299/1/5 298/1/5
f 303/5/5 301/5/5 300/5/5
f 304/5/5 301/5/5 303/5/5
f 305/1/5 302/1/5 298/1/5
f 305/1/5 303/1/5 302/1/5
f 305/1/5 304/1/5 303/1/5
f 306/1/5 304/1/5 305/1/5
f 308/1/5 305/1/5 298/1/5
f 309/1/5 305/1/5 308/1/5
f 310/1/5 304/1/5 306/1/5
f 311/1/5 304/1/5 310/1/5
f 313/2/5 312/2/5 311/2/5
f 314/2/5 312/2/5 313/2/5
f 315/1/5 308/1/5 307/1/5
f 316/1/5 308/1/5 315/1/5
f 319/3/5 314/3/5 313/3/5
f 320/3/5 314/3/5 319/3/5
f 321/1/5 317/1/5 316/1/5
f 322/1/5 319/1/5 318/1/5
f 323/1/5 321/1/5 316/1/5
f 323/1/5 322/1/5 321/1/5
f 324/1/5 319/1/5 322/1/5
f 324/1/5 322/1/5 323/1/5
f 329/1/5 326/1/5 325/1/5
f 330/1/5 326/1/5 329/1/5
f 331/1/5 328/1/5 327/1/5
f 332/1/5 328/1/5 331/1/5
f 337/1/5 334/1/5 333/1/5
f 338/1/5 334/1/5 337/1/5
f 339/3/5 336/3/5 335/3/5
f 340/3/5 336/3/5 339/3/5
f 343/1/5 342/1/5 341/1/5
f 344/1/5 342/1/5 343/1/5
f 347/5/5 346/5/5 345/5/5
f 348/5/5 346/5/5 347/5/5
f 349/1/5 348/1/5 347/1/5
f 350/1/5 348/1/5 349/1/5
f 353/5/5 352/5/5 351/5/5
f 354/5/5 352/5/5 353/5/5
f 355/5/6 356/5/6 357/5/6
f 357/5/6 356/5/6 358/5/6
f 357/1/6 358/1/6 361/1/6
f 361/1/6 358/1/6 362/1/6
f 359/5/6 360/5/6 363/5/6
f 363/5/6 360/5/6 364/5/6
f 365/5/6 366/5/6 367/5/6
f 367/5/6 366/5/6 368/5/6
f 367/1/6 368/1/6 369/1/6
f 369/1/6 368/1/6 370/1/6
f 371/1/6 372/1/6 375/1/6
f 375/1/6 372/1/6 376/1/6
f 373/1/6 374/1/6 377/1/6
f 377/1/6 374/1/6 378/1/6
f 379/1/6 380/1/6 383/1/6
f 383/1/6 380/1/6 384/1/6
f 381/3/6 382/3/6 385/3/6
f 385/3/6 382/3/6 386/3/6
f 387/1/6 388/1/6 389/1/6
f 389/1/6 388/1/6 390/1/6
f 391/5/6 392/5/6 393/5/6
f 393/5/6 392/5/6 394/5/6
f 393/2/6 394/2/6 397/2/6
f 394/2/6 395/2/6 397/2/6
f 395/1/6 396/1/6 398/1/6
f 397/2/6 395/2/6 398/2/6
f 398/1/6 396/1/6 399/1/6
f 393/2/6 397/2/6 401/2/6
f 401/2/6 397/2/6 402/2/6
f 398/2/6 399/2/6 403/2/6
f 403/2/6 399/2/6 404/2/6
f 400/1/6 401/1/6 406/1/6
f 404/2/6 405/2/6 407/2/6
f 403/2/6 404/2/6 407/2/6
f 407/2/6 405/2/6 408/2/6
f 408/2/6 405/2/6 409/2/6
f 400/1/6 406/1/6 410/1/6
f 410/1/6 406/1/6 411/1/6
f 408/4/6 409/4/6 414/4/6
f 414/4/6 409/4/6 415/4/6
f 411/1/6 412/1/6 416/1/6
f 413/1/6 414/1/6 417/1/6
f 411/1/6 416/1/6 418/1/6
f 416/1/6 417/1/6 418/1/6
f 417/1/6 414/1/6 419/1/6
f 418/1/6 417/1/6 419/1/6
f 420/2/6 421/2/6 423/2/6
f 423/2/6 421/2/6 424/2/6
f 422/2/6 423/2/6 425/2/6
f 423/3/6 424/3/6 426/3/6
f 425/2/6 423/2/6 426/2/6
f 426/3/6 424/3/6 427/3/6
f 426/3/6 427/3/6 429/3/6
f 425/3/6 426/3/6 429/3/6
f 429/3/6 427/3/6 430/3/6
f 427/4/6 428/4/6 431/4/6
f 430/3/6 427/3/6 431/3/6
f 431/4/6 428/4/6 432/4/6
f 430/4/6 431/4/6 433/4/6
f 433/4/6 431/4/6 434/4/6
