# MagicaVoxel @ Ephtracy

# group
o 

# material
mtllib cubito_meta.mtl
usemtl palette

# normals
vn -1 0 0
vn 1 0 0
vn 0 0 1
vn 0 0 -1
vn 0 -1 0
vn 0 1 0

# texcoords
vt 0.958984 0.5
vt 0.978516 0.5
vt 0.982422 0.5
vt 0.986328 0.5
vt 0.994141 0.5

# verts
v -2 0 2
v -2 0 -2
v -2 0.2 1.8
v -2 0.2 1.4
v -2 0.2 0.2
v -2 0.2 -0.4
v -2 0.2 -0.8
v -2 0.2 -1.2
v -2 0.2 -1.5
v -2 0.2 -1.8
v -2 3.8 1.8
v -2 3.8 1.4
v -2 3.8 0.2
v -2 3.8 -0.4
v -2 3.8 -0.8
v -2 3.8 -1.2
v -2 3.8 -1.5
v -2 3.8 -1.8
v -2 4 2
v -2 4 -2
v 2 0 2
v 2 0 -2
v 2 0.2 1.8
v 2 0.2 1.4
v 2 0.2 -2.38419e-07
v 2 0.2 -0.6
v 2 0.2 -1
v 2 0.2 -1.2
v 2 0.2 -1.6
v 2 0.2 -1.8
v 2 3.8 1.8
v 2 3.8 1.4
v 2 3.8 -2.38419e-07
v 2 3.8 -0.6
v 2 3.8 -1
v 2 3.8 -1.2
v 2 3.8 -1.6
v 2 3.8 -1.8
v 2 4 2
v 2 4 -2
v -2 0 2
v -2 4 2
v -1.8 0.2 2
v -1.8 3.8 2
v -1.6 0.2 2
v -1.6 3.8 2
v -1.4 0.2 2
v -1.4 3.8 2
v -1.2 0.2 2
v -1.2 3.8 2
v -1 0.2 2
v -1 3.8 2
v 0.6 0.1 2
v 0.6 0.2 2
v 0.6 3.8 2
v 1.7 0.1 2
v 1.7 0.2 2
v 1.7 3.8 2
v 1.8 0.2 2
v 1.8 3.8 2
v 2 0 2
v 2 4 2
v -2 0 -2
v -2 4 -2
v -1.8 0.2 -2
v -1.8 3.8 -2
v -1.5 0.2 -2
v -1.5 3.8 -2
v -1.2 0.2 -2
v -1.2 3.8 -2
v -0.9 0.2 -2
v -0.9 3.8 -2
v -0.6 0.2 -2
v -0.6 3.8 -2
v -0.4 0.2 -2
v -0.4 3.8 -2
v -0.0999999 0.2 -2
v -0.0999999 3.8 -2
v 0.8 0.2 -2
v 0.8 3.8 -2
v 1.4 0.2 -2
v 1.4 3.8 -2
v 1.8 0.2 -2
v 1.8 3.8 -2
v 2 0 -2
v 2 4 -2
v -2 0 2
v 2 0 2
v -2 0 -2
v 2 0 -2
v -2 4 2
v 2 4 2
v -1.8 4 1.8
v -1.2 4 1.8
v -0.6 4 1.8
v 2.38419e-07 4 1.8
v 0.6 4 1.8
v 1.2 4 1.8
v 1.8 4 1.8
v -1.8 4 1.2
v -1.2 4 1.2
v -0.6 4 1.2
v 2.38419e-07 4 1.2
v 0.6 4 1.2
v 1.2 4 1.2
v 1.8 4 1.2
v -1.8 4 0.6
v -1.2 4 0.6
v -0.6 4 0.6
v 2.38419e-07 4 0.6
v 0.6 4 0.6
v 1.2 4 0.6
v 1.8 4 0.6
v -1.8 4 -2.38419e-07
v -1.2 4 -2.38419e-07
v -0.6 4 -2.38419e-07
v 2.38419e-07 4 -2.38419e-07
v 0.6 4 -2.38419e-07
v 1.2 4 -2.38419e-07
v 1.8 4 -2.38419e-07
v -1.8 4 -0.6
v -1.2 4 -0.6
v -0.6 4 -0.6
v 2.38419e-07 4 -0.6
v 0.6 4 -0.6
v 1.2 4 -0.6
v 1.8 4 -0.6
v -1.8 4 -1.2
v -1.2 4 -1.2
v -0.6 4 -1.2
v 2.38419e-07 4 -1.2
v 0.6 4 -1.2
v 1.2 4 -1.2
v 1.8 4 -1.2
v -1.8 4 -1.8
v -1.2 4 -1.8
v -0.6 4 -1.8
v 2.38419e-07 4 -1.8
v 0.6 4 -1.8
v 1.2 4 -1.8
v 1.8 4 -1.8
v -2 4 -2
v 2 4 -2

# faces
f 3/3/1 2/3/1 1/3/1
f 4/3/1 2/3/1 3/3/1
f 5/3/1 2/3/1 4/3/1
f 6/3/1 2/3/1 5/3/1
f 7/3/1 2/3/1 6/3/1
f 8/3/1 2/3/1 7/3/1
f 9/3/1 2/3/1 8/3/1
f 10/3/1 2/3/1 9/3/1
f 11/3/1 3/3/1 1/3/1
f 11/4/1 4/4/1 3/4/1
f 12/2/1 5/2/1 4/2/1
f 12/4/1 4/4/1 11/4/1
f 13/4/1 6/4/1 5/4/1
f 13/2/1 5/2/1 12/2/1
f 14/2/1 7/2/1 6/2/1
f 14/4/1 6/4/1 13/4/1
f 15/4/1 8/4/1 7/4/1
f 15/2/1 7/2/1 14/2/1
f 16/2/1 9/2/1 8/2/1
f 16/4/1 8/4/1 15/4/1
f 17/4/1 10/4/1 9/4/1
f 17/2/1 9/2/1 16/2/1
f 18/3/1 2/3/1 10/3/1
f 18/4/1 10/4/1 17/4/1
f 19/3/1 17/3/1 16/3/1
f 19/3/1 16/3/1 15/3/1
f 19/3/1 18/3/1 17/3/1
f 19/3/1 15/3/1 14/3/1
f 19/3/1 14/3/1 13/3/1
f 19/3/1 13/3/1 12/3/1
f 19/3/1 12/3/1 11/3/1
f 19/3/1 11/3/1 1/3/1
f 20/3/1 2/3/1 18/3/1
f 20/3/1 18/3/1 19/3/1
f 21/3/2 22/3/2 23/3/2
f 23/3/2 22/3/2 24/3/2
f 24/3/2 22/3/2 25/3/2
f 25/3/2 22/3/2 26/3/2
f 26/3/2 22/3/2 27/3/2
f 27/3/2 22/3/2 28/3/2
f 28/3/2 22/3/2 29/3/2
f 29/3/2 22/3/2 30/3/2
f 21/3/2 23/3/2 31/3/2
f 23/4/2 24/4/2 31/4/2
f 24/2/2 25/2/2 32/2/2
f 31/4/2 24/4/2 32/4/2
f 25/4/2 26/4/2 33/4/2
f 32/2/2 25/2/2 33/2/2
f 26/2/2 27/2/2 34/2/2
f 33/4/2 26/4/2 34/4/2
f 27/4/2 28/4/2 35/4/2
f 34/2/2 27/2/2 35/2/2
f 28/2/2 29/2/2 36/2/2
f 35/4/2 28/4/2 36/4/2
f 29/4/2 30/4/2 37/4/2
f 36/2/2 29/2/2 37/2/2
f 30/3/2 22/3/2 38/3/2
f 37/4/2 30/4/2 38/4/2
f 36/3/2 37/3/2 39/3/2
f 35/3/2 36/3/2 39/3/2
f 37/3/2 38/3/2 39/3/2
f 34/3/2 35/3/2 39/3/2
f 33/3/2 34/3/2 39/3/2
f 32/3/2 33/3/2 39/3/2
f 31/3/2 32/3/2 39/3/2
f 21/3/2 31/3/2 39/3/2
f 38/3/2 22/3/2 40/3/2
f 39/3/2 38/3/2 40/3/2
f 43/3/3 42/3/3 41/3/3
f 44/3/3 42/3/3 43/3/3
f 45/3/3 43/3/3 41/3/3
f 45/4/3 44/4/3 43/4/3
f 46/3/3 42/3/3 44/3/3
f 46/4/3 44/4/3 45/4/3
f 47/3/3 45/3/3 41/3/3
f 47/2/3 46/2/3 45/2/3
f 48/3/3 42/3/3 46/3/3
f 48/2/3 46/2/3 47/2/3
f 49/3/3 47/3/3 41/3/3
f 49/4/3 48/4/3 47/4/3
f 50/3/3 42/3/3 48/3/3
f 50/4/3 48/4/3 49/4/3
f 51/3/3 49/3/3 41/3/3
f 51/2/3 50/2/3 49/2/3
f 52/3/3 42/3/3 50/3/3
f 52/2/3 50/2/3 51/2/3
f 53/3/3 51/3/3 41/3/3
f 54/4/3 52/4/3 51/4/3
f 54/3/3 51/3/3 53/3/3
f 55/3/3 42/3/3 52/3/3
f 55/4/3 52/4/3 54/4/3
f 56/2/3 54/2/3 53/2/3
f 56/3/3 53/3/3 41/3/3
f 56/2/3 55/2/3 54/2/3
f 57/2/3 55/2/3 56/2/3
f 58/3/3 42/3/3 55/3/3
f 58/2/3 55/2/3 57/2/3
f 59/3/3 57/3/3 56/3/3
f 59/4/3 58/4/3 57/4/3
f 60/3/3 42/3/3 58/3/3
f 60/4/3 58/4/3 59/4/3
f 61/3/3 59/3/3 56/3/3
f 61/3/3 56/3/3 41/3/3
f 61/3/3 60/3/3 59/3/3
f 62/3/3 42/3/3 60/3/3
f 62/3/3 60/3/3 61/3/3
f 63/3/4 64/3/4 65/3/4
f 65/3/4 64/3/4 66/3/4
f 63/3/4 65/3/4 67/3/4
f 65/4/4 66/4/4 67/4/4
f 66/3/4 64/3/4 68/3/4
f 67/4/4 66/4/4 68/4/4
f 63/3/4 67/3/4 69/3/4
f 67/2/4 68/2/4 69/2/4
f 68/3/4 64/3/4 70/3/4
f 69/2/4 68/2/4 70/2/4
f 63/3/4 69/3/4 71/3/4
f 69/4/4 70/4/4 71/4/4
f 70/3/4 64/3/4 72/3/4
f 71/4/4 70/4/4 72/4/4
f 63/3/4 71/3/4 73/3/4
f 71/2/4 72/2/4 73/2/4
f 72/3/4 64/3/4 74/3/4
f 73/2/4 72/2/4 74/2/4
f 63/3/4 73/3/4 75/3/4
f 73/4/4 74/4/4 75/4/4
f 74/3/4 64/3/4 76/3/4
f 75/4/4 74/4/4 76/4/4
f 63/3/4 75/3/4 77/3/4
f 75/2/4 76/2/4 77/2/4
f 76/3/4 64/3/4 78/3/4
f 77/2/4 76/2/4 78/2/4
f 63/3/4 77/3/4 79/3/4
f 77/4/4 78/4/4 79/4/4
f 78/3/4 64/3/4 80/3/4
f 79/4/4 78/4/4 80/4/4
f 63/3/4 79/3/4 81/3/4
f 79/2/4 80/2/4 81/2/4
f 80/3/4 64/3/4 82/3/4
f 81/2/4 80/2/4 82/2/4
f 63/3/4 81/3/4 83/3/4
f 81/4/4 82/4/4 83/4/4
f 82/3/4 64/3/4 84/3/4
f 83/4/4 82/4/4 84/4/4
f 63/3/4 83/3/4 85/3/4
f 83/3/4 84/3/4 85/3/4
f 84/3/4 64/3/4 86/3/4
f 85/3/4 84/3/4 86/3/4
f 89/3/5 88/3/5 87/3/5
f 90/3/5 88/3/5 89/3/5
f 91/3/6 92/3/6 93/3/6
f 93/3/6 92/3/6 94/3/6
f 94/3/6 92/3/6 95/3/6
f 95/3/6 92/3/6 96/3/6
f 96/3/6 92/3/6 97/3/6
f 97/3/6 92/3/6 98/3/6
f 98/3/6 92/3/6 99/3/6
f 91/3/6 93/3/6 100/3/6
f 93/5/6 94/5/6 100/5/6
f 94/1/6 95/1/6 101/1/6
f 100/5/6 94/5/6 101/5/6
f 95/5/6 96/5/6 102/5/6
f 101/1/6 95/1/6 102/1/6
f 96/1/6 97/1/6 103/1/6
f 102/5/6 96/5/6 103/5/6
f 97/5/6 98/5/6 104/5/6
f 103/1/6 97/1/6 104/1/6
f 98/1/6 99/1/6 105/1/6
f 104/5/6 98/5/6 105/5/6
f 99/3/6 92/3/6 106/3/6
f 105/1/6 99/1/6 106/1/6
f 91/3/6 100/3/6 107/3/6
f 100/1/6 101/1/6 107/1/6
f 101/5/6 102/5/6 108/5/6
f 107/1/6 101/1/6 108/1/6
f 102/1/6 103/1/6 109/1/6
f 108/5/6 102/5/6 109/5/6
f 103/5/6 104/5/6 110/5/6
f 109/1/6 103/1/6 110/1/6
f 104/1/6 105/1/6 111/1/6
f 110/5/6 104/5/6 111/5/6
f 105/5/6 106/5/6 112/5/6
f 111/1/6 105/1/6 112/1/6
f 106/3/6 92/3/6 113/3/6
f 112/5/6 106/5/6 113/5/6
f 91/3/6 107/3/6 114/3/6
f 107/5/6 108/5/6 114/5/6
f 108/1/6 109/1/6 115/1/6
f 114/5/6 108/5/6 115/5/6
f 109/5/6 110/5/6 116/5/6
f 115/1/6 109/1/6 116/1/6
f 110/1/6 111/1/6 117/1/6
f 116/5/6 110/5/6 117/5/6
f 111/5/6 112/5/6 118/5/6
f 117/1/6 111/1/6 118/1/6
f 112/1/6 113/1/6 119/1/6
f 118/5/6 112/5/6 119/5/6
f 113/3/6 92/3/6 120/3/6
f 119/1/6 113/1/6 120/1/6
f 114/1/6 115/1/6 121/1/6
f 91/3/6 114/3/6 121/3/6
f 115/5/6 116/5/6 122/5/6
f 121/1/6 115/1/6 122/1/6
f 116/1/6 117/1/6 123/1/6
f 122/5/6 116/5/6 123/5/6
f 117/5/6 118/5/6 124/5/6
f 123/1/6 117/1/6 124/1/6
f 118/1/6 119/1/6 125/1/6
f 124/5/6 118/5/6 125/5/6
f 119/5/6 120/5/6 126/5/6
f 125/1/6 119/1/6 126/1/6
f 120/3/6 92/3/6 127/3/6
f 126/5/6 120/5/6 127/5/6
f 121/5/6 122/5/6 128/5/6
f 91/3/6 121/3/6 128/3/6
f 122/1/6 123/1/6 129/1/6
f 128/5/6 122/5/6 129/5/6
f 123/5/6 124/5/6 130/5/6
f 129/1/6 123/1/6 130/1/6
f 124/1/6 125/1/6 131/1/6
f 130/5/6 124/5/6 131/5/6
f 125/5/6 126/5/6 132/5/6
f 131/1/6 125/1/6 132/1/6
f 126/1/6 127/1/6 133/1/6
f 132/5/6 126/5/6 133/5/6
f 127/3/6 92/3/6 134/3/6
f 133/1/6 127/1/6 134/1/6
f 128/1/6 129/1/6 135/1/6
f 91/3/6 128/3/6 135/3/6
f 129/5/6 130/5/6 136/5/6
f 135/1/6 129/1/6 136/1/6
f 130/1/6 131/1/6 137/1/6
f 136/5/6 130/5/6 137/5/6
f 131/5/6 132/5/6 138/5/6
f 137/1/6 131/1/6 138/1/6
f 132/1/6 133/1/6 139/1/6
f 138/5/6 132/5/6 139/5/6
f 133/5/6 134/5/6 140/5/6
f 139/1/6 133/1/6 140/1/6
f 134/3/6 92/3/6 141/3/6
f 140/5/6 134/5/6 141/5/6
f 135/3/6 136/3/6 142/3/6
f 91/3/6 135/3/6 142/3/6
f 140/3/6 141/3/6 142/3/6
f 138/3/6 139/3/6 142/3/6
f 139/3/6 140/3/6 142/3/6
f 136/3/6 137/3/6 142/3/6
f 137/3/6 138/3/6 142/3/6
f 141/3/6 92/3/6 143/3/6
f 142/3/6 141/3/6 143/3/6
