# MagicaVoxel @ Ephtracy

# group
o 

# material
mtllib cubito_hielo_corner.mtl
usemtl palette

# normals
vn -1 0 0
vn 1 0 0
vn 0 0 1
vn 0 0 -1
vn 0 -1 0
vn 0 1 0

# texcoords
vt 0.337891 0.5
vt 0.466797 0.5
vt 0.556641 0.5
vt 0.580078 0.5

# verts
v -2 3 2
v -2 3 1.8
v -2 3 1.1
v -2 3 0.9
v -2 3 0.7
v -2 3 -0.6
v -2 3 -0.9
v -2 3 -1.3
v -2 3 -1.6
v -2 3 -1.8
v -2 3 -2
v -2 3.1 1.1
v -2 3.1 1
v -2 3.1 0.9
v -2 3.1 0.8
v -2 3.1 0.7
v -2 3.1 -0.9
v -2 3.1 -1.1
v -2 3.1 -1.2
v -2 3.1 -1.3
v -2 3.1 -1.4
v -2 3.2 1
v -2 3.2 0.8
v -2 3.2 -0.6
v -2 3.2 -0.8
v -2 3.2 -1.1
v -2 3.2 -1.2
v -2 3.3 -0.8
v -2 3.3 -1
v -2 3.3 -1.3
v -2 3.3 -1.4
v -2 3.3 -1.5
v -2 3.3 -1.6
v -2 3.4 -1
v -2 3.4 -1.1
v -2 3.4 -1.3
v -2 3.4 -1.4
v -2 3.4 -1.5
v -2 3.5 -1.1
v -2 3.5 -1.4
v -2 3.8 1.8
v -2 3.8 -1.8
v -2 4 2
v -2 4 -2
v 1.4 3.9 1.6
v 1.4 3.9 1.4
v 1.4 3.9 -1.4
v 1.4 3.9 -1.6
v 1.4 4 1.6
v 1.4 4 1.4
v 1.4 4 -1.4
v 1.4 4 -1.6
v 1.6 3.9 1.4
v 1.6 3.9 1.2
v 1.6 3.9 1.1
v 1.6 3.9 1
v 1.6 3.9 0.5
v 1.6 3.9 0.3
v 1.6 3.9 -2.38419e-07
v 1.6 3.9 -0.7
v 1.6 3.9 -1.4
v 1.6 4 1.4
v 1.6 4 1.2
v 1.6 4 1.1
v 1.6 4 1
v 1.6 4 0.5
v 1.6 4 0.3
v 1.6 4 -2.38419e-07
v 1.6 4 -0.7
v 1.6 4 -1.4
v -1.6 3.9 1.4
v -1.6 3.9 -1.1
v -1.6 3.9 -1.4
v -1.6 4 1.4
v -1.6 4 -1.1
v -1.6 4 -1.4
v -1.4 3.9 1.6
v -1.4 3.9 1.4
v -1.4 3.9 -1.4
v -1.4 3.9 -1.6
v -1.4 4 1.6
v -1.4 4 1.4
v -1.4 4 -1.4
v -1.4 4 -1.6
v 2 3 2
v 2 3 1.8
v 2 3 1.6
v 2 3 1.3
v 2 3 0.9
v 2 3 0.6
v 2 3 -0.7
v 2 3 -0.9
v 2 3 -1.1
v 2 3 -1.8
v 2 3 -2
v 2 3.1 1.4
v 2 3.1 1.3
v 2 3.1 1.2
v 2 3.1 1.1
v 2 3.1 0.9
v 2 3.1 -0.7
v 2 3.1 -0.8
v 2 3.1 -0.9
v 2 3.1 -1
v 2 3.1 -1.1
v 2 3.2 1.2
v 2 3.2 1.1
v 2 3.2 0.8
v 2 3.2 0.6
v 2 3.2 -0.8
v 2 3.2 -1
v 2 3.3 1.6
v 2 3.3 1.5
v 2 3.3 1.4
v 2 3.3 1.3
v 2 3.3 1
v 2 3.3 0.8
v 2 3.4 1.5
v 2 3.4 1.4
v 2 3.4 1.3
v 2 3.4 1.1
v 2 3.4 1
v 2 3.5 1.4
v 2 3.5 1.1
v 2 3.8 1.8
v 2 3.8 -1.8
v 2 4 2
v 2 4 -2
v -2 3 2
v -2 4 2
v -1.8 3 2
v -1.8 3.8 2
v -1.6 3 2
v -1.6 3.3 2
v -1.4 3.2 2
v -1.4 3.3 2
v -1.4 3.4 2
v -1.3 3.1 2
v -1.3 3.2 2
v -1.2 3.3 2
v -1.2 3.4 2
v -1.1 3 2
v -1.1 3.1 2
v -1.1 3.2 2
v -1.1 3.3 2
v -1 3.1 2
v -1 3.2 2
v -1 3.4 2
v -0.9 3 2
v -0.9 3.1 2
v -0.8 3 2
v -0.8 3.1 2
v -0.6 3 2
v -0.6 3.1 2
v 2.38419e-07 3 2
v 2.38419e-07 3.1 2
v 0.1 3.1 2
v 0.1 3.2 2
v 0.2 3.2 2
v 0.2 3.4 2
v 0.3 3.3 2
v 0.3 3.4 2
v 0.4 3.4 2
v 0.4 3.5 2
v 0.6 3.2 2
v 0.6 3.3 2
v 0.8 3.1 2
v 0.8 3.2 2
v 0.8 3.4 2
v 0.8 3.5 2
v 0.9 3 2
v 0.9 3.1 2
v 0.9 3.3 2
v 0.9 3.4 2
v 1 3 2
v 1 3.1 2
v 1 3.2 2
v 1 3.3 2
v 1 3.4 2
v 1 3.5 2
v 1.1 3.1 2
v 1.1 3.2 2
v 1.1 3.4 2
v 1.8 3 2
v 1.8 3.8 2
v 2 3 2
v 2 4 2
v -1.6 3.9 -1.4
v -1.6 4 -1.4
v -1.4 3.9 -1.4
v -1.4 4 -1.4
v 1.4 3.9 -1.4
v 1.4 4 -1.4
v 1.6 3.9 -1.4
v 1.6 4 -1.4
v -1.4 3.9 -1.6
v -1.4 4 -1.6
v -1.2 3.9 -1.6
v -1.2 4 -1.6
v -1.1 3.9 -1.6
v -1.1 4 -1.6
v 1.4 3.9 -1.6
v 1.4 4 -1.6
v -1.4 3.9 1.6
v -1.4 4 1.6
v 0.5 3.9 1.6
v 0.5 4 1.6
v 1 3.9 1.6
v 1 4 1.6
v 1.2 3.9 1.6
v 1.2 4 1.6
v 1.4 3.9 1.6
v 1.4 4 1.6
v -1.6 3.9 1.4
v -1.6 4 1.4
v -1.4 3.9 1.4
v -1.4 4 1.4
v 1.4 3.9 1.4
v 1.4 4 1.4
v 1.6 3.9 1.4
v 1.6 4 1.4
v -2 3 -2
v -2 4 -2
v -1.8 3 -2
v -1.8 3.8 -2
v -1.1 3 -2
v -1.1 3.1 -2
v -1 3.1 -2
v -1 3.2 -2
v -0.9 3 -2
v -0.9 3.1 -2
v -0.8 3.1 -2
v -0.8 3.2 -2
v -0.7 3 -2
v -0.7 3.1 -2
v 0.6 3 -2
v 0.6 3.2 -2
v 0.8 3.2 -2
v 0.8 3.3 -2
v 0.9 3 -2
v 0.9 3.1 -2
v 1 3.3 -2
v 1 3.4 -2
v 1.1 3.1 -2
v 1.1 3.2 -2
v 1.1 3.4 -2
v 1.1 3.5 -2
v 1.2 3.1 -2
v 1.2 3.2 -2
v 1.3 3 -2
v 1.3 3.1 -2
v 1.3 3.3 -2
v 1.3 3.4 -2
v 1.4 3.1 -2
v 1.4 3.3 -2
v 1.4 3.4 -2
v 1.4 3.5 -2
v 1.5 3.3 -2
v 1.5 3.4 -2
v 1.6 3 -2
v 1.6 3.3 -2
v 1.8 3 -2
v 1.8 3.8 -2
v 2 3 -2
v 2 4 -2
v -2 3 2
v -1.8 3 2
v -1.6 3 2
v -1.1 3 2
v -0.9 3 2
v -0.8 3 2
v -0.6 3 2
v 2.38419e-07 3 2
v 0.9 3 2
v 1 3 2
v 1.8 3 2
v 2 3 2
v -1.9 3 1.9
v -1.8 3 1.9
v -1.6 3 1.9
v -1.1 3 1.9
v -0.9 3 1.9
v -0.8 3 1.9
v -0.6 3 1.9
v 2.38419e-07 3 1.9
v 0.9 3 1.9
v 1 3 1.9
v 1.8 3 1.9
v 1.9 3 1.9
v -2 3 1.8
v -1.9 3 1.8
v 1.9 3 1.8
v 2 3 1.8
v 1.9 3 1.6
v 2 3 1.6
v 1.9 3 1.3
v 2 3 1.3
v -2 3 1.1
v -1.9 3 1.1
v -2 3 0.9
v -1.9 3 0.9
v 1.9 3 0.9
v 2 3 0.9
v -2 3 0.7
v -1.9 3 0.7
v 1.9 3 0.6
v 2 3 0.6
v -2 3 -0.6
v -1.9 3 -0.6
v 1.9 3 -0.7
v 2 3 -0.7
v -2 3 -0.9
v -1.9 3 -0.9
v 1.9 3 -0.9
v 2 3 -0.9
v 1.9 3 -1.1
v 2 3 -1.1
v -2 3 -1.3
v -1.9 3 -1.3
v -2 3 -1.6
v -1.9 3 -1.6
v -2 3 -1.8
v -1.9 3 -1.8
v 1.9 3 -1.8
v 2 3 -1.8
v -1.9 3 -1.9
v -1.8 3 -1.9
v -1.1 3 -1.9
v -0.9 3 -1.9
v -0.7 3 -1.9
v 0.6 3 -1.9
v 0.9 3 -1.9
v 1.3 3 -1.9
v 1.6 3 -1.9
v 1.8 3 -1.9
v 1.9 3 -1.9
v -2 3 -2
v -1.8 3 -2
v -1.1 3 -2
v -0.9 3 -2
v -0.7 3 -2
v 0.6 3 -2
v 0.9 3 -2
v 1.3 3 -2
v 1.6 3 -2
v 1.8 3 -2
v 2 3 -2
v -1.4 3.9 1.6
v 0.5 3.9 1.6
v 1 3.9 1.6
v 1.2 3.9 1.6
v 1.4 3.9 1.6
v -1.6 3.9 1.4
v -1.4 3.9 1.4
v 1.4 3.9 1.4
v 1.6 3.9 1.4
v 1.6 3.9 1.2
v 1.6 3.9 1.1
v 1.6 3.9 1
v 1.6 3.9 0.5
v 1.6 3.9 0.3
v 1.6 3.9 -2.38419e-07
v 1.6 3.9 -0.7
v -1.6 3.9 -1.1
v -1.6 3.9 -1.4
v -1.4 3.9 -1.4
v 1.4 3.9 -1.4
v 1.6 3.9 -1.4
v -1.4 3.9 -1.6
v -1.2 3.9 -1.6
v -1.1 3.9 -1.6
v 1.4 3.9 -1.6
v -2 4 2
v 2 4 2
v -1.8 4 1.8
v -1.6 4 1.8
v 0.4 4 1.8
v 0.9 4 1.8
v 1.1 4 1.8
v 1.8 4 1.8
v -1.6 4 1.7
v -1.5 4 1.7
v 0.4 4 1.7
v 0.5 4 1.7
v 0.9 4 1.7
v 1 4 1.7
v 1.1 4 1.7
v 1.2 4 1.7
v -1.5 4 1.6
v -1.4 4 1.6
v 0.5 4 1.6
v 1 4 1.6
v 1.2 4 1.6
v 1.4 4 1.6
v -1.6 4 1.4
v -1.4 4 1.4
v 1.4 4 1.4
v 1.6 4 1.4
v 1.6 4 1.2
v 1.7 4 1.2
v 1.6 4 1.1
v 1.7 4 1.1
v 1.8 4 1.1
v 1.6 4 1
v 1.7 4 1
v 1.7 4 0.9
v 1.8 4 0.9
v 1.6 4 0.5
v 1.7 4 0.5
v 1.7 4 0.4
v 1.8 4 0.4
v 1.6 4 0.3
v 1.7 4 0.3
v 1.7 4 0.2
v 1.8 4 0.2
v 1.6 4 -2.38419e-07
v 1.7 4 -2.38419e-07
v 1.7 4 -0.1
v 1.8 4 -0.1
v 1.7 4 -0.6
v 1.8 4 -0.6
v 1.6 4 -0.7
v 1.7 4 -0.7
v -1.8 4 -1
v -1.7 4 -1
v -1.7 4 -1.1
v -1.6 4 -1.1
v -1.7 4 -1.4
v -1.6 4 -1.4
v -1.4 4 -1.4
v 1.4 4 -1.4
v 1.6 4 -1.4
v -1.8 4 -1.5
v -1.7 4 -1.5
v -1.6 4 -1.5
v 1.6 4 -1.5
v 1.7 4 -1.5
v -1.7 4 -1.6
v -1.6 4 -1.6
v -1.5 4 -1.6
v -1.4 4 -1.6
v -1.2 4 -1.6
v -1.1 4 -1.6
v 1.4 4 -1.6
v 1.7 4 -1.6
v 1.8 4 -1.6
v -1.6 4 -1.7
v -1.5 4 -1.7
v -1.2 4 -1.7
v -1.1 4 -1.7
v -1 4 -1.7
v -1.8 4 -1.8
v -1.5 4 -1.8
v -1 4 -1.8
v 1.8 4 -1.8
v -2 4 -2
v 2 4 -2

# faces
f 12/4/1 3/4/1 2/4/1
f 12/1/1 4/1/1 3/1/1
f 13/1/1 4/1/1 12/1/1
f 14/2/1 5/2/1 4/2/1
f 14/1/1 4/1/1 13/1/1
f 15/2/1 5/2/1 14/2/1
f 16/4/1 6/4/1 5/4/1
f 16/2/1 5/2/1 15/2/1
f 17/2/1 7/2/1 6/2/1
f 17/3/1 8/3/1 7/3/1
f 18/3/1 8/3/1 17/3/1
f 19/3/1 8/3/1 18/3/1
f 20/2/1 9/2/1 8/2/1
f 20/3/1 8/3/1 19/3/1
f 21/2/1 9/2/1 20/2/1
f 22/4/1 13/4/1 12/4/1
f 22/2/1 15/2/1 14/2/1
f 22/2/1 14/2/1 13/2/1
f 23/4/1 16/4/1 15/4/1
f 23/2/1 15/2/1 22/2/1
f 24/4/1 6/4/1 16/4/1
f 24/4/1 16/4/1 23/4/1
f 24/2/1 17/2/1 6/2/1
f 24/2/1 18/2/1 17/2/1
f 25/2/1 18/2/1 24/2/1
f 26/3/1 19/3/1 18/3/1
f 26/2/1 18/2/1 25/2/1
f 27/1/1 21/1/1 20/1/1
f 27/3/1 19/3/1 26/3/1
f 27/1/1 20/1/1 19/1/1
f 28/2/1 26/2/1 25/2/1
f 28/4/1 23/4/1 22/4/1
f 28/4/1 25/4/1 24/4/1
f 28/4/1 24/4/1 23/4/1
f 29/2/1 26/2/1 28/2/1
f 30/1/1 21/1/1 27/1/1
f 30/1/1 27/1/1 26/1/1
f 31/2/1 9/2/1 21/2/1
f 31/1/1 21/1/1 30/1/1
f 32/2/1 9/2/1 31/2/1
f 33/4/1 10/4/1 9/4/1
f 33/2/1 9/2/1 32/2/1
f 34/2/1 26/2/1 29/2/1
f 34/4/1 29/4/1 28/4/1
f 35/1/1 30/1/1 26/1/1
f 35/2/1 26/2/1 34/2/1
f 36/2/1 32/2/1 31/2/1
f 36/1/1 30/1/1 35/1/1
f 36/2/1 31/2/1 30/2/1
f 37/2/1 32/2/1 36/2/1
f 38/4/1 33/4/1 32/4/1
f 38/2/1 32/2/1 37/2/1
f 39/4/1 35/4/1 34/4/1
f 39/2/1 37/2/1 36/2/1
f 39/2/1 36/2/1 35/2/1
f 40/4/1 38/4/1 37/4/1
f 40/2/1 37/2/1 39/2/1
f 41/3/1 2/3/1 1/3/1
f 41/4/1 34/4/1 28/4/1
f 41/4/1 40/4/1 39/4/1
f 41/4/1 28/4/1 22/4/1
f 41/4/1 12/4/1 2/4/1
f 41/4/1 22/4/1 12/4/1
f 41/4/1 39/4/1 34/4/1
f 42/4/1 38/4/1 40/4/1
f 42/4/1 40/4/1 41/4/1
f 42/3/1 11/3/1 10/3/1
f 42/4/1 10/4/1 33/4/1
f 42/4/1 33/4/1 38/4/1
f 43/3/1 41/3/1 1/3/1
f 43/3/1 42/3/1 41/3/1
f 44/3/1 11/3/1 42/3/1
f 44/3/1 42/3/1 43/3/1
f 49/4/1 46/4/1 45/4/1
f 50/4/1 46/4/1 49/4/1
f 51/4/1 48/4/1 47/4/1
f 52/4/1 48/4/1 51/4/1
f 62/4/1 54/4/1 53/4/1
f 63/1/1 55/1/1 54/1/1
f 63/4/1 54/4/1 62/4/1
f 64/3/1 56/3/1 55/3/1
f 64/1/1 55/1/1 63/1/1
f 65/4/1 57/4/1 56/4/1
f 65/3/1 56/3/1 64/3/1
f 66/3/1 58/3/1 57/3/1
f 66/4/1 57/4/1 65/4/1
f 67/2/1 59/2/1 58/2/1
f 67/3/1 58/3/1 66/3/1
f 68/1/1 60/1/1 59/1/1
f 68/2/1 59/2/1 67/2/1
f 69/3/1 61/3/1 60/3/1
f 69/1/1 60/1/1 68/1/1
f 70/3/1 61/3/1 69/3/1
f 71/4/2 72/4/2 74/4/2
f 72/3/2 73/3/2 75/3/2
f 74/4/2 72/4/2 75/4/2
f 75/3/2 73/3/2 76/3/2
f 77/4/2 78/4/2 81/4/2
f 81/4/2 78/4/2 82/4/2
f 79/2/2 80/2/2 83/2/2
f 83/2/2 80/2/2 84/2/2
f 87/2/2 88/2/2 96/2/2
f 88/3/2 89/3/2 97/3/2
f 96/2/2 88/2/2 97/2/2
f 97/3/2 89/3/2 98/3/2
f 98/3/2 89/3/2 99/3/2
f 89/2/2 90/2/2 100/2/2
f 99/3/2 89/3/2 100/3/2
f 90/4/2 91/4/2 101/4/2
f 91/2/2 92/2/2 101/2/2
f 101/2/2 92/2/2 102/2/2
f 92/1/2 93/1/2 103/1/2
f 102/2/2 92/2/2 103/2/2
f 103/1/2 93/1/2 104/1/2
f 93/4/2 94/4/2 105/4/2
f 104/1/2 93/1/2 105/1/2
f 98/3/2 99/3/2 106/3/2
f 96/1/2 97/1/2 106/1/2
f 97/1/2 98/1/2 106/1/2
f 99/2/2 100/2/2 107/2/2
f 106/3/2 99/3/2 107/3/2
f 100/2/2 90/2/2 108/2/2
f 107/2/2 100/2/2 108/2/2
f 101/4/2 102/4/2 109/4/2
f 108/2/2 90/2/2 109/2/2
f 90/4/2 101/4/2 109/4/2
f 103/2/2 104/2/2 110/2/2
f 109/4/2 102/4/2 110/4/2
f 102/2/2 103/2/2 110/2/2
f 104/4/2 105/4/2 111/4/2
f 110/2/2 104/2/2 111/2/2
f 86/4/2 87/4/2 112/4/2
f 87/2/2 96/2/2 112/2/2
f 112/2/2 96/2/2 113/2/2
f 106/1/2 107/1/2 114/1/2
f 113/2/2 96/2/2 114/2/2
f 96/1/2 106/1/2 114/1/2
f 114/1/2 107/1/2 115/1/2
f 107/2/2 108/2/2 116/2/2
f 110/4/2 111/4/2 117/4/2
f 116/2/2 108/2/2 117/2/2
f 108/4/2 109/4/2 117/4/2
f 109/4/2 110/4/2 117/4/2
f 112/4/2 113/4/2 118/4/2
f 114/2/2 115/2/2 118/2/2
f 113/2/2 114/2/2 118/2/2
f 118/2/2 115/2/2 119/2/2
f 115/1/2 107/1/2 120/1/2
f 119/2/2 115/2/2 120/2/2
f 107/2/2 116/2/2 121/2/2
f 120/1/2 107/1/2 121/1/2
f 116/4/2 117/4/2 122/4/2
f 121/2/2 116/2/2 122/2/2
f 119/2/2 120/2/2 123/2/2
f 118/4/2 119/4/2 123/4/2
f 120/2/2 121/2/2 123/2/2
f 121/4/2 122/4/2 124/4/2
f 123/2/2 121/2/2 124/2/2
f 85/3/2 86/3/2 125/3/2
f 86/4/2 112/4/2 125/4/2
f 123/4/2 124/4/2 125/4/2
f 112/4/2 118/4/2 125/4/2
f 118/4/2 123/4/2 125/4/2
f 124/4/2 122/4/2 126/4/2
f 125/4/2 124/4/2 126/4/2
f 111/4/2 105/4/2 126/4/2
f 117/4/2 111/4/2 126/4/2
f 105/4/2 94/4/2 126/4/2
f 122/4/2 117/4/2 126/4/2
f 94/3/2 95/3/2 126/3/2
f 85/3/2 125/3/2 127/3/2
f 125/3/2 126/3/2 127/3/2
f 126/3/2 95/3/2 128/3/2
f 127/3/2 126/3/2 128/3/2
f 131/3/3 130/3/3 129/3/3
f 132/3/3 130/3/3 131/3/3
f 133/4/3 132/4/3 131/4/3
f 134/4/3 132/4/3 133/4/3
f 135/3/3 134/3/3 133/3/3
f 136/4/3 132/4/3 134/4/3
f 136/3/3 134/3/3 135/3/3
f 137/4/3 132/4/3 136/4/3
f 138/3/3 135/3/3 133/3/3
f 139/2/3 136/2/3 135/2/3
f 139/3/3 135/3/3 138/3/3
f 139/2/3 137/2/3 136/2/3
f 140/2/3 139/2/3 138/2/3
f 140/2/3 137/2/3 139/2/3
f 141/4/3 132/4/3 137/4/3
f 141/2/3 137/2/3 140/2/3
f 142/3/3 138/3/3 133/3/3
f 143/2/3 140/2/3 138/2/3
f 143/3/3 138/3/3 142/3/3
f 144/2/3 140/2/3 143/2/3
f 145/1/3 141/1/3 140/1/3
f 145/2/3 140/2/3 144/2/3
f 146/3/3 144/3/3 143/3/3
f 146/4/3 143/4/3 142/4/3
f 147/1/3 145/1/3 144/1/3
f 147/3/3 144/3/3 146/3/3
f 148/4/3 132/4/3 141/4/3
f 148/1/3 145/1/3 147/1/3
f 148/1/3 141/1/3 145/1/3
f 149/4/3 147/4/3 146/4/3
f 149/4/3 146/4/3 142/4/3
f 149/4/3 148/4/3 147/4/3
f 150/4/3 148/4/3 149/4/3
f 151/2/3 150/2/3 149/2/3
f 152/4/3 148/4/3 150/4/3
f 152/2/3 150/2/3 151/2/3
f 153/1/3 152/1/3 151/1/3
f 154/4/3 148/4/3 152/4/3
f 154/1/3 152/1/3 153/1/3
f 155/4/3 154/4/3 153/4/3
f 156/4/3 148/4/3 154/4/3
f 156/4/3 154/4/3 155/4/3
f 157/3/3 156/3/3 155/3/3
f 157/4/3 148/4/3 156/4/3
f 158/4/3 148/4/3 157/4/3
f 159/3/3 158/3/3 157/3/3
f 159/4/3 148/4/3 158/4/3
f 160/4/3 132/4/3 148/4/3
f 160/4/3 148/4/3 159/4/3
f 161/3/3 160/3/3 159/3/3
f 162/4/3 132/4/3 160/4/3
f 162/3/3 160/3/3 161/3/3
f 163/2/3 162/2/3 161/2/3
f 163/4/3 132/4/3 162/4/3
f 164/4/3 132/4/3 163/4/3
f 165/3/3 159/3/3 157/3/3
f 165/3/3 161/3/3 159/3/3
f 166/2/3 164/2/3 163/2/3
f 166/3/3 161/3/3 165/3/3
f 166/2/3 163/2/3 161/2/3
f 167/3/3 157/3/3 155/3/3
f 167/3/3 165/3/3 157/3/3
f 168/2/3 166/2/3 165/2/3
f 168/3/3 165/3/3 167/3/3
f 169/2/3 164/2/3 166/2/3
f 169/2/3 166/2/3 168/2/3
f 170/4/3 132/4/3 164/4/3
f 170/2/3 164/2/3 169/2/3
f 171/3/3 167/3/3 155/3/3
f 172/2/3 169/2/3 168/2/3
f 172/3/3 167/3/3 171/3/3
f 172/2/3 168/2/3 167/2/3
f 173/2/3 169/2/3 172/2/3
f 174/1/3 170/1/3 169/1/3
f 174/2/3 169/2/3 173/2/3
f 175/2/3 173/2/3 172/2/3
f 175/2/3 172/2/3 171/2/3
f 176/2/3 173/2/3 175/2/3
f 177/2/3 173/2/3 176/2/3
f 178/1/3 174/1/3 173/1/3
f 178/2/3 173/2/3 177/2/3
f 179/1/3 170/1/3 174/1/3
f 179/1/3 174/1/3 178/1/3
f 180/4/3 132/4/3 170/4/3
f 180/1/3 170/1/3 179/1/3
f 181/2/3 177/2/3 176/2/3
f 181/4/3 176/4/3 175/4/3
f 182/1/3 178/1/3 177/1/3
f 182/2/3 177/2/3 181/2/3
f 182/1/3 179/1/3 178/1/3
f 183/4/3 180/4/3 179/4/3
f 183/1/3 179/1/3 182/1/3
f 184/4/3 181/4/3 175/4/3
f 184/4/3 182/4/3 181/4/3
f 184/4/3 183/4/3 182/4/3
f 185/3/3 130/3/3 132/3/3
f 185/4/3 183/4/3 184/4/3
f 185/4/3 180/4/3 183/4/3
f 185/4/3 132/4/3 180/4/3
f 186/3/3 185/3/3 184/3/3
f 187/3/3 130/3/3 185/3/3
f 187/3/3 185/3/3 186/3/3
f 190/2/3 189/2/3 188/2/3
f 191/2/3 189/2/3 190/2/3
f 194/4/3 193/4/3 192/4/3
f 195/4/3 193/4/3 194/4/3
f 198/1/3 197/1/3 196/1/3
f 199/1/3 197/1/3 198/1/3
f 200/3/3 199/3/3 198/3/3
f 201/3/3 199/3/3 200/3/3
f 202/4/3 201/4/3 200/4/3
f 203/4/3 201/4/3 202/4/3
f 204/3/4 205/3/4 206/3/4
f 206/3/4 205/3/4 207/3/4
f 206/4/4 207/4/4 208/4/4
f 208/4/4 207/4/4 209/4/4
f 208/3/4 209/3/4 210/3/4
f 210/3/4 209/3/4 211/3/4
f 210/4/4 211/4/4 212/4/4
f 212/4/4 211/4/4 213/4/4
f 214/4/4 215/4/4 216/4/4
f 216/4/4 215/4/4 217/4/4
f 218/4/4 219/4/4 220/4/4
f 220/4/4 219/4/4 221/4/4
f 222/3/4 223/3/4 224/3/4
f 224/3/4 223/3/4 225/3/4
f 224/4/4 225/4/4 226/4/4
f 226/4/4 225/4/4 227/4/4
f 226/1/4 227/1/4 228/1/4
f 227/4/4 225/4/4 228/4/4
f 228/4/4 225/4/4 229/4/4
f 226/1/4 228/1/4 230/1/4
f 228/2/4 229/2/4 231/2/4
f 230/1/4 228/1/4 231/1/4
f 230/2/4 231/2/4 232/2/4
f 231/2/4 229/2/4 232/2/4
f 229/4/4 225/4/4 233/4/4
f 232/2/4 229/2/4 233/2/4
f 230/2/4 232/2/4 234/2/4
f 232/4/4 233/4/4 235/4/4
f 234/2/4 232/2/4 235/2/4
f 234/4/4 235/4/4 236/4/4
f 233/4/4 225/4/4 237/4/4
f 236/4/4 235/4/4 237/4/4
f 235/4/4 233/4/4 237/4/4
f 236/2/4 237/2/4 238/2/4
f 237/4/4 225/4/4 238/4/4
f 238/4/4 225/4/4 239/4/4
f 236/2/4 238/2/4 240/2/4
f 238/2/4 239/2/4 240/2/4
f 240/2/4 239/2/4 241/2/4
f 239/4/4 225/4/4 242/4/4
f 241/2/4 239/2/4 242/2/4
f 242/4/4 225/4/4 243/4/4
f 240/3/4 241/3/4 244/3/4
f 241/2/4 242/2/4 244/2/4
f 242/2/4 243/2/4 244/2/4
f 244/2/4 243/2/4 245/2/4
f 243/4/4 225/4/4 246/4/4
f 245/2/4 243/2/4 246/2/4
f 246/4/4 225/4/4 247/4/4
f 244/3/4 245/3/4 248/3/4
f 240/3/4 244/3/4 248/3/4
f 245/1/4 246/1/4 249/1/4
f 248/3/4 245/3/4 249/3/4
f 240/3/4 248/3/4 250/3/4
f 248/1/4 249/1/4 251/1/4
f 250/3/4 248/3/4 251/3/4
f 249/1/4 246/1/4 252/1/4
f 251/1/4 249/1/4 252/1/4
f 246/2/4 247/2/4 253/2/4
f 252/1/4 246/1/4 253/1/4
f 251/1/4 252/1/4 254/1/4
f 250/2/4 251/2/4 254/2/4
f 252/2/4 253/2/4 255/2/4
f 254/1/4 252/1/4 255/1/4
f 253/2/4 247/2/4 256/2/4
f 255/2/4 253/2/4 256/2/4
f 247/4/4 225/4/4 257/4/4
f 256/2/4 247/2/4 257/2/4
f 255/2/4 256/2/4 258/2/4
f 254/2/4 255/2/4 258/2/4
f 256/4/4 257/4/4 259/4/4
f 258/2/4 256/2/4 259/2/4
f 254/2/4 258/2/4 260/2/4
f 250/2/4 254/2/4 260/2/4
f 258/4/4 259/4/4 261/4/4
f 260/2/4 258/2/4 261/2/4
f 260/4/4 261/4/4 262/4/4
f 225/3/4 223/3/4 263/3/4
f 262/4/4 261/4/4 263/4/4
f 257/4/4 225/4/4 263/4/4
f 261/4/4 259/4/4 263/4/4
f 259/4/4 257/4/4 263/4/4
f 262/3/4 263/3/4 264/3/4
f 263/3/4 223/3/4 265/3/4
f 264/3/4 263/3/4 265/3/4
f 278/3/5 267/3/5 266/3/5
f 279/4/5 268/4/5 267/4/5
f 279/3/5 267/3/5 278/3/5
f 280/3/5 269/3/5 268/3/5
f 280/4/5 268/4/5 279/4/5
f 281/4/5 270/4/5 269/4/5
f 281/3/5 269/3/5 280/3/5
f 282/2/5 271/2/5 270/2/5
f 282/4/5 270/4/5 281/4/5
f 283/1/5 272/1/5 271/1/5
f 283/2/5 271/2/5 282/2/5
f 284/4/5 273/4/5 272/4/5
f 284/1/5 272/1/5 283/1/5
f 285/3/5 274/3/5 273/3/5
f 285/4/5 273/4/5 284/4/5
f 286/2/5 275/2/5 274/2/5
f 286/3/5 274/3/5 285/3/5
f 287/4/5 276/4/5 275/4/5
f 287/2/5 275/2/5 286/2/5
f 288/3/5 277/3/5 276/3/5
f 288/4/5 276/4/5 287/4/5
f 289/3/5 277/3/5 288/3/5
f 290/3/5 278/3/5 266/3/5
f 291/4/5 287/4/5 286/4/5
f 291/3/5 278/3/5 290/3/5
f 291/4/5 279/4/5 278/4/5
f 291/4/5 289/4/5 288/4/5
f 291/4/5 288/4/5 287/4/5
f 291/4/5 286/4/5 285/4/5
f 291/4/5 285/4/5 284/4/5
f 291/4/5 284/4/5 283/4/5
f 291/4/5 283/4/5 282/4/5
f 291/4/5 282/4/5 281/4/5
f 291/4/5 281/4/5 280/4/5
f 291/4/5 280/4/5 279/4/5
f 292/3/5 277/3/5 289/3/5
f 292/4/5 289/4/5 291/4/5
f 293/3/5 277/3/5 292/3/5
f 294/4/5 291/4/5 290/4/5
f 294/4/5 292/4/5 291/4/5
f 294/4/5 293/4/5 292/4/5
f 295/4/5 293/4/5 294/4/5
f 296/4/5 294/4/5 290/4/5
f 296/2/5 295/2/5 294/2/5
f 297/2/5 295/2/5 296/2/5
f 298/4/5 296/4/5 290/4/5
f 299/4/5 296/4/5 298/4/5
f 300/1/5 299/1/5 298/1/5
f 301/4/5 296/4/5 299/4/5
f 301/1/5 299/1/5 300/1/5
f 302/3/5 297/3/5 296/3/5
f 302/4/5 296/4/5 301/4/5
f 303/3/5 297/3/5 302/3/5
f 304/2/5 301/2/5 300/2/5
f 305/4/5 302/4/5 301/4/5
f 305/2/5 301/2/5 304/2/5
f 306/2/5 303/2/5 302/2/5
f 306/4/5 302/4/5 305/4/5
f 306/4/5 305/4/5 304/4/5
f 307/2/5 303/2/5 306/2/5
f 308/4/5 306/4/5 304/4/5
f 308/4/5 307/4/5 306/4/5
f 309/4/5 307/4/5 308/4/5
f 310/4/5 307/4/5 309/4/5
f 311/4/5 307/4/5 310/4/5
f 312/2/5 309/2/5 308/2/5
f 313/4/5 310/4/5 309/4/5
f 313/2/5 309/2/5 312/2/5
f 314/2/5 311/2/5 310/2/5
f 314/4/5 310/4/5 313/4/5
f 315/2/5 311/2/5 314/2/5
f 316/4/5 314/4/5 313/4/5
f 316/1/5 315/1/5 314/1/5
f 317/1/5 315/1/5 316/1/5
f 318/3/5 313/3/5 312/3/5
f 319/4/5 316/4/5 313/4/5
f 319/3/5 313/3/5 318/3/5
f 319/4/5 317/4/5 316/4/5
f 320/2/5 319/2/5 318/2/5
f 321/4/5 317/4/5 319/4/5
f 321/2/5 319/2/5 320/2/5
f 322/4/5 321/4/5 320/4/5
f 323/4/5 317/4/5 321/4/5
f 323/4/5 321/4/5 322/4/5
f 324/4/5 317/4/5 323/4/5
f 325/4/5 317/4/5 324/4/5
f 326/3/5 323/3/5 322/3/5
f 326/4/5 324/4/5 323/4/5
f 327/4/5 324/4/5 326/4/5
f 328/4/5 324/4/5 327/4/5
f 329/4/5 324/4/5 328/4/5
f 330/4/5 324/4/5 329/4/5
f 331/4/5 324/4/5 330/4/5
f 332/4/5 324/4/5 331/4/5
f 333/4/5 324/4/5 332/4/5
f 334/4/5 324/4/5 333/4/5
f 335/4/5 324/4/5 334/4/5
f 336/3/5 325/3/5 324/3/5
f 336/4/5 324/4/5 335/4/5
f 337/3/5 326/3/5 322/3/5
f 337/3/5 327/3/5 326/3/5
f 338/4/5 328/4/5 327/4/5
f 338/3/5 327/3/5 337/3/5
f 339/1/5 329/1/5 328/1/5
f 339/4/5 328/4/5 338/4/5
f 340/2/5 330/2/5 329/2/5
f 340/1/5 329/1/5 339/1/5
f 341/4/5 331/4/5 330/4/5
f 341/2/5 330/2/5 340/2/5
f 342/2/5 332/2/5 331/2/5
f 342/4/5 331/4/5 341/4/5
f 343/3/5 333/3/5 332/3/5
f 343/2/5 332/2/5 342/2/5
f 344/2/5 334/2/5 333/2/5
f 344/3/5 333/3/5 343/3/5
f 345/4/5 335/4/5 334/4/5
f 345/2/5 334/2/5 344/2/5
f 346/3/5 336/3/5 335/3/5
f 346/4/5 335/4/5 345/4/5
f 347/3/5 325/3/5 336/3/5
f 347/3/5 336/3/5 346/3/5
f 348/4/6 349/4/6 354/4/6
f 351/4/6 352/4/6 354/4/6
f 350/4/6 351/4/6 354/4/6
f 349/4/6 350/4/6 354/4/6
f 354/4/6 352/4/6 355/4/6
f 353/4/6 354/4/6 357/4/6
f 355/4/6 356/4/6 357/4/6
f 354/4/6 355/4/6 357/4/6
f 353/4/6 357/4/6 358/4/6
f 353/4/6 358/4/6 359/4/6
f 353/4/6 359/4/6 360/4/6
f 353/4/6 360/4/6 361/4/6
f 353/4/6 361/4/6 362/4/6
f 353/4/6 362/4/6 363/4/6
f 353/4/6 363/4/6 364/4/6
f 364/4/6 363/4/6 365/4/6
f 365/4/6 363/4/6 366/4/6
f 366/4/6 363/4/6 367/4/6
f 367/4/6 363/4/6 368/4/6
f 366/4/6 367/4/6 369/4/6
f 369/4/6 367/4/6 370/4/6
f 370/4/6 367/4/6 371/4/6
f 371/4/6 367/4/6 372/4/6
f 373/3/6 374/3/6 375/3/6
f 375/3/6 374/3/6 376/3/6
f 376/3/6 374/3/6 377/3/6
f 377/3/6 374/3/6 378/3/6
f 378/3/6 374/3/6 379/3/6
f 379/3/6 374/3/6 380/3/6
f 375/4/6 376/4/6 381/4/6
f 376/3/6 377/3/6 381/3/6
f 381/3/6 377/3/6 382/3/6
f 377/4/6 378/4/6 383/4/6
f 382/3/6 377/3/6 383/3/6
f 383/4/6 378/4/6 384/4/6
f 378/3/6 379/3/6 385/3/6
f 384/4/6 378/4/6 385/4/6
f 385/3/6 379/3/6 386/3/6
f 379/4/6 380/4/6 387/4/6
f 386/3/6 379/3/6 387/3/6
f 387/4/6 380/4/6 388/4/6
f 381/4/6 382/4/6 389/4/6
f 383/3/6 384/3/6 389/3/6
f 382/3/6 383/3/6 389/3/6
f 389/3/6 384/3/6 390/3/6
f 385/4/6 386/4/6 391/4/6
f 390/3/6 384/3/6 391/3/6
f 384/4/6 385/4/6 391/4/6
f 387/3/6 388/3/6 392/3/6
f 391/4/6 386/4/6 392/4/6
f 386/3/6 387/3/6 392/3/6
f 388/4/6 380/4/6 393/4/6
f 392/3/6 388/3/6 393/3/6
f 393/4/6 380/4/6 394/4/6
f 389/4/6 390/4/6 395/4/6
f 381/4/6 389/4/6 395/4/6
f 375/4/6 381/4/6 395/4/6
f 395/4/6 390/4/6 396/4/6
f 394/4/6 380/4/6 397/4/6
f 397/4/6 380/4/6 398/4/6
f 398/4/6 380/4/6 399/4/6
f 399/4/6 380/4/6 400/4/6
f 399/1/6 400/1/6 401/1/6
f 400/4/6 380/4/6 402/4/6
f 401/1/6 400/1/6 402/1/6
f 380/3/6 374/3/6 403/3/6
f 402/4/6 380/4/6 403/4/6
f 401/3/6 402/3/6 404/3/6
f 402/3/6 403/3/6 404/3/6
f 404/3/6 403/3/6 405/3/6
f 404/4/6 405/4/6 406/4/6
f 405/3/6 403/3/6 406/3/6
f 403/3/6 374/3/6 407/3/6
f 406/3/6 403/3/6 407/3/6
f 404/4/6 406/4/6 408/4/6
f 406/4/6 407/4/6 408/4/6
f 408/4/6 407/4/6 409/4/6
f 408/3/6 409/3/6 410/3/6
f 409/4/6 407/4/6 410/4/6
f 407/3/6 374/3/6 411/3/6
f 410/4/6 407/4/6 411/4/6
f 408/3/6 410/3/6 412/3/6
f 410/3/6 411/3/6 412/3/6
f 412/3/6 411/3/6 413/3/6
f 412/2/6 413/2/6 414/2/6
f 413/3/6 411/3/6 414/3/6
f 411/3/6 374/3/6 415/3/6
f 414/3/6 411/3/6 415/3/6
f 412/2/6 414/2/6 416/2/6
f 414/2/6 415/2/6 416/2/6
f 416/2/6 415/2/6 417/2/6
f 416/1/6 417/1/6 418/1/6
f 417/2/6 415/2/6 418/2/6
f 415/3/6 374/3/6 419/3/6
f 418/2/6 415/2/6 419/2/6
f 416/1/6 418/1/6 420/1/6
f 418/1/6 419/1/6 420/1/6
f 419/3/6 374/3/6 421/3/6
f 420/1/6 419/1/6 421/1/6
f 416/1/6 420/1/6 422/1/6
f 420/3/6 421/3/6 423/3/6
f 422/1/6 420/1/6 423/1/6
f 373/3/6 375/3/6 424/3/6
f 375/4/6 395/4/6 424/4/6
f 424/4/6 395/4/6 425/4/6
f 424/3/6 425/3/6 426/3/6
f 425/4/6 395/4/6 426/4/6
f 426/4/6 395/4/6 427/4/6
f 424/3/6 426/3/6 428/3/6
f 426/3/6 427/3/6 428/3/6
f 428/3/6 427/3/6 429/3/6
f 422/3/6 423/3/6 432/3/6
f 373/3/6 424/3/6 433/3/6
f 424/3/6 428/3/6 433/3/6
f 429/2/6 430/2/6 434/2/6
f 433/3/6 428/3/6 434/3/6
f 428/2/6 429/2/6 434/2/6
f 434/2/6 430/2/6 435/2/6
f 431/4/6 432/4/6 436/4/6
f 432/3/6 423/3/6 436/3/6
f 423/3/6 421/3/6 437/3/6
f 436/3/6 423/3/6 437/3/6
f 434/3/6 435/3/6 438/3/6
f 433/4/6 434/4/6 438/4/6
f 435/2/6 430/2/6 439/2/6
f 438/3/6 435/3/6 439/3/6
f 439/2/6 430/2/6 440/2/6
f 440/2/6 430/2/6 441/2/6
f 431/4/6 436/4/6 444/4/6
f 436/4/6 437/4/6 444/4/6
f 437/3/6 421/3/6 445/3/6
f 444/4/6 437/4/6 445/4/6
f 421/3/6 374/3/6 446/3/6
f 445/3/6 421/3/6 446/3/6
f 438/4/6 439/4/6 447/4/6
f 439/2/6 440/2/6 447/2/6
f 441/1/6 442/1/6 448/1/6
f 447/2/6 440/2/6 448/2/6
f 440/1/6 441/1/6 448/1/6
f 442/3/6 443/3/6 449/3/6
f 448/1/6 442/1/6 449/1/6
f 444/4/6 445/4/6 450/4/6
f 449/3/6 443/3/6 450/3/6
f 443/4/6 444/4/6 450/4/6
f 445/4/6 446/4/6 450/4/6
f 450/4/6 446/4/6 451/4/6
f 447/4/6 448/4/6 452/4/6
f 373/3/6 433/3/6 452/3/6
f 433/4/6 438/4/6 452/4/6
f 438/4/6 447/4/6 452/4/6
f 448/3/6 449/3/6 453/3/6
f 452/4/6 448/4/6 453/4/6
f 450/3/6 451/3/6 453/3/6
f 449/3/6 450/3/6 453/3/6
f 451/4/6 446/4/6 454/4/6
f 453/3/6 451/3/6 454/3/6
f 446/3/6 374/3/6 455/3/6
f 454/4/6 446/4/6 455/4/6
f 452/3/6 453/3/6 456/3/6
f 373/3/6 452/3/6 456/3/6
f 454/3/6 455/3/6 456/3/6
f 453/3/6 454/3/6 456/3/6
f 455/3/6 374/3/6 457/3/6
f 456/3/6 455/3/6 457/3/6
