# MagicaVoxel @ Ephtracy

# group
o 

# material
mtllib cubito_lava_corner.mtl
usemtl palette

# normals
vn -1 0 0
vn 1 0 0
vn 0 0 1
vn 0 0 -1
vn 0 -1 0
vn 0 1 0

# texcoords
vt 0.556641 0.5
vt 0.978516 0.5
vt 0.982422 0.5
vt 0.986328 0.5

# verts
v -2 3 2
v -2 3 1.7
v -2 3 1.4
v -2 3 0.8
v -2 3 0.6
v -2 3 -2
v -2 3.1 1.7
v -2 3.1 1.6
v -2 3.1 1.4
v -2 3.1 1.3
v -2 3.1 0.6
v -2 3.1 0.5
v -2 3.1 -1
v -2 3.1 -1.3
v -2 3.3 0.8
v -2 3.3 0.7
v -2 3.3 0.6
v -2 3.3 0.5
v -2 3.3 -1.3
v -2 3.3 -1.4
v -2 3.3 -1.5
v -2 3.4 1.4
v -2 3.4 1.3
v -2 3.4 0.7
v -2 3.4 0.6
v -2 3.4 -1
v -2 3.4 -1.1
v -2 3.4 -1.2
v -2 3.4 -1.4
v -2 3.5 1.7
v -2 3.5 1.6
v -2 3.5 -1.1
v -2 3.5 -1.2
v -2 3.5 -1.5
v -2 3.5 -1.7
v -2 3.6 1.5
v -2 3.6 1.4
v -2 3.6 -1.2
v -2 3.6 -1.3
v -2 3.7 -1.3
v -2 3.7 -1.4
v -2 4 2
v -2 4 1.7
v -2 4 1.5
v -2 4 -1.4
v -2 4 -1.7
v -2 4 -2
v 1.5 3.9 1.6
v 1.5 3.9 1.4
v 1.5 3.9 -1.4
v 1.5 3.9 -1.6
v 1.5 4 1.6
v 1.5 4 1.4
v 1.5 4 -1.4
v 1.5 4 -1.6
v 1.7 3.9 1.4
v 1.7 3.9 -0.6
v 1.7 3.9 -0.9
v 1.7 3.9 -1.4
v 1.7 4 1.4
v 1.7 4 -0.6
v 1.7 4 -0.9
v 1.7 4 -1.4
v -1.6 3.9 1.4
v -1.6 3.9 -0.9
v -1.6 3.9 -1.2
v -1.6 3.9 -1.4
v -1.6 4 1.4
v -1.6 4 -0.9
v -1.6 4 -1.2
v -1.6 4 -1.4
v -1.4 3.9 1.6
v -1.4 3.9 1.4
v -1.4 3.9 -1.4
v -1.4 3.9 -1.6
v -1.4 4 1.6
v -1.4 4 1.4
v -1.4 4 -1.4
v -1.4 4 -1.6
v 2 3 2
v 2 3 -0.6
v 2 3 -0.8
v 2 3 -1.4
v 2 3 -1.7
v 2 3 -2
v 2 3.1 1.3
v 2 3.1 1
v 2 3.1 -0.5
v 2 3.1 -0.6
v 2 3.1 -1.3
v 2 3.1 -1.4
v 2 3.1 -1.6
v 2 3.1 -1.7
v 2 3.2 -0.8
v 2 3.2 -0.9
v 2 3.3 1.5
v 2 3.3 1.4
v 2 3.3 1.3
v 2 3.4 1.4
v 2 3.4 1.2
v 2 3.4 1.1
v 2 3.4 1
v 2 3.4 -0.5
v 2 3.4 -0.7
v 2 3.4 -1.3
v 2 3.4 -1.4
v 2 3.5 1.7
v 2 3.5 1.5
v 2 3.5 1.2
v 2 3.5 1.1
v 2 3.5 -1.6
v 2 3.5 -1.7
v 2 3.6 1.3
v 2 3.6 1.2
v 2 3.6 -1.4
v 2 3.6 -1.5
v 2 3.7 1.4
v 2 3.7 1.3
v 2 3.7 -0.6
v 2 3.7 -0.7
v 2 3.7 -0.8
v 2 3.7 -0.9
v 2 3.7 -1.5
v 2 3.7 -1.6
v 2 3.8 -0.5
v 2 3.8 -0.6
v 2 4 2
v 2 4 1.7
v 2 4 1.4
v 2 4 -0.5
v 2 4 -0.8
v 2 4 -2
v -2 3 2
v -2 4 2
v -1.6 3.5 2
v -1.6 4 2
v -1.5 3.3 2
v -1.5 3.5 2
v -1.4 3.3 2
v -1.4 3.4 2
v -1.4 3.7 2
v -1.4 4 2
v -1.3 3.1 2
v -1.3 3.3 2
v -1.3 3.6 2
v -1.3 3.7 2
v -1.2 3.4 2
v -1.2 3.5 2
v -1.2 3.6 2
v -1.1 3.4 2
v -1.1 3.5 2
v -1 3.1 2
v -1 3.4 2
v 0.5 3.1 2
v 0.5 3.4 2
v 0.5 3.8 2
v 0.5 4 2
v 0.6 3 2
v 0.6 3.1 2
v 0.6 3.7 2
v 0.6 3.8 2
v 0.7 3.4 2
v 0.7 3.7 2
v 0.8 3 2
v 0.8 3.2 2
v 0.8 3.7 2
v 0.8 4 2
v 0.9 3.2 2
v 0.9 3.7 2
v 1.3 3.1 2
v 1.3 3.4 2
v 1.4 3 2
v 1.4 3.1 2
v 1.4 3.4 2
v 1.4 3.6 2
v 1.5 3.6 2
v 1.5 3.7 2
v 1.6 3.1 2
v 1.6 3.5 2
v 1.6 3.7 2
v 1.6 4 2
v 1.7 3 2
v 1.7 3.1 2
v 1.7 3.5 2
v 1.7 3.6 2
v 1.8 3.6 2
v 1.8 3.9 2
v 1.9 3.9 2
v 1.9 4 2
v 2 3 2
v 2 4 2
v -1.6 3.9 -1.4
v -1.6 4 -1.4
v -1.4 3.9 -1.4
v -1.4 4 -1.4
v 1.5 3.9 -1.4
v 1.5 4 -1.4
v 1.7 3.9 -1.4
v 1.7 4 -1.4
v -1.4 3.9 -1.6
v -1.4 4 -1.6
v -1.1 3.9 -1.6
v -1.1 4 -1.6
v -1 3.9 -1.6
v -1 4 -1.6
v -0.9 3.9 -1.6
v -0.9 4 -1.6
v 1 3.9 -1.6
v 1 4 -1.6
v 1.3 3.9 -1.6
v 1.3 4 -1.6
v 1.5 3.9 -1.6
v 1.5 4 -1.6
v -1.4 3.9 1.6
v -1.4 4 1.6
v 0.9 3.9 1.6
v 0.9 4 1.6
v 1.5 3.9 1.6
v 1.5 4 1.6
v -1.6 3.9 1.4
v -1.6 4 1.4
v -1.5 3.9 1.4
v -1.5 4 1.4
v -1.4 3.9 1.4
v -1.4 4 1.4
v 1.5 3.9 1.4
v 1.5 4 1.4
v 1.7 3.9 1.4
v 1.7 4 1.4
v -2 3 -2
v -2 4 -2
v -1.7 3 -2
v -1.7 3.1 -2
v -1.7 3.5 -2
v -1.7 4 -2
v -1.6 3.1 -2
v -1.6 3.5 -2
v -1.5 3.6 -2
v -1.5 3.9 -2
v -1.4 3 -2
v -1.4 3.1 -2
v -1.4 3.4 -2
v -1.4 3.6 -2
v -1.3 3.1 -2
v -1.3 3.4 -2
v -1.3 3.9 -2
v -1.3 4 -2
v -0.9 3.8 -2
v -0.9 4 -2
v -0.8 3 -2
v -0.8 3.3 -2
v -0.8 3.6 -2
v -0.8 3.8 -2
v -0.7 3.3 -2
v -0.7 3.6 -2
v -0.7 3.9 -2
v -0.7 4 -2
v -0.6 3 -2
v -0.6 3.1 -2
v -0.6 3.5 -2
v -0.6 3.9 -2
v -0.5 3.1 -2
v -0.5 3.5 -2
v 1 3.1 -2
v 1 3.4 -2
v 1.1 3.4 -2
v 1.1 3.5 -2
v 1.2 3.4 -2
v 1.2 3.5 -2
v 1.2 3.6 -2
v 1.3 3.1 -2
v 1.3 3.3 -2
v 1.3 3.6 -2
v 1.3 3.7 -2
v 1.4 3.3 -2
v 1.4 3.4 -2
v 1.4 3.7 -2
v 1.4 4 -2
v 1.5 3.3 -2
v 1.5 3.5 -2
v 1.7 3.5 -2
v 1.7 4 -2
v 2 3 -2
v 2 4 -2
v -2 3 2
v 0.6 3 2
v 0.8 3 2
v 1.4 3 2
v 1.7 3 2
v 2 3 2
v -1.9 3 1.9
v 0.6 3 1.9
v 0.8 3 1.9
v 1.4 3 1.9
v 1.7 3 1.9
v 1.9 3 1.9
v -2 3 1.7
v -1.9 3 1.7
v -2 3 1.4
v -1.9 3 1.4
v -2 3 0.8
v -1.9 3 0.8
v -2 3 0.6
v -1.9 3 0.6
v 1.9 3 -0.6
v 2 3 -0.6
v 1.9 3 -0.8
v 2 3 -0.8
v 1.9 3 -1.4
v 2 3 -1.4
v 1.9 3 -1.7
v 2 3 -1.7
v -1.9 3 -1.9
v -1.7 3 -1.9
v -1.4 3 -1.9
v -0.8 3 -1.9
v -0.6 3 -1.9
v 1.9 3 -1.9
v -2 3 -2
v -1.7 3 -2
v -1.4 3 -2
v -0.8 3 -2
v -0.6 3 -2
v 2 3 -2
v -1.4 3.9 1.6
v 0.9 3.9 1.6
v 1.5 3.9 1.6
v -1.6 3.9 1.4
v -1.5 3.9 1.4
v -1.4 3.9 1.4
v 1.5 3.9 1.4
v 1.7 3.9 1.4
v 1.7 3.9 -0.6
v -1.6 3.9 -0.9
v 1.7 3.9 -0.9
v -1.6 3.9 -1.2
v -1.6 3.9 -1.4
v -1.4 3.9 -1.4
v 1.5 3.9 -1.4
v 1.7 3.9 -1.4
v -1.4 3.9 -1.6
v -1.1 3.9 -1.6
v -1 3.9 -1.6
v -0.9 3.9 -1.6
v 1 3.9 -1.6
v 1.3 3.9 -1.6
v 1.5 3.9 -1.6
v -2 4 2
v -1.6 4 2
v -1.4 4 2
v 0.5 4 2
v 0.8 4 2
v 1.6 4 2
v 1.9 4 2
v 2 4 2
v 0.5 4 1.9
v 0.7 4 1.9
v 0.8 4 1.9
v 0.9 4 1.9
v 1.8 4 1.9
v 1.9 4 1.9
v 0.7 4 1.8
v 0.8 4 1.8
v 0.9 4 1.8
v 1.1 4 1.8
v 1.5 4 1.8
v 1.6 4 1.8
v -2 4 1.7
v -1.6 4 1.7
v 0.8 4 1.7
v 0.9 4 1.7
v 1.1 4 1.7
v 1.5 4 1.7
v 1.6 4 1.7
v 1.8 4 1.7
v 2 4 1.7
v -1.8 4 1.6
v -1.7 4 1.6
v -1.4 4 1.6
v 0.9 4 1.6
v 1.5 4 1.6
v 1.6 4 1.6
v 1.7 4 1.6
v -2 4 1.5
v -1.8 4 1.5
v -1.7 4 1.5
v -1.5 4 1.5
v 1.7 4 1.5
v 1.9 4 1.5
v -1.6 4 1.4
v -1.5 4 1.4
v -1.4 4 1.4
v 1.5 4 1.4
v 1.7 4 1.4
v 1.9 4 1.4
v 2 4 1.4
v 1.9 4 -0.5
v 2 4 -0.5
v 1.7 4 -0.6
v 1.9 4 -0.6
v 1.8 4 -0.8
v 2 4 -0.8
v -1.7 4 -0.9
v -1.6 4 -0.9
v 1.7 4 -0.9
v 1.8 4 -0.9
v -1.8 4 -1
v -1.7 4 -1
v -1.9 4 -1.1
v -1.8 4 -1.1
v -1.7 4 -1.2
v -1.6 4 -1.2
v -2 4 -1.4
v -1.9 4 -1.4
v -1.6 4 -1.4
v -1.4 4 -1.4
v 1.5 4 -1.4
v 1.7 4 -1.4
v -1.8 4 -1.5
v -1.7 4 -1.5
v -1.9 4 -1.6
v -1.8 4 -1.6
v -1.4 4 -1.6
v -1.1 4 -1.6
v -1 4 -1.6
v -0.9 4 -1.6
v 1 4 -1.6
v 1.3 4 -1.6
v 1.5 4 -1.6
v -2 4 -1.7
v -1.9 4 -1.7
v -1.2 4 -1.7
v -1.1 4 -1.7
v -1 4 -1.7
v 1 4 -1.7
v 1.1 4 -1.7
v 1.3 4 -1.7
v 1.6 4 -1.7
v -1.5 4 -1.8
v -1.3 4 -1.8
v -1.2 4 -1.8
v -1.1 4 -1.8
v -0.9 4 -1.8
v -0.8 4 -1.8
v 1.1 4 -1.8
v 1.3 4 -1.8
v 1.6 4 -1.8
v 1.7 4 -1.8
v -1.7 4 -1.9
v -1.5 4 -1.9
v -1.3 4 -1.9
v -0.9 4 -1.9
v -0.8 4 -1.9
v -0.7 4 -1.9
v 1.3 4 -1.9
v 1.4 4 -1.9
v -2 4 -2
v -1.7 4 -2
v -1.3 4 -2
v -0.9 4 -2
v -0.7 4 -2
v 1.4 4 -2
v 1.7 4 -2
v 2 4 -2

# faces
f 7/2/1 2/2/1 1/2/1
f 7/3/1 3/3/1 2/3/1
f 8/3/1 3/3/1 7/3/1
f 9/2/1 4/2/1 3/2/1
f 9/3/1 3/3/1 8/3/1
f 10/2/1 4/2/1 9/2/1
f 11/2/1 6/2/1 5/2/1
f 11/3/1 5/3/1 4/3/1
f 12/2/1 6/2/1 11/2/1
f 13/2/1 6/2/1 12/2/1
f 14/2/1 6/2/1 13/2/1
f 15/2/1 4/2/1 10/2/1
f 15/3/1 11/3/1 4/3/1
f 15/3/1 12/3/1 11/3/1
f 16/3/1 12/3/1 15/3/1
f 17/3/1 12/3/1 16/3/1
f 18/2/1 13/2/1 12/2/1
f 18/3/1 12/3/1 17/3/1
f 19/2/1 6/2/1 14/2/1
f 19/4/1 14/4/1 13/4/1
f 20/2/1 6/2/1 19/2/1
f 21/2/1 6/2/1 20/2/1
f 22/3/1 10/3/1 9/3/1
f 22/3/1 9/3/1 8/3/1
f 23/2/1 15/2/1 10/2/1
f 23/3/1 10/3/1 22/3/1
f 23/2/1 16/2/1 15/2/1
f 24/3/1 17/3/1 16/3/1
f 24/2/1 16/2/1 23/2/1
f 25/2/1 18/2/1 17/2/1
f 25/3/1 17/3/1 24/3/1
f 26/2/1 13/2/1 18/2/1
f 26/2/1 18/2/1 25/2/1
f 26/4/1 20/4/1 19/4/1
f 26/4/1 19/4/1 13/4/1
f 27/4/1 20/4/1 26/4/1
f 28/4/1 20/4/1 27/4/1
f 29/3/1 21/3/1 20/3/1
f 29/4/1 20/4/1 28/4/1
f 30/4/1 8/4/1 7/4/1
f 30/2/1 7/2/1 1/2/1
f 31/3/1 22/3/1 8/3/1
f 31/4/1 8/4/1 30/4/1
f 32/2/1 25/2/1 24/2/1
f 32/4/1 28/4/1 27/4/1
f 32/2/1 24/2/1 23/2/1
f 32/2/1 27/2/1 26/2/1
f 32/2/1 26/2/1 25/2/1
f 32/2/1 23/2/1 22/2/1
f 33/3/1 29/3/1 28/3/1
f 33/4/1 28/4/1 32/4/1
f 34/2/1 6/2/1 21/2/1
f 34/3/1 29/3/1 33/3/1
f 34/3/1 21/3/1 29/3/1
f 35/2/1 6/2/1 34/2/1
f 36/3/1 22/3/1 31/3/1
f 36/3/1 31/3/1 30/3/1
f 37/2/1 33/2/1 32/2/1
f 37/3/1 22/3/1 36/3/1
f 37/2/1 32/2/1 22/2/1
f 38/3/1 34/3/1 33/3/1
f 38/2/1 33/2/1 37/2/1
f 38/3/1 35/3/1 34/3/1
f 39/3/1 35/3/1 38/3/1
f 40/2/1 37/2/1 36/2/1
f 40/3/1 35/3/1 39/3/1
f 40/2/1 39/2/1 38/2/1
f 40/2/1 38/2/1 37/2/1
f 41/3/1 35/3/1 40/3/1
f 42/2/1 30/2/1 1/2/1
f 43/3/1 36/3/1 30/3/1
f 43/2/1 30/2/1 42/2/1
f 44/2/1 40/2/1 36/2/1
f 44/3/1 36/3/1 43/3/1
f 44/2/1 41/2/1 40/2/1
f 45/3/1 35/3/1 41/3/1
f 45/2/1 41/2/1 44/2/1
f 46/2/1 6/2/1 35/2/1
f 46/3/1 35/3/1 45/3/1
f 47/2/1 6/2/1 46/2/1
f 52/2/1 49/2/1 48/2/1
f 53/2/1 49/2/1 52/2/1
f 54/2/1 51/2/1 50/2/1
f 55/2/1 51/2/1 54/2/1
f 60/2/1 57/2/1 56/2/1
f 61/3/1 58/3/1 57/3/1
f 61/2/1 57/2/1 60/2/1
f 62/2/1 59/2/1 58/2/1
f 62/3/1 58/3/1 61/3/1
f 63/2/1 59/2/1 62/2/1
f 64/2/2 65/2/2 68/2/2
f 65/3/2 66/3/2 69/3/2
f 68/2/2 65/2/2 69/2/2
f 66/2/2 67/2/2 70/2/2
f 69/3/2 66/3/2 70/3/2
f 70/2/2 67/2/2 71/2/2
f 72/3/2 73/3/2 76/3/2
f 76/3/2 73/3/2 77/3/2
f 74/2/2 75/2/2 78/2/2
f 78/2/2 75/2/2 79/2/2
f 80/2/2 81/2/2 86/2/2
f 86/2/2 81/2/2 87/2/2
f 87/2/2 81/2/2 88/2/2
f 81/3/2 82/3/2 89/3/2
f 88/2/2 81/2/2 89/2/2
f 82/2/2 83/2/2 90/2/2
f 83/3/2 84/3/2 91/3/2
f 90/2/2 83/2/2 91/2/2
f 91/3/2 84/3/2 92/3/2
f 84/2/2 85/2/2 93/2/2
f 92/3/2 84/3/2 93/3/2
f 89/3/2 82/3/2 94/3/2
f 82/2/2 90/2/2 94/2/2
f 88/3/2 89/3/2 94/3/2
f 94/2/2 90/2/2 95/2/2
f 80/2/2 86/2/2 96/2/2
f 96/2/2 86/2/2 97/2/2
f 86/4/2 87/4/2 98/4/2
f 97/2/2 86/2/2 98/2/2
f 96/3/2 97/3/2 99/3/2
f 97/4/2 98/4/2 99/4/2
f 98/4/2 87/4/2 100/4/2
f 99/4/2 98/4/2 100/4/2
f 100/4/2 87/4/2 101/4/2
f 87/2/2 88/2/2 102/2/2
f 101/4/2 87/4/2 102/4/2
f 88/3/2 94/3/2 103/3/2
f 102/2/2 88/2/2 103/2/2
f 94/3/2 95/3/2 103/3/2
f 103/3/2 95/3/2 104/3/2
f 91/3/2 92/3/2 105/3/2
f 95/2/2 90/2/2 105/2/2
f 90/3/2 91/3/2 105/3/2
f 105/3/2 92/3/2 106/3/2
f 80/2/2 96/2/2 107/2/2
f 96/3/2 99/3/2 108/3/2
f 107/2/2 96/2/2 108/2/2
f 99/3/2 100/3/2 108/3/2
f 100/4/2 101/4/2 109/4/2
f 108/3/2 100/3/2 109/3/2
f 103/2/2 104/2/2 110/2/2
f 109/4/2 101/4/2 110/4/2
f 102/2/2 103/2/2 110/2/2
f 101/2/2 102/2/2 110/2/2
f 92/4/2 93/4/2 111/4/2
f 106/3/2 92/3/2 111/3/2
f 93/2/2 85/2/2 112/2/2
f 111/4/2 93/4/2 112/4/2
f 107/3/2 108/3/2 113/3/2
f 108/3/2 109/3/2 113/3/2
f 109/2/2 110/2/2 114/2/2
f 113/3/2 109/3/2 114/3/2
f 106/3/2 111/3/2 115/3/2
f 105/2/2 106/2/2 115/2/2
f 115/3/2 111/3/2 116/3/2
f 107/3/2 113/3/2 117/3/2
f 113/2/2 114/2/2 118/2/2
f 117/3/2 113/3/2 118/3/2
f 114/2/2 110/2/2 119/2/2
f 118/2/2 114/2/2 119/2/2
f 110/2/2 104/2/2 119/2/2
f 104/3/2 95/3/2 120/3/2
f 119/2/2 104/2/2 120/2/2
f 120/3/2 95/3/2 121/3/2
f 115/2/2 116/2/2 122/2/2
f 121/3/2 95/3/2 122/3/2
f 95/2/2 105/2/2 122/2/2
f 105/2/2 115/2/2 122/2/2
f 116/3/2 111/3/2 123/3/2
f 122/2/2 116/2/2 123/2/2
f 111/2/2 112/2/2 124/2/2
f 123/3/2 111/3/2 124/3/2
f 118/2/2 119/2/2 125/2/2
f 117/2/2 118/2/2 125/2/2
f 120/3/2 121/3/2 126/3/2
f 125/2/2 119/2/2 126/2/2
f 119/3/2 120/3/2 126/3/2
f 80/2/2 107/2/2 127/2/2
f 107/3/2 117/3/2 128/3/2
f 127/2/2 107/2/2 128/2/2
f 117/2/2 125/2/2 129/2/2
f 128/3/2 117/3/2 129/3/2
f 125/3/2 126/3/2 130/3/2
f 129/2/2 125/2/2 130/2/2
f 123/2/2 124/2/2 131/2/2
f 130/3/2 126/3/2 131/3/2
f 122/2/2 123/2/2 131/2/2
f 126/3/2 121/3/2 131/3/2
f 121/2/2 122/2/2 131/2/2
f 124/2/2 112/2/2 132/2/2
f 131/2/2 124/2/2 132/2/2
f 112/2/2 85/2/2 132/2/2
f 135/2/3 134/2/3 133/2/3
f 136/2/3 134/2/3 135/2/3
f 137/2/3 135/2/3 133/2/3
f 138/3/3 136/3/3 135/3/3
f 138/2/3 135/2/3 137/2/3
f 139/2/3 137/2/3 133/2/3
f 139/3/3 138/3/3 137/3/3
f 140/3/3 138/3/3 139/3/3
f 141/3/3 136/3/3 138/3/3
f 141/3/3 138/3/3 140/3/3
f 142/3/3 136/3/3 141/3/3
f 143/2/3 139/2/3 133/2/3
f 144/4/3 140/4/3 139/4/3
f 144/2/3 139/2/3 143/2/3
f 145/3/3 141/3/3 140/3/3
f 146/2/3 142/2/3 141/2/3
f 146/3/3 141/3/3 145/3/3
f 147/4/3 140/4/3 144/4/3
f 147/3/3 145/3/3 140/3/3
f 147/4/3 144/4/3 143/4/3
f 148/3/3 145/3/3 147/3/3
f 149/2/3 146/2/3 145/2/3
f 149/3/3 145/3/3 148/3/3
f 150/4/3 148/4/3 147/4/3
f 150/4/3 147/4/3 143/4/3
f 151/2/3 149/2/3 148/2/3
f 151/4/3 148/4/3 150/4/3
f 152/2/3 143/2/3 133/2/3
f 152/4/3 150/4/3 143/4/3
f 153/2/3 151/2/3 150/2/3
f 153/4/3 150/4/3 152/4/3
f 154/2/3 152/2/3 133/2/3
f 154/2/3 153/2/3 152/2/3
f 155/2/3 151/2/3 153/2/3
f 155/2/3 153/2/3 154/2/3
f 156/2/3 149/2/3 151/2/3
f 156/2/3 151/2/3 155/2/3
f 156/2/3 142/2/3 146/2/3
f 156/2/3 146/2/3 149/2/3
f 157/2/3 142/2/3 156/2/3
f 158/2/3 154/2/3 133/2/3
f 159/3/3 155/3/3 154/3/3
f 159/2/3 154/2/3 158/2/3
f 160/2/3 156/2/3 155/2/3
f 161/3/3 157/3/3 156/3/3
f 161/2/3 156/2/3 160/2/3
f 162/3/3 155/3/3 159/3/3
f 162/2/3 160/2/3 155/2/3
f 162/3/3 159/3/3 158/3/3
f 163/3/3 161/3/3 160/3/3
f 163/2/3 160/2/3 162/2/3
f 164/3/3 162/3/3 158/3/3
f 164/3/3 163/3/3 162/3/3
f 165/3/3 163/3/3 164/3/3
f 166/3/3 161/3/3 163/3/3
f 166/3/3 163/3/3 165/3/3
f 167/3/3 157/3/3 161/3/3
f 167/3/3 161/3/3 166/3/3
f 168/3/3 166/3/3 165/3/3
f 168/2/3 165/2/3 164/2/3
f 169/2/3 167/2/3 166/2/3
f 169/3/3 166/3/3 168/3/3
f 170/2/3 168/2/3 164/2/3
f 170/2/3 169/2/3 168/2/3
f 171/2/3 169/2/3 170/2/3
f 172/2/3 170/2/3 164/2/3
f 173/3/3 171/3/3 170/3/3
f 173/2/3 170/2/3 172/2/3
f 174/2/3 169/2/3 171/2/3
f 174/3/3 171/3/3 173/3/3
f 175/2/3 169/2/3 174/2/3
f 176/3/3 173/3/3 172/3/3
f 176/2/3 169/2/3 175/2/3
f 176/3/3 175/3/3 174/3/3
f 176/3/3 174/3/3 173/3/3
f 177/2/3 167/2/3 169/2/3
f 177/2/3 169/2/3 176/2/3
f 178/3/3 176/3/3 172/3/3
f 178/3/3 177/3/3 176/3/3
f 179/3/3 177/3/3 178/3/3
f 180/2/3 167/2/3 177/2/3
f 180/3/3 177/3/3 179/3/3
f 181/2/3 167/2/3 180/2/3
f 182/3/3 178/3/3 172/3/3
f 183/4/3 179/4/3 178/4/3
f 183/3/3 178/3/3 182/3/3
f 184/3/3 180/3/3 179/3/3
f 184/4/3 179/4/3 183/4/3
f 184/3/3 181/3/3 180/3/3
f 185/3/3 181/3/3 184/3/3
f 186/2/3 183/2/3 182/2/3
f 186/3/3 181/3/3 185/3/3
f 186/2/3 185/2/3 184/2/3
f 186/2/3 184/2/3 183/2/3
f 187/3/3 181/3/3 186/3/3
f 188/2/3 187/2/3 186/2/3
f 188/3/3 181/3/3 187/3/3
f 189/3/3 181/3/3 188/3/3
f 190/2/3 186/2/3 182/2/3
f 190/2/3 188/2/3 186/2/3
f 190/2/3 189/2/3 188/2/3
f 191/2/3 189/2/3 190/2/3
f 194/2/3 193/2/3 192/2/3
f 195/2/3 193/2/3 194/2/3
f 198/2/3 197/2/3 196/2/3
f 199/2/3 197/2/3 198/2/3
f 202/2/3 201/2/3 200/2/3
f 203/2/3 201/2/3 202/2/3
f 204/3/3 203/3/3 202/3/3
f 205/3/3 203/3/3 204/3/3
f 206/4/3 205/4/3 204/4/3
f 207/4/3 205/4/3 206/4/3
f 208/2/3 207/2/3 206/2/3
f 209/2/3 207/2/3 208/2/3
f 210/3/3 209/3/3 208/3/3
f 211/3/3 209/3/3 210/3/3
f 212/2/3 211/2/3 210/2/3
f 213/2/3 211/2/3 212/2/3
f 214/2/4 215/2/4 216/2/4
f 216/2/4 215/2/4 217/2/4
f 216/4/4 217/4/4 218/4/4
f 218/4/4 217/4/4 219/4/4
f 220/2/4 221/2/4 222/2/4
f 222/2/4 221/2/4 223/2/4
f 222/3/4 223/3/4 224/3/4
f 224/3/4 223/3/4 225/3/4
f 226/2/4 227/2/4 228/2/4
f 228/2/4 227/2/4 229/2/4
f 230/2/4 231/2/4 232/2/4
f 232/2/4 231/2/4 233/2/4
f 233/2/4 231/2/4 234/2/4
f 234/2/4 231/2/4 235/2/4
f 232/3/4 233/3/4 236/3/4
f 233/4/4 234/4/4 236/4/4
f 234/3/4 235/3/4 237/3/4
f 236/4/4 234/4/4 237/4/4
f 236/3/4 237/3/4 238/3/4
f 237/3/4 235/3/4 238/3/4
f 238/3/4 235/3/4 239/3/4
f 232/3/4 236/3/4 240/3/4
f 236/3/4 238/3/4 240/3/4
f 240/3/4 238/3/4 241/3/4
f 241/3/4 238/3/4 242/3/4
f 238/2/4 239/2/4 243/2/4
f 242/3/4 238/3/4 243/3/4
f 241/3/4 242/3/4 244/3/4
f 240/2/4 241/2/4 244/2/4
f 242/2/4 243/2/4 245/2/4
f 244/3/4 242/3/4 245/3/4
f 239/3/4 235/3/4 246/3/4
f 245/2/4 243/2/4 246/2/4
f 243/2/4 239/2/4 246/2/4
f 246/3/4 235/3/4 247/3/4
f 244/2/4 245/2/4 248/2/4
f 245/2/4 246/2/4 248/2/4
f 246/2/4 247/2/4 248/2/4
f 248/2/4 247/2/4 249/2/4
f 240/2/4 244/2/4 250/2/4
f 244/2/4 248/2/4 250/2/4
f 250/2/4 248/2/4 251/2/4
f 251/2/4 248/2/4 252/2/4
f 248/3/4 249/3/4 253/3/4
f 252/2/4 248/2/4 253/2/4
f 251/2/4 252/2/4 254/2/4
f 250/3/4 251/3/4 254/3/4
f 252/3/4 253/3/4 255/3/4
f 254/2/4 252/2/4 255/2/4
f 253/3/4 249/3/4 256/3/4
f 255/3/4 253/3/4 256/3/4
f 256/3/4 249/3/4 257/3/4
f 254/3/4 255/3/4 258/3/4
f 250/3/4 254/3/4 258/3/4
f 255/3/4 256/3/4 258/3/4
f 258/3/4 256/3/4 259/3/4
f 259/3/4 256/3/4 260/3/4
f 256/2/4 257/2/4 261/2/4
f 260/3/4 256/3/4 261/3/4
f 259/3/4 260/3/4 262/3/4
f 258/2/4 259/2/4 262/2/4
f 260/2/4 261/2/4 263/2/4
f 262/3/4 260/3/4 263/3/4
f 258/2/4 262/2/4 264/2/4
f 262/2/4 263/2/4 264/2/4
f 264/2/4 263/2/4 265/2/4
f 264/4/4 265/4/4 266/4/4
f 265/2/4 263/2/4 266/2/4
f 263/2/4 261/2/4 267/2/4
f 266/2/4 263/2/4 267/2/4
f 264/4/4 266/4/4 268/4/4
f 266/4/4 267/4/4 268/4/4
f 267/2/4 261/2/4 269/2/4
f 268/4/4 267/4/4 269/4/4
f 269/2/4 261/2/4 270/2/4
f 264/4/4 268/4/4 271/4/4
f 258/2/4 264/2/4 271/2/4
f 271/4/4 268/4/4 272/4/4
f 270/2/4 261/2/4 273/2/4
f 269/3/4 270/3/4 273/3/4
f 268/3/4 269/3/4 273/3/4
f 273/2/4 261/2/4 274/2/4
f 272/4/4 268/4/4 275/4/4
f 271/2/4 272/2/4 275/2/4
f 273/3/4 274/3/4 276/3/4
f 275/4/4 268/4/4 276/4/4
f 268/3/4 273/3/4 276/3/4
f 274/2/4 261/2/4 277/2/4
f 276/3/4 274/3/4 277/3/4
f 261/2/4 257/2/4 278/2/4
f 277/2/4 261/2/4 278/2/4
f 276/3/4 277/3/4 279/3/4
f 275/3/4 276/3/4 279/3/4
f 277/3/4 278/3/4 279/3/4
f 271/2/4 275/2/4 279/2/4
f 279/3/4 278/3/4 280/3/4
f 279/2/4 280/2/4 281/2/4
f 280/3/4 278/3/4 281/3/4
f 281/3/4 278/3/4 282/3/4
f 258/2/4 271/2/4 283/2/4
f 271/2/4 279/2/4 283/2/4
f 281/2/4 282/2/4 283/2/4
f 279/2/4 281/2/4 283/2/4
f 283/2/4 282/2/4 284/2/4
f 291/2/5 286/2/5 285/2/5
f 292/3/5 287/3/5 286/3/5
f 292/2/5 286/2/5 291/2/5
f 293/2/5 288/2/5 287/2/5
f 293/3/5 287/3/5 292/3/5
f 294/3/5 289/3/5 288/3/5
f 294/2/5 288/2/5 293/2/5
f 295/2/5 290/2/5 289/2/5
f 295/3/5 289/3/5 294/3/5
f 296/2/5 290/2/5 295/2/5
f 297/2/5 291/2/5 285/2/5
f 298/1/5 294/1/5 293/1/5
f 298/2/5 291/2/5 297/2/5
f 298/1/5 292/1/5 291/1/5
f 298/1/5 296/1/5 295/1/5
f 298/1/5 295/1/5 294/1/5
f 298/1/5 293/1/5 292/1/5
f 299/3/5 298/3/5 297/3/5
f 300/1/5 296/1/5 298/1/5
f 300/3/5 298/3/5 299/3/5
f 301/2/5 300/2/5 299/2/5
f 302/1/5 296/1/5 300/1/5
f 302/2/5 300/2/5 301/2/5
f 303/3/5 302/3/5 301/3/5
f 304/1/5 296/1/5 302/1/5
f 304/3/5 302/3/5 303/3/5
f 305/2/5 290/2/5 296/2/5
f 305/1/5 296/1/5 304/1/5
f 306/2/5 290/2/5 305/2/5
f 307/1/5 305/1/5 304/1/5
f 307/3/5 306/3/5 305/3/5
f 308/3/5 306/3/5 307/3/5
f 309/1/5 307/1/5 304/1/5
f 309/2/5 308/2/5 307/2/5
f 310/2/5 308/2/5 309/2/5
f 311/1/5 309/1/5 304/1/5
f 311/3/5 310/3/5 309/3/5
f 312/3/5 310/3/5 311/3/5
f 313/2/5 304/2/5 303/2/5
f 313/1/5 311/1/5 304/1/5
f 314/1/5 311/1/5 313/1/5
f 315/1/5 311/1/5 314/1/5
f 316/1/5 311/1/5 315/1/5
f 317/1/5 311/1/5 316/1/5
f 318/2/5 312/2/5 311/2/5
f 318/1/5 311/1/5 317/1/5
f 319/2/5 313/2/5 303/2/5
f 319/2/5 314/2/5 313/2/5
f 320/3/5 315/3/5 314/3/5
f 320/2/5 314/2/5 319/2/5
f 321/2/5 316/2/5 315/2/5
f 321/3/5 315/3/5 320/3/5
f 322/3/5 317/3/5 316/3/5
f 322/2/5 316/2/5 321/2/5
f 323/2/5 318/2/5 317/2/5
f 323/3/5 317/3/5 322/3/5
f 324/2/5 312/2/5 318/2/5
f 324/2/5 318/2/5 323/2/5
f 325/2/6 326/2/6 330/2/6
f 326/2/6 327/2/6 330/2/6
f 330/2/6 327/2/6 331/2/6
f 328/2/6 329/2/6 333/2/6
f 331/2/6 332/2/6 333/2/6
f 330/2/6 331/2/6 333/2/6
f 329/2/6 330/2/6 333/2/6
f 328/2/6 333/2/6 334/2/6
f 334/2/6 333/2/6 335/2/6
f 334/2/6 335/2/6 336/2/6
f 336/2/6 335/2/6 337/2/6
f 337/2/6 335/2/6 338/2/6
f 338/2/6 335/2/6 339/2/6
f 339/2/6 335/2/6 340/2/6
f 338/2/6 339/2/6 341/2/6
f 341/2/6 339/2/6 342/2/6
f 342/2/6 339/2/6 343/2/6
f 343/2/6 339/2/6 344/2/6
f 344/2/6 339/2/6 345/2/6
f 345/2/6 339/2/6 346/2/6
f 346/2/6 339/2/6 347/2/6
f 350/2/6 351/2/6 356/2/6
f 351/3/6 352/3/6 356/3/6
f 356/3/6 352/3/6 357/3/6
f 352/2/6 353/2/6 358/2/6
f 357/3/6 352/3/6 358/3/6
f 358/2/6 353/2/6 359/2/6
f 353/3/6 354/3/6 360/3/6
f 354/2/6 355/2/6 361/2/6
f 360/3/6 354/3/6 361/3/6
f 356/2/6 357/2/6 362/2/6
f 357/3/6 358/3/6 362/3/6
f 358/3/6 359/3/6 362/3/6
f 362/3/6 359/3/6 363/3/6
f 359/2/6 353/2/6 364/2/6
f 363/3/6 359/3/6 364/3/6
f 364/2/6 353/2/6 365/2/6
f 365/2/6 353/2/6 366/2/6
f 353/3/6 360/3/6 367/3/6
f 366/2/6 353/2/6 367/2/6
f 348/2/6 349/2/6 368/2/6
f 349/3/6 350/3/6 369/3/6
f 368/2/6 349/2/6 369/2/6
f 362/2/6 363/2/6 370/2/6
f 363/3/6 364/3/6 370/3/6
f 364/4/6 365/4/6 371/4/6
f 370/3/6 364/3/6 371/3/6
f 365/2/6 366/2/6 372/2/6
f 371/4/6 365/4/6 372/4/6
f 366/3/6 367/3/6 373/3/6
f 372/2/6 366/2/6 373/2/6
f 367/3/6 360/3/6 374/3/6
f 373/3/6 367/3/6 374/3/6
f 360/2/6 361/2/6 375/2/6
f 374/3/6 360/3/6 375/3/6
f 361/2/6 355/2/6 376/2/6
f 375/2/6 361/2/6 376/2/6
f 368/3/6 369/3/6 377/3/6
f 377/3/6 369/3/6 378/3/6
f 370/2/6 371/2/6 379/2/6
f 378/3/6 369/3/6 379/3/6
f 369/3/6 350/3/6 379/3/6
f 350/2/6 356/2/6 379/2/6
f 356/2/6 362/2/6 379/2/6
f 362/2/6 370/2/6 379/2/6
f 372/4/6 373/4/6 380/4/6
f 379/2/6 371/2/6 380/2/6
f 373/4/6 374/4/6 380/4/6
f 371/4/6 372/4/6 380/4/6
f 380/4/6 374/4/6 381/4/6
f 374/3/6 375/3/6 382/3/6
f 381/4/6 374/4/6 382/4/6
f 375/3/6 376/3/6 382/3/6
f 382/3/6 376/3/6 383/3/6
f 368/3/6 377/3/6 384/3/6
f 377/2/6 378/2/6 385/2/6
f 384/3/6 377/3/6 385/3/6
f 378/3/6 379/3/6 386/3/6
f 385/2/6 378/2/6 386/2/6
f 386/3/6 379/3/6 387/3/6
f 383/3/6 376/3/6 388/3/6
f 382/2/6 383/2/6 388/2/6
f 381/2/6 382/2/6 388/2/6
f 388/3/6 376/3/6 389/3/6
f 384/2/6 385/2/6 390/2/6
f 386/2/6 387/2/6 390/2/6
f 385/2/6 386/2/6 390/2/6
f 387/3/6 379/3/6 391/3/6
f 390/2/6 387/2/6 391/2/6
f 391/3/6 379/3/6 392/3/6
f 388/2/6 389/2/6 393/2/6
f 381/2/6 388/2/6 393/2/6
f 393/2/6 389/2/6 394/2/6
f 389/3/6 376/3/6 395/3/6
f 394/2/6 389/2/6 395/2/6
f 395/3/6 376/3/6 396/3/6
f 395/2/6 396/2/6 397/2/6
f 394/2/6 395/2/6 397/2/6
f 397/2/6 396/2/6 398/2/6
f 394/2/6 397/2/6 399/2/6
f 397/3/6 398/3/6 400/3/6
f 399/2/6 397/2/6 400/2/6
f 399/3/6 400/3/6 401/3/6
f 400/3/6 398/3/6 402/3/6
f 401/3/6 400/3/6 402/3/6
f 384/2/6 390/2/6 403/2/6
f 403/2/6 390/2/6 404/2/6
f 399/3/6 401/3/6 405/3/6
f 401/2/6 402/2/6 406/2/6
f 405/3/6 401/3/6 406/3/6
f 384/2/6 403/2/6 407/2/6
f 403/3/6 404/3/6 408/3/6
f 407/2/6 403/2/6 408/2/6
f 384/2/6 407/2/6 409/2/6
f 407/3/6 408/3/6 410/3/6
f 409/2/6 407/2/6 410/2/6
f 408/3/6 404/3/6 411/3/6
f 410/3/6 408/3/6 411/3/6
f 409/3/6 410/3/6 411/3/6
f 411/3/6 404/3/6 412/3/6
f 384/2/6 409/2/6 413/2/6
f 409/3/6 411/3/6 414/3/6
f 413/2/6 409/2/6 414/2/6
f 411/2/6 412/2/6 415/2/6
f 405/2/6 406/2/6 418/2/6
f 414/3/6 411/3/6 419/3/6
f 413/3/6 414/3/6 419/3/6
f 411/2/6 415/2/6 420/2/6
f 419/3/6 411/3/6 420/3/6
f 415/2/6 416/2/6 420/2/6
f 413/3/6 419/3/6 421/3/6
f 419/2/6 420/2/6 422/2/6
f 421/3/6 419/3/6 422/3/6
f 420/2/6 416/2/6 423/2/6
f 422/2/6 420/2/6 423/2/6
f 417/2/6 418/2/6 429/2/6
f 413/3/6 421/3/6 430/3/6
f 421/2/6 422/2/6 431/2/6
f 430/3/6 421/3/6 431/3/6
f 422/2/6 423/2/6 431/2/6
f 423/2/6 424/2/6 431/2/6
f 431/2/6 424/2/6 432/2/6
f 424/3/6 425/3/6 433/3/6
f 432/2/6 424/2/6 433/2/6
f 425/4/6 426/4/6 434/4/6
f 433/3/6 425/3/6 434/3/6
f 427/3/6 428/3/6 435/3/6
f 426/2/6 427/2/6 435/2/6
f 435/3/6 428/3/6 436/3/6
f 428/2/6 429/2/6 437/2/6
f 436/3/6 428/3/6 437/3/6
f 429/2/6 418/2/6 438/2/6
f 437/2/6 429/2/6 438/2/6
f 431/2/6 432/2/6 439/2/6
f 430/2/6 431/2/6 439/2/6
f 439/2/6 432/2/6 440/2/6
f 432/3/6 433/3/6 441/3/6
f 440/2/6 432/2/6 441/2/6
f 433/4/6 434/4/6 442/4/6
f 441/3/6 433/3/6 442/3/6
f 434/4/6 426/4/6 443/4/6
f 442/4/6 434/4/6 443/4/6
f 435/2/6 436/2/6 443/2/6
f 426/2/6 435/2/6 443/2/6
f 443/2/6 436/2/6 444/2/6
f 436/3/6 437/3/6 445/3/6
f 444/2/6 436/2/6 445/2/6
f 437/3/6 438/3/6 445/3/6
f 445/3/6 438/3/6 446/3/6
f 438/2/6 418/2/6 447/2/6
f 446/3/6 438/3/6 447/3/6
f 418/2/6 406/2/6 448/2/6
f 447/2/6 418/2/6 448/2/6
f 430/2/6 439/2/6 449/2/6
f 439/3/6 440/3/6 450/3/6
f 449/2/6 439/2/6 450/2/6
f 441/4/6 442/4/6 451/4/6
f 450/3/6 440/3/6 451/3/6
f 443/4/6 444/4/6 451/4/6
f 440/4/6 441/4/6 451/4/6
f 442/4/6 443/4/6 451/4/6
f 451/4/6 444/4/6 452/4/6
f 445/2/6 446/2/6 453/2/6
f 452/4/6 444/4/6 453/4/6
f 444/2/6 445/2/6 453/2/6
f 453/2/6 446/2/6 454/2/6
f 446/3/6 447/3/6 455/3/6
f 454/2/6 446/2/6 455/2/6
f 447/3/6 448/3/6 455/3/6
f 455/3/6 448/3/6 456/3/6
f 430/2/6 449/2/6 457/2/6
f 449/3/6 450/3/6 458/3/6
f 457/2/6 449/2/6 458/2/6
f 450/3/6 451/3/6 458/3/6
f 451/2/6 452/2/6 459/2/6
f 458/3/6 451/3/6 459/3/6
f 453/3/6 454/3/6 460/3/6
f 459/2/6 452/2/6 460/2/6
f 452/3/6 453/3/6 460/3/6
f 454/2/6 455/2/6 461/2/6
f 460/3/6 454/3/6 461/3/6
f 455/2/6 456/2/6 461/2/6
f 456/3/6 448/3/6 462/3/6
f 461/2/6 456/2/6 462/2/6
f 448/2/6 406/2/6 463/2/6
f 462/3/6 448/3/6 463/3/6
f 406/2/6 402/2/6 464/2/6
f 463/2/6 406/2/6 464/2/6
