# MagicaVoxel @ Ephtracy

# group
o 

# material
mtllib man.mtl
usemtl palette

# normals
vn -1 0 0
vn 1 0 0
vn 0 0 1
vn 0 0 -1
vn 0 -1 0
vn 0 1 0

# texcoords
vt 0.142578 0.5
vt 0.216797 0.5
vt 0.224609 0.5
vt 0.248047 0.5
vt 0.279297 0.5
vt 0.310547 0.5
vt 0.373047 0.5
vt 0.943359 0.5
vt 0.947266 0.5
vt 0.986328 0.5
vt 0.994141 0.5

# verts
v -1.1 0.9 0.1
v -1.1 0.9 -0.1
v -1.1 1.1 0.1
v -1.1 1.1 -0.1
v -0.5 1.3 0.1
v -0.5 1.3 5.96046e-08
v -0.5 1.5 0.1
v -0.5 1.5 5.96046e-08
v -0.4 1.1 5.96046e-08
v -0.4 1.1 -0.1
v -0.4 1.1 -0.4
v -0.4 1.2 0.4
v -0.4 1.2 0.1
v -0.4 1.3 0.1
v -0.4 1.3 5.96046e-08
v -0.4 1.3 -0.1
v -0.4 1.3 -0.4
v -0.4 1.5 0.1
v -0.4 1.5 5.96046e-08
v -0.4 1.5 -0.1
v -0.4 1.5 -0.2
v -0.4 1.6 0.1
v -0.4 1.6 -0.1
v -0.4 1.6 -0.2
v -0.4 1.6 -0.3
v -0.4 1.9 0.4
v -0.4 1.9 -0.3
v -0.3 0 0.1
v -0.3 0 -0.1
v -0.3 0.3 0.1
v -0.3 0.3 -0.1
v -0.3 0.6 0.2
v -0.3 0.6 0.1
v -0.3 0.6 -0.1
v -0.3 0.6 -0.2
v -0.3 0.7 0.2
v -0.3 0.7 -0.2
v -0.3 0.9 0.1
v -0.3 0.9 -0.1
v -0.3 0.9 -0.3
v -0.3 0.9 -0.4
v -0.3 1 -0.2
v -0.3 1 -0.3
v -0.3 1.1 0.4
v -0.3 1.1 0.3
v -0.3 1.1 0.2
v -0.3 1.1 0.1
v -0.3 1.1 5.96046e-08
v -0.3 1.1 -0.1
v -0.3 1.1 -0.2
v -0.3 1.1 -0.4
v -0.3 1.2 0.4
v -0.3 1.2 0.3
v -0.3 1.2 0.1
v -0.3 1.3 0.1
v -0.3 1.3 5.96046e-08
v -0.3 1.3 -0.1
v -0.3 1.3 -0.3
v -0.3 1.5 -0.1
v -0.3 1.5 -0.2
v -0.3 1.6 -0.2
v -0.3 1.6 -0.3
v -0.3 1.6 -0.4
v -0.3 1.7 -0.3
v -0.3 1.7 -0.4
v -0.1 1.3 -0.3
v -0.1 1.3 -0.4
v -0.1 1.4 -0.2
v -0.1 1.4 -0.3
v -0.1 1.5 -0.2
v -0.1 1.5 -0.3
v -0.1 1.5 -0.4
v 0 1.8 -0.3
v 0 1.8 -0.4
v 0 1.9 -0.1
v 0 1.9 -0.3
v 0 2 -0.1
v 0 2 -0.4
v 0.1 0 0.1
v 0.1 0 -0.1
v 0.1 0.2 5.96046e-08
v 0.1 0.2 -0.1
v 0.1 0.3 0.1
v 0.1 0.3 5.96046e-08
v 0.1 0.3 -0.1
v 0.1 0.6 0.1
v 0.1 0.6 -0.1
v 0.1 1.1 -0.3
v 0.1 1.1 -0.4
v 0.1 1.2 -0.3
v 0.1 1.2 -0.4
v 0.1 1.5 -0.3
v 0.1 1.5 -0.4
v 0.1 1.6 -0.3
v 0.1 1.6 -0.4
v 0.2 1.4 -0.2
v 0.2 1.4 -0.3
v 0.2 1.5 -0.2
v 0.2 1.5 -0.3
v -0.2 1.4 -0.2
v -0.2 1.4 -0.3
v -0.2 1.5 -0.2
v -0.2 1.5 -0.3
v -0.1 0 0.1
v -0.1 0 -0.1
v -0.1 0.2 5.96046e-08
v -0.1 0.2 -0.1
v -0.1 0.3 0.1
v -0.1 0.3 5.96046e-08
v -0.1 0.3 -0.1
v -0.1 0.6 0.1
v -0.1 0.6 -0.1
v -0.1 1.1 -0.3
v -0.1 1.1 -0.4
v -0.1 1.2 -0.3
v -0.1 1.2 -0.4
v -0.1 1.6 -0.3
v -0.1 1.6 -0.4
v -0.1 1.7 -0.3
v -0.1 1.7 -0.4
v 0.1 1.3 -0.3
v 0.1 1.3 -0.4
v 0.1 1.4 -0.2
v 0.1 1.4 -0.3
v 0.1 1.5 -0.2
v 0.1 1.5 -0.3
v 0.1 1.5 -0.4
v 0.3 0 0.1
v 0.3 0 -0.1
v 0.3 0.3 0.1
v 0.3 0.3 -0.1
v 0.3 0.6 0.2
v 0.3 0.6 0.1
v 0.3 0.6 -0.1
v 0.3 0.6 -0.2
v 0.3 0.7 0.2
v 0.3 0.7 -0.2
v 0.3 0.9 0.1
v 0.3 0.9 -0.1
v 0.3 0.9 -0.3
v 0.3 0.9 -0.4
v 0.3 1 -0.2
v 0.3 1 -0.3
v 0.3 1.1 0.4
v 0.3 1.1 0.3
v 0.3 1.1 0.2
v 0.3 1.1 0.1
v 0.3 1.1 5.96046e-08
v 0.3 1.1 -0.1
v 0.3 1.1 -0.2
v 0.3 1.1 -0.4
v 0.3 1.2 0.4
v 0.3 1.2 0.3
v 0.3 1.2 0.1
v 0.3 1.3 0.1
v 0.3 1.3 5.96046e-08
v 0.3 1.3 -0.1
v 0.3 1.3 -0.3
v 0.3 1.5 -0.1
v 0.3 1.5 -0.2
v 0.3 1.5 -0.3
v 0.3 1.5 -0.4
v 0.3 1.6 -0.2
v 0.3 1.6 -0.3
v 0.3 1.6 -0.4
v 0.3 1.8 -0.3
v 0.3 1.8 -0.4
v 0.3 1.9 -0.1
v 0.3 1.9 -0.3
v 0.3 2 -0.1
v 0.3 2 -0.4
v 0.4 1.1 5.96046e-08
v 0.4 1.1 -0.1
v 0.4 1.1 -0.4
v 0.4 1.2 0.4
v 0.4 1.2 0.1
v 0.4 1.3 0.1
v 0.4 1.3 5.96046e-08
v 0.4 1.3 -0.1
v 0.4 1.3 -0.4
v 0.4 1.5 0.1
v 0.4 1.5 5.96046e-08
v 0.4 1.5 -0.1
v 0.4 1.5 -0.2
v 0.4 1.6 -0.2
v 0.4 1.6 -0.3
v 0.4 1.7 0.2
v 0.4 1.7 -0.3
v 0.4 1.8 0.2
v 0.4 1.8 -0.3
v 0.4 1.9 0.4
v 0.4 1.9 -0.3
v 0.5 1.3 0.1
v 0.5 1.3 5.96046e-08
v 0.5 1.5 0.1
v 0.5 1.5 5.96046e-08
v 1.1 0.9 0.1
v 1.1 0.9 -0.1
v 1.1 1.1 0.1
v 1.1 1.1 -0.1
v -0.4 1.2 0.4
v -0.4 1.9 0.4
v -0.3 1.1 0.4
v -0.3 1.2 0.4
v 0.3 1.1 0.4
v 0.3 1.2 0.4
v 0.4 1.2 0.4
v 0.4 1.9 0.4
v -0.3 0.6 0.2
v -0.3 0.7 0.2
v -0.3 1.1 0.2
v 0.3 0.6 0.2
v 0.3 0.7 0.2
v 0.3 1.1 0.2
v -1.1 0.9 0.1
v -1.1 1.1 0.1
v -0.7 0.9 0.1
v -0.7 1.1 0.1
v -0.5 1.3 0.1
v -0.5 1.5 0.1
v -0.4 1.3 0.1
v -0.4 1.5 0.1
v -0.3 0 0.1
v -0.3 0.3 0.1
v -0.3 0.6 0.1
v -0.3 0.9 0.1
v -0.3 1.1 0.1
v -0.1 0 0.1
v -0.1 0.3 0.1
v -0.1 0.6 0.1
v 0.1 0 0.1
v 0.1 0.3 0.1
v 0.1 0.6 0.1
v 0.3 0 0.1
v 0.3 0.3 0.1
v 0.3 0.6 0.1
v 0.3 0.9 0.1
v 0.3 1.1 0.1
v 0.4 1.3 0.1
v 0.4 1.5 0.1
v 0.5 1.3 0.1
v 0.5 1.5 0.1
v 0.7 0.9 0.1
v 0.7 1.1 0.1
v 1.1 0.9 0.1
v 1.1 1.1 0.1
v -0.4 1.1 5.96046e-08
v -0.4 1.3 5.96046e-08
v -0.3 1.1 5.96046e-08
v -0.3 1.3 5.96046e-08
v 0.3 1.1 5.96046e-08
v 0.3 1.3 5.96046e-08
v 0.4 1.1 5.96046e-08
v 0.4 1.3 5.96046e-08
v 0 1.9 -0.1
v 0 2 -0.1
v 0.1 1.9 -0.1
v 0.1 2 -0.1
v 0.3 1.9 -0.1
v 0.3 2 -0.1
v -0.3 0.9 -0.3
v -0.3 1 -0.3
v 0.3 0.9 -0.3
v 0.3 1 -0.3
v -0.4 1.2 0.1
v -0.4 1.3 0.1
v -0.3 1.2 0.1
v -0.3 1.3 0.1
v 0.3 1.2 0.1
v 0.3 1.3 0.1
v 0.4 1.2 0.1
v 0.4 1.3 0.1
v -0.5 1.3 5.96046e-08
v -0.5 1.5 5.96046e-08
v -0.4 1.3 5.96046e-08
v -0.4 1.5 5.96046e-08
v 0.4 1.3 5.96046e-08
v 0.4 1.5 5.96046e-08
v 0.5 1.3 5.96046e-08
v 0.5 1.5 5.96046e-08
v -1.1 0.9 -0.1
v -1.1 1.1 -0.1
v -0.7 0.9 -0.1
v -0.7 1.1 -0.1
v -0.4 1.1 -0.1
v -0.4 1.3 -0.1
v -0.4 1.5 -0.1
v -0.3 0 -0.1
v -0.3 0.3 -0.1
v -0.3 0.6 -0.1
v -0.3 0.9 -0.1
v -0.3 1.1 -0.1
v -0.3 1.3 -0.1
v -0.3 1.5 -0.1
v -0.2 0.2 -0.1
v -0.2 0.3 -0.1
v -0.1 0 -0.1
v -0.1 0.2 -0.1
v -0.1 0.3 -0.1
v -0.1 0.6 -0.1
v 0.1 0 -0.1
v 0.1 0.2 -0.1
v 0.1 0.3 -0.1
v 0.1 0.6 -0.1
v 0.2 0.2 -0.1
v 0.2 0.3 -0.1
v 0.3 0 -0.1
v 0.3 0.3 -0.1
v 0.3 0.6 -0.1
v 0.3 0.9 -0.1
v 0.3 1.1 -0.1
v 0.3 1.3 -0.1
v 0.3 1.5 -0.1
v 0.4 1.1 -0.1
v 0.4 1.3 -0.1
v 0.4 1.5 -0.1
v 0.7 0.9 -0.1
v 0.7 1.1 -0.1
v 1.1 0.9 -0.1
v 1.1 1.1 -0.1
v -0.4 1.5 -0.2
v -0.4 1.6 -0.2
v -0.3 0.6 -0.2
v -0.3 0.7 -0.2
v -0.3 1 -0.2
v -0.3 1.5 -0.2
v -0.3 1.6 -0.2
v -0.2 1.4 -0.2
v -0.2 1.5 -0.2
v -0.1 0.6 -0.2
v -0.1 0.7 -0.2
v -0.1 1.4 -0.2
v -0.1 1.5 -0.2
v 0.1 0.6 -0.2
v 0.1 0.7 -0.2
v 0.1 1.4 -0.2
v 0.1 1.5 -0.2
v 0.2 1.4 -0.2
v 0.2 1.5 -0.2
v 0.3 0.6 -0.2
v 0.3 0.7 -0.2
v 0.3 1 -0.2
v 0.3 1.5 -0.2
v 0.3 1.6 -0.2
v 0.4 1.5 -0.2
v 0.4 1.6 -0.2
v -0.4 1.6 -0.3
v -0.4 1.9 -0.3
v -0.3 1.3 -0.3
v -0.3 1.6 -0.3
v -0.3 1.7 -0.3
v -0.3 1.8 -0.3
v -0.2 1.4 -0.3
v -0.2 1.5 -0.3
v -0.1 1.1 -0.3
v -0.1 1.2 -0.3
v -0.1 1.3 -0.3
v -0.1 1.4 -0.3
v -0.1 1.5 -0.3
v -0.1 1.6 -0.3
v -0.1 1.7 -0.3
v 0 1.8 -0.3
v 0 1.9 -0.3
v 0.1 1.1 -0.3
v 0.1 1.2 -0.3
v 0.1 1.3 -0.3
v 0.1 1.4 -0.3
v 0.1 1.5 -0.3
v 0.1 1.6 -0.3
v 0.1 1.8 -0.3
v 0.2 1.4 -0.3
v 0.2 1.5 -0.3
v 0.3 1.3 -0.3
v 0.3 1.5 -0.3
v 0.3 1.6 -0.3
v 0.3 1.7 -0.3
v 0.3 1.8 -0.3
v 0.3 1.9 -0.3
v 0.4 1.6 -0.3
v 0.4 1.7 -0.3
v 0.4 1.8 -0.3
v 0.4 1.9 -0.3
v -0.4 1.1 -0.4
v -0.4 1.3 -0.4
v -0.3 0.9 -0.4
v -0.3 1.1 -0.4
v -0.3 1.6 -0.4
v -0.3 1.7 -0.4
v -0.1 1.1 -0.4
v -0.1 1.2 -0.4
v -0.1 1.3 -0.4
v -0.1 1.5 -0.4
v -0.1 1.6 -0.4
v -0.1 1.7 -0.4
v 0 1.8 -0.4
v 0 2 -0.4
v 0.1 1.1 -0.4
v 0.1 1.2 -0.4
v 0.1 1.3 -0.4
v 0.1 1.5 -0.4
v 0.1 1.6 -0.4
v 0.1 1.8 -0.4
v 0.1 2 -0.4
v 0.3 0.9 -0.4
v 0.3 1.1 -0.4
v 0.3 1.5 -0.4
v 0.3 1.6 -0.4
v 0.3 1.8 -0.4
v 0.3 2 -0.4
v 0.4 1.1 -0.4
v 0.4 1.3 -0.4
v -0.3 0 0.1
v -0.1 0 0.1
v 0.1 0 0.1
v 0.3 0 0.1
v -0.3 0 -0.1
v -0.1 0 -0.1
v 0.1 0 -0.1
v 0.3 0 -0.1
v -0.3 0.6 0.2
v 0.3 0.6 0.2
v -0.3 0.6 0.1
v -0.1 0.6 0.1
v 0.1 0.6 0.1
v 0.3 0.6 0.1
v -0.3 0.6 -0.1
v -0.1 0.6 -0.1
v 0.1 0.6 -0.1
v 0.3 0.6 -0.1
v -0.3 0.6 -0.2
v -0.1 0.6 -0.2
v 0.1 0.6 -0.2
v 0.3 0.6 -0.2
v -1.1 0.9 0.1
v -0.7 0.9 0.1
v -0.3 0.9 0.1
v 0.3 0.9 0.1
v 0.7 0.9 0.1
v 1.1 0.9 0.1
v -1.1 0.9 -0.1
v -0.7 0.9 -0.1
v -0.3 0.9 -0.1
v 0.3 0.9 -0.1
v 0.7 0.9 -0.1
v 1.1 0.9 -0.1
v -0.3 0.9 -0.3
v 0.3 0.9 -0.3
v -0.3 0.9 -0.4
v 0.3 0.9 -0.4
v -0.3 1 -0.2
v 0.3 1 -0.2
v -0.3 1 -0.3
v 0.3 1 -0.3
v -0.3 1.1 0.4
v 0.3 1.1 0.4
v -0.3 1.1 0.3
v 0.3 1.1 0.3
v -0.3 1.1 0.2
v 0.3 1.1 0.2
v -0.4 1.1 -0.1
v -0.3 1.1 -0.1
v 0.3 1.1 -0.1
v 0.4 1.1 -0.1
v -0.3 1.1 -0.2
v 0.3 1.1 -0.2
v -0.4 1.1 -0.4
v -0.3 1.1 -0.4
v 0.3 1.1 -0.4
v 0.4 1.1 -0.4
v -0.4 1.2 0.4
v -0.3 1.2 0.4
v 0.3 1.2 0.4
v 0.4 1.2 0.4
v -0.3 1.2 0.3
v 0.3 1.2 0.3
v -0.4 1.2 0.1
v -0.3 1.2 0.1
v 0.3 1.2 0.1
v 0.4 1.2 0.1
v -0.1 1.2 -0.3
v 0.1 1.2 -0.3
v -0.1 1.2 -0.4
v 0.1 1.2 -0.4
v -0.5 1.3 0.1
v -0.4 1.3 0.1
v -0.3 1.3 0.1
v 0.3 1.3 0.1
v 0.4 1.3 0.1
v 0.5 1.3 0.1
v -0.5 1.3 5.96046e-08
v -0.4 1.3 5.96046e-08
v -0.3 1.3 5.96046e-08
v 0.3 1.3 5.96046e-08
v 0.4 1.3 5.96046e-08
v 0.5 1.3 5.96046e-08
v -0.4 1.5 -0.1
v -0.3 1.5 -0.1
v 0.3 1.5 -0.1
v 0.4 1.5 -0.1
v -0.4 1.5 -0.2
v -0.3 1.5 -0.2
v -0.2 1.5 -0.2
v -0.1 1.5 -0.2
v 0.1 1.5 -0.2
v 0.2 1.5 -0.2
v 0.3 1.5 -0.2
v 0.4 1.5 -0.2
v -0.2 1.5 -0.3
v -0.1 1.5 -0.3
v 0.1 1.5 -0.3
v 0.2 1.5 -0.3
v 0.3 1.5 -0.3
v 0.1 1.5 -0.4
v 0.3 1.5 -0.4
v -0.4 1.6 -0.2
v -0.3 1.6 -0.2
v 0.3 1.6 -0.2
v 0.4 1.6 -0.2
v -0.4 1.6 -0.3
v -0.3 1.6 -0.3
v -0.1 1.6 -0.3
v 0.3 1.6 -0.3
v 0.4 1.6 -0.3
v -0.3 1.6 -0.4
v -0.1 1.6 -0.4
v 0 1.8 -0.3
v 0.1 1.8 -0.3
v 0.3 1.8 -0.3
v 0 1.8 -0.4
v 0.1 1.8 -0.4
v 0.3 1.8 -0.4
v -1.1 1.1 0.1
v -0.7 1.1 0.1
v -0.3 1.1 0.1
v 0.3 1.1 0.1
v 0.7 1.1 0.1
v 1.1 1.1 0.1
v -0.4 1.1 5.96046e-08
v -0.3 1.1 5.96046e-08
v 0.3 1.1 5.96046e-08
v 0.4 1.1 5.96046e-08
v -1.1 1.1 -0.1
v -0.7 1.1 -0.1
v -0.4 1.1 -0.1
v 0.4 1.1 -0.1
v 0.7 1.1 -0.1
v 1.1 1.1 -0.1
v -0.1 1.1 -0.3
v 0.1 1.1 -0.3
v -0.1 1.1 -0.4
v 0.1 1.1 -0.4
v -0.4 1.3 -0.1
v -0.3 1.3 -0.1
v 0.3 1.3 -0.1
v 0.4 1.3 -0.1
v -0.3 1.3 -0.3
v -0.1 1.3 -0.3
v 0.1 1.3 -0.3
v 0.3 1.3 -0.3
v -0.4 1.3 -0.4
v -0.1 1.3 -0.4
v 0.1 1.3 -0.4
v 0.4 1.3 -0.4
v -0.2 1.4 -0.2
v -0.1 1.4 -0.2
v 0.1 1.4 -0.2
v 0.2 1.4 -0.2
v -0.2 1.4 -0.3
v -0.1 1.4 -0.3
v 0.1 1.4 -0.3
v 0.2 1.4 -0.3
v -0.5 1.5 0.1
v -0.4 1.5 0.1
v 0.4 1.5 0.1
v 0.5 1.5 0.1
v -0.5 1.5 5.96046e-08
v -0.4 1.5 5.96046e-08
v 0.4 1.5 5.96046e-08
v 0.5 1.5 5.96046e-08
v -0.1 1.5 -0.3
v 0.1 1.5 -0.3
v -0.1 1.5 -0.4
v 0.1 1.5 -0.4
v 0.1 1.6 -0.3
v 0.3 1.6 -0.3
v 0.1 1.6 -0.4
v 0.3 1.6 -0.4
v -0.3 1.7 -0.3
v -0.1 1.7 -0.3
v -0.3 1.7 -0.4
v -0.1 1.7 -0.4
v -0.4 1.9 0.4
v 0.4 1.9 0.4
v 0 1.9 -0.1
v 0.1 1.9 -0.1
v 0.3 1.9 -0.1
v -0.4 1.9 -0.3
v 0 1.9 -0.3
v 0.3 1.9 -0.3
v 0.4 1.9 -0.3
v 0 2 -0.1
v 0.1 2 -0.1
v 0.3 2 -0.1
v 0 2 -0.4
v 0.1 2 -0.4
v 0.3 2 -0.4

# faces
f 3/4/1 2/4/1 1/4/1
f 4/4/1 2/4/1 3/4/1
f 7/2/1 6/2/1 5/2/1
f 8/2/1 6/2/1 7/2/1
f 14/6/1 13/6/1 12/6/1
f 15/6/1 10/6/1 9/6/1
f 15/6/1 11/6/1 10/6/1
f 16/6/1 11/6/1 15/6/1
f 17/6/1 11/6/1 16/6/1
f 18/6/1 14/6/1 12/6/1
f 19/5/1 16/5/1 15/5/1
f 20/5/1 16/5/1 19/5/1
f 22/6/1 18/6/1 12/6/1
f 22/5/1 19/5/1 18/5/1
f 22/5/1 20/5/1 19/5/1
f 23/6/1 21/6/1 20/6/1
f 23/5/1 20/5/1 22/5/1
f 24/6/1 21/6/1 23/6/1
f 26/6/1 22/6/1 12/6/1
f 26/6/1 25/6/1 24/6/1
f 26/6/1 24/6/1 23/6/1
f 26/6/1 23/6/1 22/6/1
f 27/6/1 25/6/1 26/6/1
f 30/11/1 29/11/1 28/11/1
f 31/11/1 29/11/1 30/11/1
f 33/3/1 31/3/1 30/3/1
f 34/3/1 31/3/1 33/3/1
f 36/8/1 34/8/1 33/8/1
f 36/8/1 35/8/1 34/8/1
f 36/8/1 33/8/1 32/8/1
f 37/8/1 35/8/1 36/8/1
f 38/1/1 37/1/1 36/1/1
f 39/1/1 37/1/1 38/1/1
f 42/1/1 37/1/1 39/1/1
f 43/6/1 41/6/1 40/6/1
f 46/1/1 38/1/1 36/1/1
f 47/1/1 38/1/1 46/1/1
f 49/1/1 42/1/1 39/1/1
f 50/6/1 43/6/1 42/6/1
f 50/1/1 42/1/1 49/1/1
f 51/6/1 41/6/1 43/6/1
f 51/6/1 43/6/1 50/6/1
f 52/6/1 45/6/1 44/6/1
f 53/4/1 48/4/1 47/4/1
f 53/6/1 45/6/1 52/6/1
f 53/4/1 47/4/1 46/4/1
f 53/4/1 46/4/1 45/4/1
f 54/4/1 48/4/1 53/4/1
f 55/4/1 48/4/1 54/4/1
f 56/4/1 48/4/1 55/4/1
f 59/4/1 58/4/1 57/4/1
f 60/4/1 58/4/1 59/4/1
f 61/4/1 58/4/1 60/4/1
f 62/4/1 58/4/1 61/4/1
f 64/6/1 63/6/1 62/6/1
f 65/6/1 63/6/1 64/6/1
f 69/2/1 67/2/1 66/2/1
f 70/4/1 69/4/1 68/4/1
f 71/2/1 67/2/1 69/2/1
f 71/4/1 69/4/1 70/4/1
f 72/2/1 67/2/1 71/2/1
f 76/5/1 74/5/1 73/5/1
f 77/5/1 76/5/1 75/5/1
f 78/5/1 74/5/1 76/5/1
f 78/5/1 76/5/1 77/5/1
f 81/11/1 80/11/1 79/11/1
f 82/11/1 80/11/1 81/11/1
f 83/11/1 81/11/1 79/11/1
f 84/9/1 82/9/1 81/9/1
f 84/11/1 81/11/1 83/11/1
f 85/9/1 82/9/1 84/9/1
f 86/3/1 84/3/1 83/3/1
f 86/3/1 85/3/1 84/3/1
f 87/3/1 85/3/1 86/3/1
f 90/6/1 89/6/1 88/6/1
f 91/6/1 89/6/1 90/6/1
f 94/6/1 93/6/1 92/6/1
f 95/6/1 93/6/1 94/6/1
f 98/4/1 97/4/1 96/4/1
f 99/4/1 97/4/1 98/4/1
f 100/4/2 101/4/2 102/4/2
f 102/4/2 101/4/2 103/4/2
f 104/11/2 105/11/2 106/11/2
f 106/11/2 105/11/2 107/11/2
f 104/11/2 106/11/2 108/11/2
f 106/9/2 107/9/2 109/9/2
f 108/11/2 106/11/2 109/11/2
f 109/9/2 107/9/2 110/9/2
f 108/3/2 109/3/2 111/3/2
f 109/3/2 110/3/2 111/3/2
f 111/3/2 110/3/2 112/3/2
f 113/6/2 114/6/2 115/6/2
f 115/6/2 114/6/2 116/6/2
f 117/6/2 118/6/2 119/6/2
f 119/6/2 118/6/2 120/6/2
f 121/2/2 122/2/2 124/2/2
f 123/4/2 124/4/2 125/4/2
f 124/2/2 122/2/2 126/2/2
f 125/4/2 124/4/2 126/4/2
f 126/2/2 122/2/2 127/2/2
f 128/11/2 129/11/2 130/11/2
f 130/11/2 129/11/2 131/11/2
f 130/3/2 131/3/2 133/3/2
f 133/3/2 131/3/2 134/3/2
f 133/8/2 134/8/2 136/8/2
f 134/8/2 135/8/2 136/8/2
f 132/8/2 133/8/2 136/8/2
f 136/8/2 135/8/2 137/8/2
f 136/1/2 137/1/2 138/1/2
f 138/1/2 137/1/2 139/1/2
f 139/1/2 137/1/2 142/1/2
f 140/6/2 141/6/2 143/6/2
f 136/1/2 138/1/2 146/1/2
f 146/1/2 138/1/2 147/1/2
f 139/1/2 142/1/2 149/1/2
f 142/6/2 143/6/2 150/6/2
f 149/1/2 142/1/2 150/1/2
f 143/6/2 141/6/2 151/6/2
f 150/6/2 143/6/2 151/6/2
f 144/6/2 145/6/2 152/6/2
f 147/4/2 148/4/2 153/4/2
f 152/6/2 145/6/2 153/6/2
f 146/4/2 147/4/2 153/4/2
f 145/4/2 146/4/2 153/4/2
f 153/4/2 148/4/2 154/4/2
f 154/4/2 148/4/2 155/4/2
f 155/4/2 148/4/2 156/4/2
f 157/4/2 158/4/2 159/4/2
f 159/4/2 158/4/2 160/4/2
f 160/4/2 158/4/2 161/4/2
f 160/4/2 161/4/2 163/4/2
f 161/6/2 162/6/2 164/6/2
f 163/4/2 161/4/2 164/4/2
f 164/6/2 162/6/2 165/6/2
f 166/6/2 167/6/2 169/6/2
f 168/6/2 169/6/2 170/6/2
f 169/6/2 167/6/2 171/6/2
f 170/6/2 169/6/2 171/6/2
f 175/6/2 176/6/2 177/6/2
f 172/6/2 173/6/2 178/6/2
f 173/6/2 174/6/2 178/6/2
f 178/6/2 174/6/2 179/6/2
f 179/6/2 174/6/2 180/6/2
f 175/6/2 177/6/2 181/6/2
f 178/6/2 179/6/2 182/6/2
f 182/6/2 179/6/2 183/6/2
f 181/6/2 182/6/2 185/6/2
f 183/6/2 184/6/2 185/6/2
f 182/6/2 183/6/2 185/6/2
f 175/6/2 181/6/2 187/6/2
f 185/6/2 186/6/2 187/6/2
f 181/6/2 185/6/2 187/6/2
f 187/6/2 186/6/2 188/6/2
f 175/6/2 187/6/2 189/6/2
f 187/5/2 188/5/2 189/5/2
f 189/5/2 188/5/2 190/5/2
f 175/6/2 189/6/2 191/6/2
f 189/6/2 190/6/2 191/6/2
f 191/6/2 190/6/2 192/6/2
f 193/2/2 194/2/2 195/2/2
f 195/2/2 194/2/2 196/2/2
f 197/4/2 198/4/2 199/4/2
f 199/4/2 198/4/2 200/4/2
f 204/6/3 202/6/3 201/6/3
f 205/6/3 204/6/3 203/6/3
f 206/6/3 202/6/3 204/6/3
f 206/6/3 204/6/3 205/6/3
f 207/6/3 202/6/3 206/6/3
f 208/6/3 202/6/3 207/6/3
f 212/8/3 210/8/3 209/8/3
f 213/1/3 211/1/3 210/1/3
f 213/8/3 210/8/3 212/8/3
f 214/1/3 211/1/3 213/1/3
f 217/4/3 216/4/3 215/4/3
f 218/4/3 216/4/3 217/4/3
f 221/2/3 220/2/3 219/2/3
f 222/2/3 220/2/3 221/2/3
f 226/1/3 218/1/3 217/1/3
f 227/1/3 218/1/3 226/1/3
f 228/11/3 224/11/3 223/11/3
f 229/3/3 225/3/3 224/3/3
f 229/11/3 224/11/3 228/11/3
f 230/3/3 225/3/3 229/3/3
f 234/11/3 232/11/3 231/11/3
f 235/3/3 233/3/3 232/3/3
f 235/11/3 232/11/3 234/11/3
f 236/3/3 233/3/3 235/3/3
f 241/2/3 240/2/3 239/2/3
f 242/2/3 240/2/3 241/2/3
f 243/1/3 238/1/3 237/1/3
f 244/1/3 238/1/3 243/1/3
f 245/4/3 244/4/3 243/4/3
f 246/4/3 244/4/3 245/4/3
f 249/6/3 248/6/3 247/6/3
f 250/6/3 248/6/3 249/6/3
f 253/6/3 252/6/3 251/6/3
f 254/6/3 252/6/3 253/6/3
f 257/5/3 256/5/3 255/5/3
f 258/5/3 256/5/3 257/5/3
f 259/6/3 258/6/3 257/6/3
f 260/6/3 258/6/3 259/6/3
f 263/6/3 262/6/3 261/6/3
f 264/6/3 262/6/3 263/6/3
f 265/6/4 266/6/4 267/6/4
f 267/6/4 266/6/4 268/6/4
f 269/6/4 270/6/4 271/6/4
f 271/6/4 270/6/4 272/6/4
f 273/2/4 274/2/4 275/2/4
f 275/2/4 274/2/4 276/2/4
f 277/2/4 278/2/4 279/2/4
f 279/2/4 278/2/4 280/2/4
f 281/4/4 282/4/4 283/4/4
f 283/4/4 282/4/4 284/4/4
f 283/1/4 284/1/4 285/1/4
f 283/1/4 285/1/4 291/1/4
f 291/1/4 285/1/4 292/1/4
f 286/5/4 287/5/4 293/5/4
f 293/5/4 287/5/4 294/5/4
f 288/11/4 289/11/4 295/11/4
f 289/3/4 290/3/4 296/3/4
f 295/11/4 289/11/4 296/11/4
f 288/11/4 295/11/4 297/11/4
f 295/9/4 296/9/4 298/9/4
f 297/11/4 295/11/4 298/11/4
f 296/3/4 290/3/4 299/3/4
f 298/9/4 296/9/4 299/9/4
f 299/3/4 290/3/4 300/3/4
f 301/11/4 302/11/4 305/11/4
f 302/9/4 303/9/4 305/9/4
f 303/3/4 304/3/4 306/3/4
f 305/9/4 303/9/4 306/9/4
f 301/11/4 305/11/4 307/11/4
f 305/11/4 306/11/4 307/11/4
f 306/3/4 304/3/4 308/3/4
f 307/11/4 306/11/4 308/11/4
f 308/3/4 304/3/4 309/3/4
f 310/1/4 311/1/4 314/1/4
f 312/6/4 313/6/4 315/6/4
f 315/6/4 313/6/4 316/6/4
f 310/1/4 314/1/4 317/1/4
f 317/1/4 314/1/4 318/1/4
f 317/4/4 318/4/4 319/4/4
f 319/4/4 318/4/4 320/4/4
f 321/6/4 322/6/4 326/6/4
f 326/6/4 322/6/4 327/6/4
f 323/8/4 324/8/4 330/8/4
f 324/1/4 325/1/4 331/1/4
f 330/8/4 324/8/4 331/8/4
f 328/10/4 329/10/4 332/10/4
f 332/10/4 329/10/4 333/10/4
f 330/7/4 331/7/4 334/7/4
f 331/1/4 325/1/4 335/1/4
f 334/7/4 331/7/4 335/7/4
f 336/10/4 337/10/4 338/10/4
f 338/10/4 337/10/4 339/10/4
f 334/8/4 335/8/4 340/8/4
f 335/1/4 325/1/4 341/1/4
f 340/8/4 335/8/4 341/8/4
f 341/1/4 325/1/4 342/1/4
f 343/6/4 344/6/4 345/6/4
f 345/6/4 344/6/4 346/6/4
f 347/6/4 348/6/4 350/6/4
f 350/6/4 348/6/4 351/6/4
f 351/6/4 348/6/4 352/6/4
f 349/4/4 350/4/4 353/4/4
f 353/4/4 350/4/4 354/4/4
f 349/4/4 353/4/4 357/4/4
f 357/4/4 353/4/4 358/4/4
f 354/4/4 350/4/4 359/4/4
f 359/4/4 350/4/4 360/4/4
f 351/4/4 352/4/4 361/4/4
f 352/6/4 348/6/4 362/6/4
f 360/4/4 361/4/4 362/4/4
f 361/4/4 352/4/4 362/4/4
f 359/4/4 360/4/4 362/4/4
f 362/6/4 348/6/4 363/6/4
f 355/4/4 356/4/4 364/4/4
f 364/4/4 356/4/4 365/4/4
f 359/4/4 362/4/4 368/4/4
f 368/4/4 362/4/4 369/4/4
f 369/4/4 362/4/4 370/4/4
f 366/4/4 367/4/4 371/4/4
f 366/4/4 371/4/4 373/4/4
f 371/4/4 372/4/4 373/4/4
f 373/4/4 372/4/4 374/4/4
f 369/4/4 370/4/4 375/4/4
f 375/4/4 370/4/4 376/4/4
f 376/4/4 370/4/4 377/4/4
f 375/6/4 376/6/4 379/6/4
f 376/5/4 377/5/4 380/5/4
f 379/6/4 376/6/4 380/6/4
f 377/6/4 378/6/4 381/6/4
f 380/5/4 377/5/4 381/5/4
f 381/6/4 378/6/4 382/6/4
f 383/6/4 384/6/4 386/6/4
f 386/6/4 384/6/4 389/6/4
f 385/6/4 386/6/4 389/6/4
f 389/6/4 384/6/4 390/6/4
f 390/6/4 384/6/4 391/6/4
f 387/6/4 388/6/4 393/6/4
f 393/6/4 388/6/4 394/6/4
f 385/6/4 389/6/4 397/6/4
f 390/6/4 391/6/4 398/6/4
f 391/2/4 392/2/4 399/2/4
f 398/6/4 391/6/4 399/6/4
f 399/2/4 392/2/4 400/2/4
f 395/5/4 396/5/4 402/5/4
f 402/5/4 396/5/4 403/5/4
f 397/6/4 398/6/4 404/6/4
f 385/6/4 397/6/4 404/6/4
f 398/6/4 399/6/4 404/6/4
f 404/6/4 399/6/4 405/6/4
f 400/6/4 401/6/4 406/6/4
f 406/6/4 401/6/4 407/6/4
f 402/6/4 403/6/4 408/6/4
f 408/6/4 403/6/4 409/6/4
f 405/6/4 399/6/4 410/6/4
f 410/6/4 399/6/4 411/6/4
f 416/11/5 413/11/5 412/11/5
f 417/11/5 413/11/5 416/11/5
f 418/11/5 415/11/5 414/11/5
f 419/11/5 415/11/5 418/11/5
f 422/8/5 421/8/5 420/8/5
f 423/8/5 421/8/5 422/8/5
f 424/8/5 421/8/5 423/8/5
f 425/8/5 421/8/5 424/8/5
f 427/8/5 424/8/5 423/8/5
f 428/8/5 424/8/5 427/8/5
f 430/8/5 427/8/5 426/8/5
f 431/7/5 428/7/5 427/7/5
f 431/8/5 427/8/5 430/8/5
f 432/8/5 429/8/5 428/8/5
f 432/7/5 428/7/5 431/7/5
f 433/8/5 429/8/5 432/8/5
f 440/4/5 435/4/5 434/4/5
f 441/1/5 436/1/5 435/1/5
f 441/4/5 435/4/5 440/4/5
f 442/1/5 436/1/5 441/1/5
f 443/1/5 438/1/5 437/1/5
f 444/4/5 439/4/5 438/4/5
f 444/1/5 438/1/5 443/1/5
f 445/4/5 439/4/5 444/4/5
f 448/6/5 447/6/5 446/6/5
f 449/6/5 447/6/5 448/6/5
f 452/6/5 451/6/5 450/6/5
f 453/6/5 451/6/5 452/6/5
f 456/6/5 455/6/5 454/6/5
f 457/6/5 455/6/5 456/6/5
f 458/4/5 457/4/5 456/4/5
f 459/4/5 457/4/5 458/4/5
f 464/6/5 461/6/5 460/6/5
f 465/6/5 463/6/5 462/6/5
f 466/6/5 464/6/5 460/6/5
f 467/6/5 464/6/5 466/6/5
f 468/6/5 463/6/5 465/6/5
f 469/6/5 463/6/5 468/6/5
f 474/6/5 471/6/5 470/6/5
f 475/6/5 473/6/5 472/6/5
f 476/6/5 474/6/5 470/6/5
f 477/6/5 474/6/5 476/6/5
f 478/6/5 473/6/5 475/6/5
f 479/6/5 473/6/5 478/6/5
f 482/6/5 481/6/5 480/6/5
f 483/6/5 481/6/5 482/6/5
f 490/2/5 485/2/5 484/2/5
f 490/2/5 486/2/5 485/2/5
f 491/2/5 486/2/5 490/2/5
f 492/2/5 486/2/5 491/2/5
f 493/2/5 489/2/5 488/2/5
f 493/2/5 488/2/5 487/2/5
f 494/2/5 489/2/5 493/2/5
f 495/2/5 489/2/5 494/2/5
f 500/6/5 497/6/5 496/6/5
f 501/6/5 497/6/5 500/6/5
f 506/6/5 499/6/5 498/6/5
f 507/6/5 499/6/5 506/6/5
f 508/4/5 503/4/5 502/4/5
f 509/4/5 503/4/5 508/4/5
f 510/4/5 505/4/5 504/4/5
f 511/4/5 505/4/5 510/4/5
f 513/6/5 512/6/5 511/6/5
f 513/6/5 511/6/5 510/6/5
f 514/6/5 512/6/5 513/6/5
f 519/6/5 516/6/5 515/6/5
f 520/6/5 516/6/5 519/6/5
f 522/6/5 518/6/5 517/6/5
f 523/6/5 518/6/5 522/6/5
f 524/6/5 521/6/5 520/6/5
f 525/6/5 521/6/5 524/6/5
f 529/5/5 527/5/5 526/5/5
f 530/6/5 528/6/5 527/6/5
f 530/5/5 527/5/5 529/5/5
f 531/6/5 528/6/5 530/6/5
f 533/1/6 534/1/6 538/1/6
f 538/1/6 534/1/6 539/1/6
f 535/1/6 536/1/6 540/1/6
f 540/1/6 536/1/6 541/1/6
f 532/4/6 533/4/6 542/4/6
f 533/1/6 538/1/6 543/1/6
f 542/4/6 533/4/6 543/4/6
f 543/1/6 538/1/6 544/1/6
f 541/1/6 536/1/6 545/1/6
f 536/4/6 537/4/6 546/4/6
f 545/1/6 536/1/6 546/1/6
f 546/4/6 537/4/6 547/4/6
f 548/6/6 549/6/6 550/6/6
f 550/6/6 549/6/6 551/6/6
f 552/6/6 553/6/6 556/6/6
f 554/6/6 555/6/6 559/6/6
f 556/6/6 557/6/6 560/6/6
f 552/6/6 556/6/6 560/6/6
f 560/6/6 557/6/6 561/6/6
f 558/6/6 559/6/6 562/6/6
f 559/6/6 555/6/6 563/6/6
f 562/6/6 559/6/6 563/6/6
f 564/4/6 565/4/6 568/4/6
f 568/4/6 565/4/6 569/4/6
f 566/4/6 567/4/6 570/4/6
f 570/4/6 567/4/6 571/4/6
f 572/2/6 573/2/6 576/2/6
f 576/2/6 573/2/6 577/2/6
f 574/2/6 575/2/6 578/2/6
f 578/2/6 575/2/6 579/2/6
f 580/2/6 581/2/6 582/2/6
f 582/2/6 581/2/6 583/2/6
f 584/6/6 585/6/6 586/6/6
f 586/6/6 585/6/6 587/6/6
f 588/6/6 589/6/6 590/6/6
f 590/6/6 589/6/6 591/6/6
f 592/6/6 593/6/6 594/6/6
f 594/6/6 593/6/6 595/6/6
f 595/6/6 593/6/6 596/6/6
f 592/6/6 594/6/6 597/6/6
f 597/6/6 594/6/6 598/6/6
f 596/6/6 593/6/6 599/6/6
f 599/6/6 593/6/6 600/6/6
f 601/5/6 602/5/6 604/5/6
f 602/6/6 603/6/6 605/6/6
f 604/5/6 602/5/6 605/5/6
f 605/6/6 603/6/6 606/6/6
