# MagicaVoxel @ Ephtracy

# group
o 

# material
mtllib Moneda.mtl
usemtl palette

# normals
vn -1 0 0
vn 1 0 0
vn 0 0 1
vn 0 0 -1
vn 0 -1 0
vn 0 1 0

# texcoords
vt 0.310547 0.5
vt 0.341797 0.5
vt 0.373047 0.5
vt 0.416016 0.5

# verts
v -0.0999999 0 0.2
v -0.0999999 0 -0.2
v -0.0999999 0.1 0.3
v -0.0999999 0.1 0.2
v -0.0999999 0.1 -0.2
v -0.0999999 0.1 -0.3
v -0.0999999 0.2 0.4
v -0.0999999 0.2 0.3
v -0.0999999 0.2 0.2
v -0.0999999 0.2 -0.2
v -0.0999999 0.2 -0.3
v -0.0999999 0.2 -0.4
v -0.0999999 0.3 0.5
v -0.0999999 0.3 0.4
v -0.0999999 0.3 0.3
v -0.0999999 0.3 0.1
v -0.0999999 0.3 -0.1
v -0.0999999 0.3 -0.2
v -0.0999999 0.3 -0.3
v -0.0999999 0.3 -0.4
v -0.0999999 0.3 -0.5
v -0.0999999 0.4 0.2
v -0.0999999 0.4 0.1
v -0.0999999 0.4 -0.1
v -0.0999999 0.4 -0.2
v -0.0999999 1 0.2
v -0.0999999 1 0.1
v -0.0999999 1 -0.1
v -0.0999999 1 -0.2
v -0.0999999 1.1 0.5
v -0.0999999 1.1 0.4
v -0.0999999 1.1 0.3
v -0.0999999 1.1 0.2
v -0.0999999 1.1 0.1
v -0.0999999 1.1 -0.1
v -0.0999999 1.1 -0.2
v -0.0999999 1.1 -0.3
v -0.0999999 1.1 -0.4
v -0.0999999 1.1 -0.5
v -0.0999999 1.2 0.4
v -0.0999999 1.2 0.3
v -0.0999999 1.2 0.2
v -0.0999999 1.2 -0.1
v -0.0999999 1.2 -0.2
v -0.0999999 1.2 -0.3
v -0.0999999 1.2 -0.4
v -0.0999999 1.3 0.3
v -0.0999999 1.3 0.2
v -0.0999999 1.3 -0.1
v -0.0999999 1.3 -0.2
v -0.0999999 1.3 -0.3
v -0.0999999 1.4 0.2
v -0.0999999 1.4 -0.2
v 0.2 0 0.2
v 0.2 0 -0.2
v 0.2 0.1 0.3
v 0.2 0.1 0.2
v 0.2 0.1 -0.2
v 0.2 0.1 -0.3
v 0.2 0.2 0.4
v 0.2 0.2 0.3
v 0.2 0.2 0.2
v 0.2 0.2 -0.2
v 0.2 0.2 -0.3
v 0.2 0.2 -0.4
v 0.2 0.3 0.5
v 0.2 0.3 0.4
v 0.2 0.3 0.3
v 0.2 0.3 0.1
v 0.2 0.3 -0.1
v 0.2 0.3 -0.2
v 0.2 0.3 -0.3
v 0.2 0.3 -0.4
v 0.2 0.3 -0.5
v 0.2 0.4 0.2
v 0.2 0.4 0.1
v 0.2 0.4 -0.1
v 0.2 0.4 -0.2
v 0.2 1 0.2
v 0.2 1 0.1
v 0.2 1 -0.1
v 0.2 1 -0.2
v 0.2 1.1 0.5
v 0.2 1.1 0.4
v 0.2 1.1 0.3
v 0.2 1.1 0.2
v 0.2 1.1 0.1
v 0.2 1.1 -0.1
v 0.2 1.1 -0.2
v 0.2 1.1 -0.3
v 0.2 1.1 -0.4
v 0.2 1.1 -0.5
v 0.2 1.2 0.4
v 0.2 1.2 0.3
v 0.2 1.2 0.2
v 0.2 1.2 -0.1
v 0.2 1.2 -0.2
v 0.2 1.2 -0.3
v 0.2 1.2 -0.4
v 0.2 1.3 0.3
v 0.2 1.3 0.2
v 0.2 1.3 -0.1
v 0.2 1.3 -0.2
v 0.2 1.3 -0.3
v 0.2 1.4 0.2
v 0.2 1.4 -0.2
v -0.0999999 0.3 0.5
v -0.0999999 1.1 0.5
v 7.45058e-08 0.3 0.5
v 7.45058e-08 1.1 0.5
v 0.1 0.3 0.5
v 0.1 1.1 0.5
v 0.2 0.3 0.5
v 0.2 1.1 0.5
v -0.0999999 0.2 0.4
v -0.0999999 0.3 0.4
v -0.0999999 1.1 0.4
v -0.0999999 1.2 0.4
v 7.45058e-08 0.2 0.4
v 7.45058e-08 0.3 0.4
v 7.45058e-08 1.1 0.4
v 7.45058e-08 1.2 0.4
v 0.1 0.2 0.4
v 0.1 0.3 0.4
v 0.1 1.1 0.4
v 0.1 1.2 0.4
v 0.2 0.2 0.4
v 0.2 0.3 0.4
v 0.2 1.1 0.4
v 0.2 1.2 0.4
v -0.0999999 0.1 0.3
v -0.0999999 0.2 0.3
v -0.0999999 1.2 0.3
v -0.0999999 1.3 0.3
v 7.45058e-08 0.1 0.3
v 7.45058e-08 0.2 0.3
v 7.45058e-08 1.2 0.3
v 7.45058e-08 1.3 0.3
v 0.1 0.1 0.3
v 0.1 0.2 0.3
v 0.1 1.2 0.3
v 0.1 1.3 0.3
v 0.2 0.1 0.3
v 0.2 0.2 0.3
v 0.2 1.2 0.3
v 0.2 1.3 0.3
v -0.0999999 0 0.2
v -0.0999999 0.1 0.2
v -0.0999999 1.3 0.2
v -0.0999999 1.4 0.2
v 7.45058e-08 0.1 0.2
v 7.45058e-08 1.3 0.2
v 0.1 0.1 0.2
v 0.1 1.3 0.2
v 0.2 0 0.2
v 0.2 0.1 0.2
v 0.2 1.3 0.2
v 0.2 1.4 0.2
v -0.0999999 0 -0.2
v -0.0999999 0.1 -0.2
v -0.0999999 1.3 -0.2
v -0.0999999 1.4 -0.2
v 7.45058e-08 0.1 -0.2
v 7.45058e-08 1.3 -0.2
v 0.1 0.1 -0.2
v 0.1 1.3 -0.2
v 0.2 0 -0.2
v 0.2 0.1 -0.2
v 0.2 1.3 -0.2
v 0.2 1.4 -0.2
v -0.0999999 0.1 -0.3
v -0.0999999 0.2 -0.3
v -0.0999999 1.2 -0.3
v -0.0999999 1.3 -0.3
v 7.45058e-08 0.1 -0.3
v 7.45058e-08 0.2 -0.3
v 7.45058e-08 1.2 -0.3
v 7.45058e-08 1.3 -0.3
v 0.1 0.1 -0.3
v 0.1 0.2 -0.3
v 0.1 1.2 -0.3
v 0.1 1.3 -0.3
v 0.2 0.1 -0.3
v 0.2 0.2 -0.3
v 0.2 1.2 -0.3
v 0.2 1.3 -0.3
v -0.0999999 0.2 -0.4
v -0.0999999 0.3 -0.4
v -0.0999999 1.1 -0.4
v -0.0999999 1.2 -0.4
v 7.45058e-08 0.2 -0.4
v 7.45058e-08 0.3 -0.4
v 7.45058e-08 1.1 -0.4
v 7.45058e-08 1.2 -0.4
v 0.1 0.2 -0.4
v 0.1 0.3 -0.4
v 0.1 1.1 -0.4
v 0.1 1.2 -0.4
v 0.2 0.2 -0.4
v 0.2 0.3 -0.4
v 0.2 1.1 -0.4
v 0.2 1.2 -0.4
v -0.0999999 0.3 -0.5
v -0.0999999 1.1 -0.5
v 7.45058e-08 0.3 -0.5
v 7.45058e-08 1.1 -0.5
v 0.1 0.3 -0.5
v 0.1 1.1 -0.5
v 0.2 0.3 -0.5
v 0.2 1.1 -0.5
v -0.0999999 0 0.2
v 0.2 0 0.2
v -0.0999999 0 -0.2
v 0.2 0 -0.2
v -0.0999999 0.1 0.3
v 7.45058e-08 0.1 0.3
v 0.1 0.1 0.3
v 0.2 0.1 0.3
v -0.0999999 0.1 0.2
v 7.45058e-08 0.1 0.2
v 0.1 0.1 0.2
v 0.2 0.1 0.2
v -0.0999999 0.1 -0.2
v 7.45058e-08 0.1 -0.2
v 0.1 0.1 -0.2
v 0.2 0.1 -0.2
v -0.0999999 0.1 -0.3
v 7.45058e-08 0.1 -0.3
v 0.1 0.1 -0.3
v 0.2 0.1 -0.3
v -0.0999999 0.2 0.4
v 7.45058e-08 0.2 0.4
v 0.1 0.2 0.4
v 0.2 0.2 0.4
v -0.0999999 0.2 0.3
v 7.45058e-08 0.2 0.3
v 0.1 0.2 0.3
v 0.2 0.2 0.3
v -0.0999999 0.2 -0.3
v 7.45058e-08 0.2 -0.3
v 0.1 0.2 -0.3
v 0.2 0.2 -0.3
v -0.0999999 0.2 -0.4
v 7.45058e-08 0.2 -0.4
v 0.1 0.2 -0.4
v 0.2 0.2 -0.4
v -0.0999999 0.3 0.5
v 7.45058e-08 0.3 0.5
v 0.1 0.3 0.5
v 0.2 0.3 0.5
v -0.0999999 0.3 0.4
v 7.45058e-08 0.3 0.4
v 0.1 0.3 0.4
v 0.2 0.3 0.4
v -0.0999999 0.3 -0.4
v 7.45058e-08 0.3 -0.4
v 0.1 0.3 -0.4
v 0.2 0.3 -0.4
v -0.0999999 0.3 -0.5
v 7.45058e-08 0.3 -0.5
v 0.1 0.3 -0.5
v 0.2 0.3 -0.5
v -0.0999999 1.1 0.5
v 7.45058e-08 1.1 0.5
v 0.1 1.1 0.5
v 0.2 1.1 0.5
v -0.0999999 1.1 0.4
v 7.45058e-08 1.1 0.4
v 0.1 1.1 0.4
v 0.2 1.1 0.4
v -0.0999999 1.1 -0.4
v 7.45058e-08 1.1 -0.4
v 0.1 1.1 -0.4
v 0.2 1.1 -0.4
v -0.0999999 1.1 -0.5
v 7.45058e-08 1.1 -0.5
v 0.1 1.1 -0.5
v 0.2 1.1 -0.5
v -0.0999999 1.2 0.4
v 7.45058e-08 1.2 0.4
v 0.1 1.2 0.4
v 0.2 1.2 0.4
v -0.0999999 1.2 0.3
v 7.45058e-08 1.2 0.3
v 0.1 1.2 0.3
v 0.2 1.2 0.3
v -0.0999999 1.2 -0.3
v 7.45058e-08 1.2 -0.3
v 0.1 1.2 -0.3
v 0.2 1.2 -0.3
v -0.0999999 1.2 -0.4
v 7.45058e-08 1.2 -0.4
v 0.1 1.2 -0.4
v 0.2 1.2 -0.4
v -0.0999999 1.3 0.3
v 7.45058e-08 1.3 0.3
v 0.1 1.3 0.3
v 0.2 1.3 0.3
v -0.0999999 1.3 0.2
v 7.45058e-08 1.3 0.2
v 0.1 1.3 0.2
v 0.2 1.3 0.2
v -0.0999999 1.3 -0.2
v 7.45058e-08 1.3 -0.2
v 0.1 1.3 -0.2
v 0.2 1.3 -0.2
v -0.0999999 1.3 -0.3
v 7.45058e-08 1.3 -0.3
v 0.1 1.3 -0.3
v 0.2 1.3 -0.3
v -0.0999999 1.4 0.2
v 0.2 1.4 0.2
v -0.0999999 1.4 -0.2
v 0.2 1.4 -0.2

# faces
f 4/1/1 2/1/1 1/1/1
f 5/1/1 2/1/1 4/1/1
f 8/1/1 4/1/1 3/1/1
f 9/2/1 5/2/1 4/2/1
f 9/1/1 4/1/1 8/1/1
f 10/1/1 6/1/1 5/1/1
f 10/2/1 5/2/1 9/2/1
f 11/1/1 6/1/1 10/1/1
f 14/1/1 8/1/1 7/1/1
f 15/3/1 9/3/1 8/3/1
f 15/3/1 10/3/1 9/3/1
f 15/1/1 8/1/1 14/1/1
f 16/3/1 10/3/1 15/3/1
f 17/3/1 10/3/1 16/3/1
f 18/2/1 11/2/1 10/2/1
f 18/3/1 10/3/1 17/3/1
f 19/1/1 12/1/1 11/1/1
f 19/2/1 11/2/1 18/2/1
f 20/1/1 12/1/1 19/1/1
f 22/3/1 16/3/1 15/3/1
f 23/4/1 17/4/1 16/4/1
f 23/3/1 16/3/1 22/3/1
f 24/3/1 18/3/1 17/3/1
f 24/4/1 17/4/1 23/4/1
f 24/3/1 19/3/1 18/3/1
f 25/3/1 19/3/1 24/3/1
f 26/2/1 23/2/1 22/2/1
f 26/3/1 22/3/1 15/3/1
f 27/3/1 24/3/1 23/3/1
f 27/2/1 23/2/1 26/2/1
f 28/4/1 25/4/1 24/4/1
f 28/3/1 24/3/1 27/3/1
f 29/3/1 19/3/1 25/3/1
f 29/4/1 25/4/1 28/4/1
f 30/1/1 14/1/1 13/1/1
f 31/4/1 15/4/1 14/4/1
f 31/1/1 14/1/1 30/1/1
f 32/3/1 27/3/1 26/3/1
f 32/4/1 15/4/1 31/4/1
f 32/3/1 26/3/1 15/3/1
f 33/3/1 27/3/1 32/3/1
f 34/2/1 28/2/1 27/2/1
f 34/3/1 27/3/1 33/3/1
f 35/3/1 29/3/1 28/3/1
f 35/2/1 28/2/1 34/2/1
f 36/3/1 19/3/1 29/3/1
f 36/3/1 29/3/1 35/3/1
f 37/2/1 20/2/1 19/2/1
f 37/3/1 19/3/1 36/3/1
f 38/1/1 21/1/1 20/1/1
f 38/2/1 20/2/1 37/2/1
f 39/1/1 21/1/1 38/1/1
f 40/1/1 32/1/1 31/1/1
f 41/4/1 33/4/1 32/4/1
f 41/1/1 32/1/1 40/1/1
f 42/3/1 35/3/1 34/3/1
f 42/4/1 33/4/1 41/4/1
f 42/3/1 36/3/1 35/3/1
f 42/3/1 34/3/1 33/3/1
f 43/3/1 36/3/1 42/3/1
f 44/2/1 37/2/1 36/2/1
f 44/3/1 36/3/1 43/3/1
f 45/1/1 38/1/1 37/1/1
f 45/2/1 37/2/1 44/2/1
f 46/1/1 38/1/1 45/1/1
f 47/1/1 42/1/1 41/1/1
f 48/4/1 43/4/1 42/4/1
f 48/1/1 42/1/1 47/1/1
f 49/2/1 44/2/1 43/2/1
f 49/4/1 43/4/1 48/4/1
f 50/1/1 45/1/1 44/1/1
f 50/2/1 44/2/1 49/2/1
f 51/1/1 45/1/1 50/1/1
f 52/1/1 49/1/1 48/1/1
f 52/1/1 50/1/1 49/1/1
f 53/1/1 50/1/1 52/1/1
f 54/1/2 55/1/2 57/1/2
f 57/1/2 55/1/2 58/1/2
f 56/1/2 57/1/2 61/1/2
f 57/2/2 58/2/2 62/2/2
f 61/1/2 57/1/2 62/1/2
f 58/1/2 59/1/2 63/1/2
f 62/2/2 58/2/2 63/2/2
f 63/1/2 59/1/2 64/1/2
f 60/1/2 61/1/2 67/1/2
f 61/3/2 62/3/2 68/3/2
f 62/3/2 63/3/2 68/3/2
f 67/1/2 61/1/2 68/1/2
f 68/3/2 63/3/2 69/3/2
f 69/3/2 63/3/2 70/3/2
f 63/2/2 64/2/2 71/2/2
f 70/3/2 63/3/2 71/3/2
f 64/1/2 65/1/2 72/1/2
f 71/2/2 64/2/2 72/2/2
f 72/1/2 65/1/2 73/1/2
f 68/3/2 69/3/2 75/3/2
f 69/4/2 70/4/2 76/4/2
f 75/3/2 69/3/2 76/3/2
f 70/3/2 71/3/2 77/3/2
f 76/4/2 70/4/2 77/4/2
f 71/3/2 72/3/2 77/3/2
f 77/3/2 72/3/2 78/3/2
f 75/2/2 76/2/2 79/2/2
f 68/3/2 75/3/2 79/3/2
f 76/3/2 77/3/2 80/3/2
f 79/2/2 76/2/2 80/2/2
f 77/4/2 78/4/2 81/4/2
f 80/3/2 77/3/2 81/3/2
f 78/3/2 72/3/2 82/3/2
f 81/4/2 78/4/2 82/4/2
f 66/1/2 67/1/2 83/1/2
f 67/4/2 68/4/2 84/4/2
f 83/1/2 67/1/2 84/1/2
f 79/3/2 80/3/2 85/3/2
f 84/4/2 68/4/2 85/4/2
f 68/3/2 79/3/2 85/3/2
f 85/3/2 80/3/2 86/3/2
f 80/2/2 81/2/2 87/2/2
f 86/3/2 80/3/2 87/3/2
f 81/3/2 82/3/2 88/3/2
f 87/2/2 81/2/2 88/2/2
f 82/3/2 72/3/2 89/3/2
f 88/3/2 82/3/2 89/3/2
f 72/2/2 73/2/2 90/2/2
f 89/3/2 72/3/2 90/3/2
f 73/1/2 74/1/2 91/1/2
f 90/2/2 73/2/2 91/2/2
f 91/1/2 74/1/2 92/1/2
f 84/1/2 85/1/2 93/1/2
f 85/4/2 86/4/2 94/4/2
f 93/1/2 85/1/2 94/1/2
f 87/3/2 88/3/2 95/3/2
f 94/4/2 86/4/2 95/4/2
f 88/3/2 89/3/2 95/3/2
f 86/3/2 87/3/2 95/3/2
f 95/3/2 89/3/2 96/3/2
f 89/2/2 90/2/2 97/2/2
f 96/3/2 89/3/2 97/3/2
f 90/1/2 91/1/2 98/1/2
f 97/2/2 90/2/2 98/2/2
f 98/1/2 91/1/2 99/1/2
f 94/1/2 95/1/2 100/1/2
f 95/4/2 96/4/2 101/4/2
f 100/1/2 95/1/2 101/1/2
f 96/2/2 97/2/2 102/2/2
f 101/4/2 96/4/2 102/4/2
f 97/1/2 98/1/2 103/1/2
f 102/2/2 97/2/2 103/2/2
f 103/1/2 98/1/2 104/1/2
f 101/1/2 102/1/2 105/1/2
f 102/1/2 103/1/2 105/1/2
f 105/1/2 103/1/2 106/1/2
f 109/1/3 108/1/3 107/1/3
f 110/1/3 108/1/3 109/1/3
f 111/4/3 110/4/3 109/4/3
f 112/4/3 110/4/3 111/4/3
f 113/1/3 112/1/3 111/1/3
f 114/1/3 112/1/3 113/1/3
f 119/1/3 116/1/3 115/1/3
f 120/1/3 116/1/3 119/1/3
f 121/1/3 118/1/3 117/1/3
f 122/1/3 118/1/3 121/1/3
f 123/3/3 120/3/3 119/3/3
f 124/3/3 120/3/3 123/3/3
f 125/4/3 122/4/3 121/4/3
f 126/4/3 122/4/3 125/4/3
f 127/1/3 124/1/3 123/1/3
f 128/1/3 124/1/3 127/1/3
f 129/1/3 126/1/3 125/1/3
f 130/1/3 126/1/3 129/1/3
f 135/1/3 132/1/3 131/1/3
f 136/1/3 132/1/3 135/1/3
f 137/1/3 134/1/3 133/1/3
f 138/1/3 134/1/3 137/1/3
f 139/3/3 136/3/3 135/3/3
f 140/3/3 136/3/3 139/3/3
f 141/4/3 138/4/3 137/4/3
f 142/4/3 138/4/3 141/4/3
f 143/1/3 140/1/3 139/1/3
f 144/1/3 140/1/3 143/1/3
f 145/1/3 142/1/3 141/1/3
f 146/1/3 142/1/3 145/1/3
f 151/1/3 148/1/3 147/1/3
f 152/1/3 150/1/3 149/1/3
f 153/1/3 151/1/3 147/1/3
f 154/1/3 150/1/3 152/1/3
f 155/1/3 153/1/3 147/1/3
f 156/1/3 153/1/3 155/1/3
f 157/1/3 150/1/3 154/1/3
f 158/1/3 150/1/3 157/1/3
f 159/1/4 160/1/4 163/1/4
f 161/1/4 162/1/4 164/1/4
f 159/1/4 163/1/4 165/1/4
f 164/1/4 162/1/4 166/1/4
f 159/1/4 165/1/4 167/1/4
f 167/1/4 165/1/4 168/1/4
f 166/1/4 162/1/4 169/1/4
f 169/1/4 162/1/4 170/1/4
f 171/1/4 172/1/4 175/1/4
f 175/1/4 172/1/4 176/1/4
f 173/1/4 174/1/4 177/1/4
f 177/1/4 174/1/4 178/1/4
f 175/3/4 176/3/4 179/3/4
f 179/3/4 176/3/4 180/3/4
f 177/3/4 178/3/4 181/3/4
f 181/3/4 178/3/4 182/3/4
f 179/1/4 180/1/4 183/1/4
f 183/1/4 180/1/4 184/1/4
f 181/1/4 182/1/4 185/1/4
f 185/1/4 182/1/4 186/1/4
f 187/1/4 188/1/4 191/1/4
f 191/1/4 188/1/4 192/1/4
f 189/1/4 190/1/4 193/1/4
f 193/1/4 190/1/4 194/1/4
f 191/3/4 192/3/4 195/3/4
f 195/3/4 192/3/4 196/3/4
f 193/3/4 194/3/4 197/3/4
f 197/3/4 194/3/4 198/3/4
f 195/1/4 196/1/4 199/1/4
f 199/1/4 196/1/4 200/1/4
f 197/1/4 198/1/4 201/1/4
f 201/1/4 198/1/4 202/1/4
f 203/1/4 204/1/4 205/1/4
f 205/1/4 204/1/4 206/1/4
f 205/3/4 206/3/4 207/3/4
f 207/3/4 206/3/4 208/3/4
f 207/1/4 208/1/4 209/1/4
f 209/1/4 208/1/4 210/1/4
f 213/1/5 212/1/5 211/1/5
f 214/1/5 212/1/5 213/1/5
f 219/1/5 216/1/5 215/1/5
f 220/3/5 217/3/5 216/3/5
f 220/1/5 216/1/5 219/1/5
f 221/1/5 218/1/5 217/1/5
f 221/3/5 217/3/5 220/3/5
f 222/1/5 218/1/5 221/1/5
f 227/1/5 224/1/5 223/1/5
f 228/3/5 225/3/5 224/3/5
f 228/1/5 224/1/5 227/1/5
f 229/1/5 226/1/5 225/1/5
f 229/3/5 225/3/5 228/3/5
f 230/1/5 226/1/5 229/1/5
f 235/1/5 232/1/5 231/1/5
f 236/3/5 233/3/5 232/3/5
f 236/1/5 232/1/5 235/1/5
f 237/1/5 234/1/5 233/1/5
f 237/3/5 233/3/5 236/3/5
f 238/1/5 234/1/5 237/1/5
f 243/1/5 240/1/5 239/1/5
f 244/3/5 241/3/5 240/3/5
f 244/1/5 240/1/5 243/1/5
f 245/1/5 242/1/5 241/1/5
f 245/3/5 241/3/5 244/3/5
f 246/1/5 242/1/5 245/1/5
f 251/1/5 248/1/5 247/1/5
f 252/4/5 249/4/5 248/4/5
f 252/1/5 248/1/5 251/1/5
f 253/1/5 250/1/5 249/1/5
f 253/4/5 249/4/5 252/4/5
f 254/1/5 250/1/5 253/1/5
f 259/1/5 256/1/5 255/1/5
f 260/3/5 257/3/5 256/3/5
f 260/1/5 256/1/5 259/1/5
f 261/1/5 258/1/5 257/1/5
f 261/3/5 257/3/5 260/3/5
f 262/1/5 258/1/5 261/1/5
f 263/1/6 264/1/6 267/1/6
f 264/4/6 265/4/6 268/4/6
f 267/1/6 264/1/6 268/1/6
f 265/1/6 266/1/6 269/1/6
f 268/4/6 265/4/6 269/4/6
f 269/1/6 266/1/6 270/1/6
f 271/1/6 272/1/6 275/1/6
f 272/3/6 273/3/6 276/3/6
f 275/1/6 272/1/6 276/1/6
f 273/1/6 274/1/6 277/1/6
f 276/3/6 273/3/6 277/3/6
f 277/1/6 274/1/6 278/1/6
f 279/1/6 280/1/6 283/1/6
f 280/4/6 281/4/6 284/4/6
f 283/1/6 280/1/6 284/1/6
f 281/1/6 282/1/6 285/1/6
f 284/4/6 281/4/6 285/4/6
f 285/1/6 282/1/6 286/1/6
f 287/1/6 288/1/6 291/1/6
f 288/3/6 289/3/6 292/3/6
f 291/1/6 288/1/6 292/1/6
f 289/1/6 290/1/6 293/1/6
f 292/3/6 289/3/6 293/3/6
f 293/1/6 290/1/6 294/1/6
f 295/1/6 296/1/6 299/1/6
f 296/4/6 297/4/6 300/4/6
f 299/1/6 296/1/6 300/1/6
f 297/1/6 298/1/6 301/1/6
f 300/4/6 297/4/6 301/4/6
f 301/1/6 298/1/6 302/1/6
f 303/1/6 304/1/6 307/1/6
f 304/3/6 305/3/6 308/3/6
f 307/1/6 304/1/6 308/1/6
f 305/1/6 306/1/6 309/1/6
f 308/3/6 305/3/6 309/3/6
f 309/1/6 306/1/6 310/1/6
f 311/1/6 312/1/6 313/1/6
f 313/1/6 312/1/6 314/1/6
